M48
;DRILL file {KiCad (5.0.1-3-g963ef8bb5)} date Wednesday, May 01, 2019 at 01:09:19 pm
;FORMAT={2:4/ absolute / inch / suppress leading zeros}
FMAT,2
INCH,TZ
T1C0.0315
T2C0.0394
T3C0.1260
%
G90
G05
M72
T1
X35388Y-24487
X36176Y-24487
X50701Y-40476
X50701Y-41476
X39754Y-25077
X39754Y-26077
X39754Y-27077
X39754Y-28077
X39754Y-29077
X39754Y-30077
X39754Y-31077
X39754Y-32077
X39754Y-33077
X39754Y-34077
X39754Y-35077
X39754Y-36077
X39754Y-37077
X39754Y-38077
X39754Y-39077
X45754Y-25077
X45754Y-26077
X45754Y-27077
X45754Y-28077
X45754Y-29077
X45754Y-30077
X45754Y-31077
X45754Y-32077
X45754Y-33077
X45754Y-34077
X45754Y-35077
X45754Y-36077
X45754Y-37077
X45754Y-38077
X45754Y-39077
X52301Y-40476
X52301Y-41476
T2
X52188Y-28387
X52188Y-29387
X47607Y-29569
X48607Y-29569
X49607Y-29569
X50607Y-29569
X52188Y-31387
X52188Y-32387
X38300Y-30900
X38300Y-31900
X38300Y-32900
X38300Y-33900
X38300Y-34900
X38300Y-35900
X38300Y-36900
X38300Y-37900
X38300Y-38900
X38300Y-39900
X47607Y-23821
X48607Y-23821
X49607Y-23821
X50607Y-23821
X35093Y-27810
X35093Y-28810
X47607Y-26695
X48607Y-26695
X49607Y-26695
X50607Y-26695
X38369Y-26817
X38369Y-27817
X38369Y-28817
X47323Y-33984
X47323Y-34984
X47323Y-35984
X47323Y-36984
X47323Y-37984
X47323Y-38984
X47323Y-39984
X47323Y-40984
X47607Y-25258
X48607Y-25258
X49607Y-25258
X50607Y-25258
X52188Y-24387
X52188Y-25387
X52188Y-26387
X36869Y-26817
X36869Y-27817
X36869Y-28817
X47607Y-28132
X48607Y-28132
X49607Y-28132
X50607Y-28132
T3
X51555Y-36850
X35807Y-36850
T0
M30
