%TF.GenerationSoftware,KiCad,Pcbnew,(5.0.1-3-g963ef8bb5)*%
%TF.CreationDate,2019-05-01T13:09:07-04:00*%
%TF.ProjectId,VHSBase,564853426173652E6B696361645F7063,rev?*%
%TF.SameCoordinates,Original*%
%TF.FileFunction,Copper,L1,Top,Signal*%
%TF.FilePolarity,Positive*%
%FSLAX46Y46*%
G04 Gerber Fmt 4.6, Leading zero omitted, Abs format (unit mm)*
G04 Created by KiCad (PCBNEW (5.0.1-3-g963ef8bb5)) date Wednesday, May 01, 2019 at 01:09:07 pm*
%MOMM*%
%LPD*%
G01*
G04 APERTURE LIST*
%ADD10O,1.600000X1.600000*%
%ADD11R,1.600000X1.600000*%
%ADD12O,1.700000X1.700000*%
%ADD13R,1.700000X1.700000*%
%ADD14C,1.600000*%
%ADD15C,0.127000*%
%ADD16C,0.250000*%
%ADD17C,0.254000*%
G04 APERTURE END LIST*
D10*
X116215000Y-99255000D03*
X100975000Y-99255000D03*
X116215000Y-63695000D03*
X100975000Y-96715000D03*
X116215000Y-66235000D03*
X100975000Y-94175000D03*
X116215000Y-68775000D03*
X100975000Y-91635000D03*
X116215000Y-71315000D03*
X100975000Y-89095000D03*
X116215000Y-73855000D03*
X100975000Y-86555000D03*
X116215000Y-76395000D03*
X100975000Y-84015000D03*
X116215000Y-78935000D03*
X100975000Y-81475000D03*
X116215000Y-81475000D03*
X100975000Y-78935000D03*
X116215000Y-84015000D03*
X100975000Y-76395000D03*
X116215000Y-86555000D03*
X100975000Y-73855000D03*
X116215000Y-89095000D03*
X100975000Y-71315000D03*
X116215000Y-91635000D03*
X100975000Y-68775000D03*
X116215000Y-94175000D03*
X100975000Y-66235000D03*
X116215000Y-96715000D03*
D11*
X100975000Y-63695000D03*
D12*
X97282000Y-101346000D03*
X97282000Y-98806000D03*
X97282000Y-96266000D03*
X97282000Y-93726000D03*
X97282000Y-91186000D03*
X97282000Y-88646000D03*
X97282000Y-86106000D03*
X97282000Y-83566000D03*
X97282000Y-81026000D03*
D13*
X97282000Y-78486000D03*
D12*
X93646000Y-68116000D03*
X93646000Y-70656000D03*
D13*
X93646000Y-73196000D03*
D12*
X97456000Y-68116000D03*
X97456000Y-70656000D03*
D13*
X97456000Y-73196000D03*
D12*
X132558000Y-72104000D03*
D13*
X132558000Y-74644000D03*
X132558000Y-82264000D03*
D12*
X132558000Y-79724000D03*
D10*
X132844000Y-105348000D03*
D14*
X132844000Y-102808000D03*
X128780000Y-102808000D03*
D10*
X128780000Y-105348000D03*
D12*
X89136000Y-73178000D03*
D13*
X89136000Y-70638000D03*
D14*
X89886000Y-62198000D03*
D11*
X91886000Y-62198000D03*
D12*
X128541000Y-75105000D03*
X126001000Y-75105000D03*
X123461000Y-75105000D03*
D13*
X120921000Y-75105000D03*
D12*
X128541000Y-71455000D03*
X126001000Y-71455000D03*
X123461000Y-71455000D03*
D13*
X120921000Y-71455000D03*
X120921000Y-67805000D03*
D12*
X123461000Y-67805000D03*
X126001000Y-67805000D03*
X128541000Y-67805000D03*
X120200000Y-86320000D03*
X120200000Y-88860000D03*
X120200000Y-91400000D03*
X120200000Y-93940000D03*
X120200000Y-96480000D03*
X120200000Y-99020000D03*
X120200000Y-101560000D03*
D13*
X120200000Y-104100000D03*
D12*
X128541000Y-64155000D03*
X126001000Y-64155000D03*
X123461000Y-64155000D03*
D13*
X120921000Y-64155000D03*
X120921000Y-60505000D03*
D12*
X123461000Y-60505000D03*
X126001000Y-60505000D03*
X128541000Y-60505000D03*
X132558000Y-67024000D03*
X132558000Y-64484000D03*
D13*
X132558000Y-61944000D03*
D15*
X100975000Y-99255000D02*
X100975000Y-98264200D01*
X97282000Y-93726000D02*
X97282000Y-94766800D01*
X97282000Y-94766800D02*
X100779400Y-98264200D01*
X100779400Y-98264200D02*
X100975000Y-98264200D01*
D16*
X116215000Y-63695000D02*
X115089700Y-63695000D01*
X93646000Y-68116000D02*
X94821300Y-68116000D01*
X94821300Y-68116000D02*
X98117000Y-64820300D01*
X98117000Y-64820300D02*
X113964400Y-64820300D01*
X113964400Y-64820300D02*
X115089700Y-63695000D01*
D15*
X100975000Y-96715000D02*
X100975000Y-95724200D01*
X97282000Y-91186000D02*
X97282000Y-92226800D01*
X97282000Y-92226800D02*
X100779400Y-95724200D01*
X100779400Y-95724200D02*
X100975000Y-95724200D01*
X100975000Y-94175000D02*
X100975000Y-93184200D01*
X97282000Y-86106000D02*
X97282000Y-87146800D01*
X97282000Y-87146800D02*
X98322800Y-88187600D01*
X98322800Y-88187600D02*
X98322800Y-90532000D01*
X98322800Y-90532000D02*
X100975000Y-93184200D01*
D16*
X123461000Y-70261900D02*
X123461000Y-71455000D01*
X123461000Y-67805000D02*
X123461000Y-70261900D01*
X123461000Y-70261900D02*
X118393400Y-70261900D01*
X118393400Y-70261900D02*
X117340300Y-71315000D01*
X116215000Y-71315000D02*
X117340300Y-71315000D01*
X123461000Y-71455000D02*
X123461000Y-75105000D01*
X123461000Y-60505000D02*
X123461000Y-64155000D01*
D15*
X128780000Y-105348000D02*
X127789200Y-105348000D01*
X120200000Y-99020000D02*
X121461200Y-99020000D01*
X121461200Y-99020000D02*
X127789200Y-105348000D01*
X128541000Y-75105000D02*
X127500200Y-75105000D01*
X127500200Y-75105000D02*
X123670200Y-78935000D01*
X123670200Y-78935000D02*
X116215000Y-78935000D01*
X128541000Y-71455000D02*
X128541000Y-75105000D01*
X128541000Y-67805000D02*
X128541000Y-71455000D01*
X128541000Y-64155000D02*
X128541000Y-67805000D01*
X128541000Y-60505000D02*
X128541000Y-64155000D01*
X126001000Y-71455000D02*
X126001000Y-75105000D01*
X126001000Y-67805000D02*
X126001000Y-71455000D01*
X126001000Y-64155000D02*
X126001000Y-67805000D01*
X126001000Y-60505000D02*
X126001000Y-64155000D01*
X100975000Y-78935000D02*
X100975000Y-79925800D01*
X97282000Y-96266000D02*
X97282000Y-95225200D01*
X97282000Y-95225200D02*
X96222700Y-94165900D01*
X96222700Y-94165900D02*
X96222700Y-85691600D01*
X96222700Y-85691600D02*
X97078300Y-84836000D01*
X97078300Y-84836000D02*
X97545000Y-84836000D01*
X97545000Y-84836000D02*
X99425900Y-82955100D01*
X99425900Y-82955100D02*
X99425900Y-81474900D01*
X99425900Y-81474900D02*
X100975000Y-79925800D01*
X116215000Y-84015000D02*
X117205800Y-84015000D01*
X120200000Y-88860000D02*
X120200000Y-87819200D01*
X120200000Y-87819200D02*
X117205800Y-84825000D01*
X117205800Y-84825000D02*
X117205800Y-84015000D01*
X100975000Y-73855000D02*
X100975000Y-74845800D01*
X120200000Y-104100000D02*
X120200000Y-103059200D01*
X120200000Y-103059200D02*
X119159200Y-102018400D01*
X119159200Y-102018400D02*
X119159200Y-100750300D01*
X119159200Y-100750300D02*
X116393900Y-97985000D01*
X116393900Y-97985000D02*
X116041600Y-97985000D01*
X116041600Y-97985000D02*
X102524100Y-84467500D01*
X102524100Y-84467500D02*
X102524100Y-76394900D01*
X102524100Y-76394900D02*
X100975000Y-74845800D01*
X132558000Y-74644000D02*
X132558000Y-75684800D01*
X132844000Y-102808000D02*
X133704500Y-101947500D01*
X133704500Y-101947500D02*
X133704500Y-76831300D01*
X133704500Y-76831300D02*
X132558000Y-75684800D01*
X132558000Y-82264000D02*
X132558000Y-83304800D01*
X128780000Y-102808000D02*
X128780000Y-87082800D01*
X128780000Y-87082800D02*
X132558000Y-83304800D01*
X116215000Y-96715000D02*
X116215000Y-95724200D01*
X89136000Y-70638000D02*
X90176800Y-70638000D01*
X90176800Y-70638000D02*
X91554800Y-72016000D01*
X91554800Y-72016000D02*
X99151900Y-72016000D01*
X99151900Y-72016000D02*
X99772500Y-72636600D01*
X99772500Y-72636600D02*
X101157900Y-72636600D01*
X101157900Y-72636600D02*
X114949600Y-86428300D01*
X114949600Y-86428300D02*
X114949600Y-94458800D01*
X114949600Y-94458800D02*
X116215000Y-95724200D01*
D17*
G36*
X91012241Y-72461269D02*
X91051210Y-72519590D01*
X91282259Y-72673972D01*
X91486006Y-72714500D01*
X91486010Y-72714500D01*
X91554799Y-72728183D01*
X91623588Y-72714500D01*
X92148560Y-72714500D01*
X92148560Y-74046000D01*
X92197843Y-74293765D01*
X92338191Y-74503809D01*
X92548235Y-74644157D01*
X92796000Y-74693440D01*
X94496000Y-74693440D01*
X94743765Y-74644157D01*
X94953809Y-74503809D01*
X95094157Y-74293765D01*
X95143440Y-74046000D01*
X95143440Y-73481750D01*
X95971000Y-73481750D01*
X95971000Y-74172310D01*
X96067673Y-74405699D01*
X96246302Y-74584327D01*
X96479691Y-74681000D01*
X97170250Y-74681000D01*
X97329000Y-74522250D01*
X97329000Y-73323000D01*
X97583000Y-73323000D01*
X97583000Y-74522250D01*
X97741750Y-74681000D01*
X98432309Y-74681000D01*
X98665698Y-74584327D01*
X98844327Y-74405699D01*
X98941000Y-74172310D01*
X98941000Y-73481750D01*
X98782250Y-73323000D01*
X97583000Y-73323000D01*
X97329000Y-73323000D01*
X96129750Y-73323000D01*
X95971000Y-73481750D01*
X95143440Y-73481750D01*
X95143440Y-72714500D01*
X95971000Y-72714500D01*
X95971000Y-72910250D01*
X96129750Y-73069000D01*
X97329000Y-73069000D01*
X97329000Y-73049000D01*
X97583000Y-73049000D01*
X97583000Y-73069000D01*
X98782250Y-73069000D01*
X98941000Y-72910250D01*
X98941000Y-72792927D01*
X99229941Y-73081869D01*
X99268910Y-73140190D01*
X99499959Y-73294572D01*
X99618666Y-73318184D01*
X99511887Y-73855000D01*
X99623260Y-74414909D01*
X99940423Y-74889577D01*
X100292758Y-75125000D01*
X99940423Y-75360423D01*
X99623260Y-75835091D01*
X99511887Y-76395000D01*
X99623260Y-76954909D01*
X99940423Y-77429577D01*
X100292758Y-77665000D01*
X99940423Y-77900423D01*
X99623260Y-78375091D01*
X99511887Y-78935000D01*
X99623260Y-79494909D01*
X99940423Y-79969577D01*
X99942205Y-79970768D01*
X98980631Y-80932342D01*
X98922311Y-80971310D01*
X98883342Y-81029631D01*
X98767928Y-81202360D01*
X98713717Y-81474900D01*
X98727401Y-81543694D01*
X98727400Y-82665772D01*
X98570990Y-82822182D01*
X98352625Y-82495375D01*
X98054239Y-82296000D01*
X98352625Y-82096625D01*
X98680839Y-81605418D01*
X98796092Y-81026000D01*
X98680839Y-80446582D01*
X98352625Y-79955375D01*
X98334381Y-79943184D01*
X98379765Y-79934157D01*
X98589809Y-79793809D01*
X98730157Y-79583765D01*
X98779440Y-79336000D01*
X98779440Y-77636000D01*
X98730157Y-77388235D01*
X98589809Y-77178191D01*
X98379765Y-77037843D01*
X98132000Y-76988560D01*
X96432000Y-76988560D01*
X96184235Y-77037843D01*
X95974191Y-77178191D01*
X95833843Y-77388235D01*
X95784560Y-77636000D01*
X95784560Y-79336000D01*
X95833843Y-79583765D01*
X95974191Y-79793809D01*
X96184235Y-79934157D01*
X96229619Y-79943184D01*
X96211375Y-79955375D01*
X95883161Y-80446582D01*
X95767908Y-81026000D01*
X95883161Y-81605418D01*
X96211375Y-82096625D01*
X96509761Y-82296000D01*
X96211375Y-82495375D01*
X95883161Y-82986582D01*
X95767908Y-83566000D01*
X95883161Y-84145418D01*
X96211375Y-84636625D01*
X96258416Y-84668057D01*
X95777431Y-85149042D01*
X95719111Y-85188010D01*
X95680142Y-85246331D01*
X95564728Y-85419060D01*
X95510517Y-85691600D01*
X95524201Y-85760395D01*
X95524200Y-94097110D01*
X95510517Y-94165900D01*
X95524200Y-94234690D01*
X95524200Y-94234693D01*
X95564728Y-94438440D01*
X95719110Y-94669489D01*
X95777431Y-94708458D01*
X96243130Y-95174157D01*
X96211375Y-95195375D01*
X95883161Y-95686582D01*
X95767908Y-96266000D01*
X95883161Y-96845418D01*
X96211375Y-97336625D01*
X96530478Y-97549843D01*
X96400642Y-97610817D01*
X96010355Y-98039076D01*
X95840524Y-98449110D01*
X95961845Y-98679000D01*
X97155000Y-98679000D01*
X97155000Y-98659000D01*
X97409000Y-98659000D01*
X97409000Y-98679000D01*
X98602155Y-98679000D01*
X98723476Y-98449110D01*
X98553645Y-98039076D01*
X98163358Y-97610817D01*
X98033522Y-97549843D01*
X98352625Y-97336625D01*
X98557452Y-97030080D01*
X99863267Y-98335895D01*
X99623260Y-98695091D01*
X99511887Y-99255000D01*
X99623260Y-99814909D01*
X99940423Y-100289577D01*
X100415091Y-100606740D01*
X100833667Y-100690000D01*
X101116333Y-100690000D01*
X101534909Y-100606740D01*
X102009577Y-100289577D01*
X102326740Y-99814909D01*
X102438113Y-99255000D01*
X102326740Y-98695091D01*
X102009577Y-98220423D01*
X101657242Y-97985000D01*
X102009577Y-97749577D01*
X102326740Y-97274909D01*
X102438113Y-96715000D01*
X102326740Y-96155091D01*
X102009577Y-95680423D01*
X101657242Y-95445000D01*
X102009577Y-95209577D01*
X102326740Y-94734909D01*
X102438113Y-94175000D01*
X102326740Y-93615091D01*
X102009577Y-93140423D01*
X101657242Y-92905000D01*
X102009577Y-92669577D01*
X102326740Y-92194909D01*
X102438113Y-91635000D01*
X102326740Y-91075091D01*
X102009577Y-90600423D01*
X101657242Y-90365000D01*
X102009577Y-90129577D01*
X102326740Y-89654909D01*
X102438113Y-89095000D01*
X102326740Y-88535091D01*
X102009577Y-88060423D01*
X101657242Y-87825000D01*
X102009577Y-87589577D01*
X102326740Y-87114909D01*
X102438113Y-86555000D01*
X102326740Y-85995091D01*
X102009577Y-85520423D01*
X101657242Y-85285000D01*
X102009577Y-85049577D01*
X102049208Y-84990265D01*
X102078831Y-85010058D01*
X115245627Y-98176855D01*
X115180423Y-98220423D01*
X114863260Y-98695091D01*
X114751887Y-99255000D01*
X114863260Y-99814909D01*
X115180423Y-100289577D01*
X115655091Y-100606740D01*
X116073667Y-100690000D01*
X116356333Y-100690000D01*
X116774909Y-100606740D01*
X117249577Y-100289577D01*
X117434257Y-100013184D01*
X118460701Y-101039629D01*
X118460700Y-101949610D01*
X118447017Y-102018400D01*
X118460700Y-102087190D01*
X118460700Y-102087193D01*
X118501228Y-102290940D01*
X118655610Y-102521989D01*
X118713931Y-102560958D01*
X118923946Y-102770973D01*
X118892191Y-102792191D01*
X118751843Y-103002235D01*
X118702560Y-103250000D01*
X118702560Y-104950000D01*
X118751843Y-105197765D01*
X118892191Y-105407809D01*
X119102235Y-105548157D01*
X119350000Y-105597440D01*
X121050000Y-105597440D01*
X121297765Y-105548157D01*
X121507809Y-105407809D01*
X121648157Y-105197765D01*
X121697440Y-104950000D01*
X121697440Y-103250000D01*
X121648157Y-103002235D01*
X121507809Y-102792191D01*
X121297765Y-102651843D01*
X121252381Y-102642816D01*
X121270625Y-102630625D01*
X121598839Y-102139418D01*
X121714092Y-101560000D01*
X121598839Y-100980582D01*
X121270625Y-100489375D01*
X120972239Y-100290000D01*
X121270625Y-100090625D01*
X121380123Y-99926750D01*
X127246641Y-105793269D01*
X127285610Y-105851590D01*
X127343095Y-105890000D01*
X87660000Y-105890000D01*
X87660000Y-101346000D01*
X95767908Y-101346000D01*
X95883161Y-101925418D01*
X96211375Y-102416625D01*
X96702582Y-102744839D01*
X97135744Y-102831000D01*
X97428256Y-102831000D01*
X97861418Y-102744839D01*
X98352625Y-102416625D01*
X98680839Y-101925418D01*
X98796092Y-101346000D01*
X98680839Y-100766582D01*
X98352625Y-100275375D01*
X98033522Y-100062157D01*
X98163358Y-100001183D01*
X98553645Y-99572924D01*
X98723476Y-99162890D01*
X98602155Y-98933000D01*
X97409000Y-98933000D01*
X97409000Y-98953000D01*
X97155000Y-98953000D01*
X97155000Y-98933000D01*
X95961845Y-98933000D01*
X95840524Y-99162890D01*
X96010355Y-99572924D01*
X96400642Y-100001183D01*
X96530478Y-100062157D01*
X96211375Y-100275375D01*
X95883161Y-100766582D01*
X95767908Y-101346000D01*
X87660000Y-101346000D01*
X87660000Y-93155431D01*
X88715000Y-93155431D01*
X88715000Y-94044569D01*
X89055259Y-94866026D01*
X89683974Y-95494741D01*
X90505431Y-95835000D01*
X91394569Y-95835000D01*
X92216026Y-95494741D01*
X92844741Y-94866026D01*
X93185000Y-94044569D01*
X93185000Y-93155431D01*
X92844741Y-92333974D01*
X92216026Y-91705259D01*
X91394569Y-91365000D01*
X90505431Y-91365000D01*
X89683974Y-91705259D01*
X89055259Y-92333974D01*
X88715000Y-93155431D01*
X87660000Y-93155431D01*
X87660000Y-73305002D01*
X87815844Y-73305002D01*
X87694524Y-73534890D01*
X87864355Y-73944924D01*
X88254642Y-74373183D01*
X88779108Y-74619486D01*
X89009000Y-74498819D01*
X89009000Y-73305000D01*
X89263000Y-73305000D01*
X89263000Y-74498819D01*
X89492892Y-74619486D01*
X90017358Y-74373183D01*
X90407645Y-73944924D01*
X90577476Y-73534890D01*
X90456155Y-73305000D01*
X89263000Y-73305000D01*
X89009000Y-73305000D01*
X88989000Y-73305000D01*
X88989000Y-73051000D01*
X89009000Y-73051000D01*
X89009000Y-73031000D01*
X89263000Y-73031000D01*
X89263000Y-73051000D01*
X90456155Y-73051000D01*
X90577476Y-72821110D01*
X90407645Y-72411076D01*
X90130292Y-72106739D01*
X90233765Y-72086157D01*
X90443809Y-71945809D01*
X90465027Y-71914054D01*
X91012241Y-72461269D01*
X91012241Y-72461269D01*
G37*
X91012241Y-72461269D02*
X91051210Y-72519590D01*
X91282259Y-72673972D01*
X91486006Y-72714500D01*
X91486010Y-72714500D01*
X91554799Y-72728183D01*
X91623588Y-72714500D01*
X92148560Y-72714500D01*
X92148560Y-74046000D01*
X92197843Y-74293765D01*
X92338191Y-74503809D01*
X92548235Y-74644157D01*
X92796000Y-74693440D01*
X94496000Y-74693440D01*
X94743765Y-74644157D01*
X94953809Y-74503809D01*
X95094157Y-74293765D01*
X95143440Y-74046000D01*
X95143440Y-73481750D01*
X95971000Y-73481750D01*
X95971000Y-74172310D01*
X96067673Y-74405699D01*
X96246302Y-74584327D01*
X96479691Y-74681000D01*
X97170250Y-74681000D01*
X97329000Y-74522250D01*
X97329000Y-73323000D01*
X97583000Y-73323000D01*
X97583000Y-74522250D01*
X97741750Y-74681000D01*
X98432309Y-74681000D01*
X98665698Y-74584327D01*
X98844327Y-74405699D01*
X98941000Y-74172310D01*
X98941000Y-73481750D01*
X98782250Y-73323000D01*
X97583000Y-73323000D01*
X97329000Y-73323000D01*
X96129750Y-73323000D01*
X95971000Y-73481750D01*
X95143440Y-73481750D01*
X95143440Y-72714500D01*
X95971000Y-72714500D01*
X95971000Y-72910250D01*
X96129750Y-73069000D01*
X97329000Y-73069000D01*
X97329000Y-73049000D01*
X97583000Y-73049000D01*
X97583000Y-73069000D01*
X98782250Y-73069000D01*
X98941000Y-72910250D01*
X98941000Y-72792927D01*
X99229941Y-73081869D01*
X99268910Y-73140190D01*
X99499959Y-73294572D01*
X99618666Y-73318184D01*
X99511887Y-73855000D01*
X99623260Y-74414909D01*
X99940423Y-74889577D01*
X100292758Y-75125000D01*
X99940423Y-75360423D01*
X99623260Y-75835091D01*
X99511887Y-76395000D01*
X99623260Y-76954909D01*
X99940423Y-77429577D01*
X100292758Y-77665000D01*
X99940423Y-77900423D01*
X99623260Y-78375091D01*
X99511887Y-78935000D01*
X99623260Y-79494909D01*
X99940423Y-79969577D01*
X99942205Y-79970768D01*
X98980631Y-80932342D01*
X98922311Y-80971310D01*
X98883342Y-81029631D01*
X98767928Y-81202360D01*
X98713717Y-81474900D01*
X98727401Y-81543694D01*
X98727400Y-82665772D01*
X98570990Y-82822182D01*
X98352625Y-82495375D01*
X98054239Y-82296000D01*
X98352625Y-82096625D01*
X98680839Y-81605418D01*
X98796092Y-81026000D01*
X98680839Y-80446582D01*
X98352625Y-79955375D01*
X98334381Y-79943184D01*
X98379765Y-79934157D01*
X98589809Y-79793809D01*
X98730157Y-79583765D01*
X98779440Y-79336000D01*
X98779440Y-77636000D01*
X98730157Y-77388235D01*
X98589809Y-77178191D01*
X98379765Y-77037843D01*
X98132000Y-76988560D01*
X96432000Y-76988560D01*
X96184235Y-77037843D01*
X95974191Y-77178191D01*
X95833843Y-77388235D01*
X95784560Y-77636000D01*
X95784560Y-79336000D01*
X95833843Y-79583765D01*
X95974191Y-79793809D01*
X96184235Y-79934157D01*
X96229619Y-79943184D01*
X96211375Y-79955375D01*
X95883161Y-80446582D01*
X95767908Y-81026000D01*
X95883161Y-81605418D01*
X96211375Y-82096625D01*
X96509761Y-82296000D01*
X96211375Y-82495375D01*
X95883161Y-82986582D01*
X95767908Y-83566000D01*
X95883161Y-84145418D01*
X96211375Y-84636625D01*
X96258416Y-84668057D01*
X95777431Y-85149042D01*
X95719111Y-85188010D01*
X95680142Y-85246331D01*
X95564728Y-85419060D01*
X95510517Y-85691600D01*
X95524201Y-85760395D01*
X95524200Y-94097110D01*
X95510517Y-94165900D01*
X95524200Y-94234690D01*
X95524200Y-94234693D01*
X95564728Y-94438440D01*
X95719110Y-94669489D01*
X95777431Y-94708458D01*
X96243130Y-95174157D01*
X96211375Y-95195375D01*
X95883161Y-95686582D01*
X95767908Y-96266000D01*
X95883161Y-96845418D01*
X96211375Y-97336625D01*
X96530478Y-97549843D01*
X96400642Y-97610817D01*
X96010355Y-98039076D01*
X95840524Y-98449110D01*
X95961845Y-98679000D01*
X97155000Y-98679000D01*
X97155000Y-98659000D01*
X97409000Y-98659000D01*
X97409000Y-98679000D01*
X98602155Y-98679000D01*
X98723476Y-98449110D01*
X98553645Y-98039076D01*
X98163358Y-97610817D01*
X98033522Y-97549843D01*
X98352625Y-97336625D01*
X98557452Y-97030080D01*
X99863267Y-98335895D01*
X99623260Y-98695091D01*
X99511887Y-99255000D01*
X99623260Y-99814909D01*
X99940423Y-100289577D01*
X100415091Y-100606740D01*
X100833667Y-100690000D01*
X101116333Y-100690000D01*
X101534909Y-100606740D01*
X102009577Y-100289577D01*
X102326740Y-99814909D01*
X102438113Y-99255000D01*
X102326740Y-98695091D01*
X102009577Y-98220423D01*
X101657242Y-97985000D01*
X102009577Y-97749577D01*
X102326740Y-97274909D01*
X102438113Y-96715000D01*
X102326740Y-96155091D01*
X102009577Y-95680423D01*
X101657242Y-95445000D01*
X102009577Y-95209577D01*
X102326740Y-94734909D01*
X102438113Y-94175000D01*
X102326740Y-93615091D01*
X102009577Y-93140423D01*
X101657242Y-92905000D01*
X102009577Y-92669577D01*
X102326740Y-92194909D01*
X102438113Y-91635000D01*
X102326740Y-91075091D01*
X102009577Y-90600423D01*
X101657242Y-90365000D01*
X102009577Y-90129577D01*
X102326740Y-89654909D01*
X102438113Y-89095000D01*
X102326740Y-88535091D01*
X102009577Y-88060423D01*
X101657242Y-87825000D01*
X102009577Y-87589577D01*
X102326740Y-87114909D01*
X102438113Y-86555000D01*
X102326740Y-85995091D01*
X102009577Y-85520423D01*
X101657242Y-85285000D01*
X102009577Y-85049577D01*
X102049208Y-84990265D01*
X102078831Y-85010058D01*
X115245627Y-98176855D01*
X115180423Y-98220423D01*
X114863260Y-98695091D01*
X114751887Y-99255000D01*
X114863260Y-99814909D01*
X115180423Y-100289577D01*
X115655091Y-100606740D01*
X116073667Y-100690000D01*
X116356333Y-100690000D01*
X116774909Y-100606740D01*
X117249577Y-100289577D01*
X117434257Y-100013184D01*
X118460701Y-101039629D01*
X118460700Y-101949610D01*
X118447017Y-102018400D01*
X118460700Y-102087190D01*
X118460700Y-102087193D01*
X118501228Y-102290940D01*
X118655610Y-102521989D01*
X118713931Y-102560958D01*
X118923946Y-102770973D01*
X118892191Y-102792191D01*
X118751843Y-103002235D01*
X118702560Y-103250000D01*
X118702560Y-104950000D01*
X118751843Y-105197765D01*
X118892191Y-105407809D01*
X119102235Y-105548157D01*
X119350000Y-105597440D01*
X121050000Y-105597440D01*
X121297765Y-105548157D01*
X121507809Y-105407809D01*
X121648157Y-105197765D01*
X121697440Y-104950000D01*
X121697440Y-103250000D01*
X121648157Y-103002235D01*
X121507809Y-102792191D01*
X121297765Y-102651843D01*
X121252381Y-102642816D01*
X121270625Y-102630625D01*
X121598839Y-102139418D01*
X121714092Y-101560000D01*
X121598839Y-100980582D01*
X121270625Y-100489375D01*
X120972239Y-100290000D01*
X121270625Y-100090625D01*
X121380123Y-99926750D01*
X127246641Y-105793269D01*
X127285610Y-105851590D01*
X127343095Y-105890000D01*
X87660000Y-105890000D01*
X87660000Y-101346000D01*
X95767908Y-101346000D01*
X95883161Y-101925418D01*
X96211375Y-102416625D01*
X96702582Y-102744839D01*
X97135744Y-102831000D01*
X97428256Y-102831000D01*
X97861418Y-102744839D01*
X98352625Y-102416625D01*
X98680839Y-101925418D01*
X98796092Y-101346000D01*
X98680839Y-100766582D01*
X98352625Y-100275375D01*
X98033522Y-100062157D01*
X98163358Y-100001183D01*
X98553645Y-99572924D01*
X98723476Y-99162890D01*
X98602155Y-98933000D01*
X97409000Y-98933000D01*
X97409000Y-98953000D01*
X97155000Y-98953000D01*
X97155000Y-98933000D01*
X95961845Y-98933000D01*
X95840524Y-99162890D01*
X96010355Y-99572924D01*
X96400642Y-100001183D01*
X96530478Y-100062157D01*
X96211375Y-100275375D01*
X95883161Y-100766582D01*
X95767908Y-101346000D01*
X87660000Y-101346000D01*
X87660000Y-93155431D01*
X88715000Y-93155431D01*
X88715000Y-94044569D01*
X89055259Y-94866026D01*
X89683974Y-95494741D01*
X90505431Y-95835000D01*
X91394569Y-95835000D01*
X92216026Y-95494741D01*
X92844741Y-94866026D01*
X93185000Y-94044569D01*
X93185000Y-93155431D01*
X92844741Y-92333974D01*
X92216026Y-91705259D01*
X91394569Y-91365000D01*
X90505431Y-91365000D01*
X89683974Y-91705259D01*
X89055259Y-92333974D01*
X88715000Y-93155431D01*
X87660000Y-93155431D01*
X87660000Y-73305002D01*
X87815844Y-73305002D01*
X87694524Y-73534890D01*
X87864355Y-73944924D01*
X88254642Y-74373183D01*
X88779108Y-74619486D01*
X89009000Y-74498819D01*
X89009000Y-73305000D01*
X89263000Y-73305000D01*
X89263000Y-74498819D01*
X89492892Y-74619486D01*
X90017358Y-74373183D01*
X90407645Y-73944924D01*
X90577476Y-73534890D01*
X90456155Y-73305000D01*
X89263000Y-73305000D01*
X89009000Y-73305000D01*
X88989000Y-73305000D01*
X88989000Y-73051000D01*
X89009000Y-73051000D01*
X89009000Y-73031000D01*
X89263000Y-73031000D01*
X89263000Y-73051000D01*
X90456155Y-73051000D01*
X90577476Y-72821110D01*
X90407645Y-72411076D01*
X90130292Y-72106739D01*
X90233765Y-72086157D01*
X90443809Y-71945809D01*
X90465027Y-71914054D01*
X91012241Y-72461269D01*
G36*
X134240000Y-76375467D02*
X134208090Y-76327710D01*
X134149769Y-76288741D01*
X133834055Y-75973027D01*
X133865809Y-75951809D01*
X134006157Y-75741765D01*
X134055440Y-75494000D01*
X134055440Y-73794000D01*
X134006157Y-73546235D01*
X133865809Y-73336191D01*
X133655765Y-73195843D01*
X133552292Y-73175261D01*
X133829645Y-72870924D01*
X133999476Y-72460890D01*
X133878155Y-72231000D01*
X132685000Y-72231000D01*
X132685000Y-72251000D01*
X132431000Y-72251000D01*
X132431000Y-72231000D01*
X131237845Y-72231000D01*
X131116524Y-72460890D01*
X131286355Y-72870924D01*
X131563708Y-73175261D01*
X131460235Y-73195843D01*
X131250191Y-73336191D01*
X131109843Y-73546235D01*
X131060560Y-73794000D01*
X131060560Y-75494000D01*
X131109843Y-75741765D01*
X131250191Y-75951809D01*
X131460235Y-76092157D01*
X131708000Y-76141440D01*
X132023040Y-76141440D01*
X132054411Y-76188390D01*
X132112731Y-76227358D01*
X133006001Y-77120629D01*
X133006001Y-78325301D01*
X132914892Y-78282514D01*
X132685000Y-78403181D01*
X132685000Y-79597000D01*
X132705000Y-79597000D01*
X132705000Y-79851000D01*
X132685000Y-79851000D01*
X132685000Y-79871000D01*
X132431000Y-79871000D01*
X132431000Y-79851000D01*
X131237845Y-79851000D01*
X131116524Y-80080890D01*
X131286355Y-80490924D01*
X131563708Y-80795261D01*
X131460235Y-80815843D01*
X131250191Y-80956191D01*
X131109843Y-81166235D01*
X131060560Y-81414000D01*
X131060560Y-83114000D01*
X131109843Y-83361765D01*
X131250191Y-83571809D01*
X131281945Y-83593027D01*
X128334731Y-86540242D01*
X128276411Y-86579210D01*
X128237442Y-86637531D01*
X128122028Y-86810260D01*
X128067817Y-87082800D01*
X128081501Y-87151595D01*
X128081500Y-101544096D01*
X127967138Y-101591466D01*
X127563466Y-101995138D01*
X127345000Y-102522561D01*
X127345000Y-103093439D01*
X127563466Y-103620862D01*
X127967138Y-104024534D01*
X128097168Y-104078394D01*
X127745423Y-104313423D01*
X127744233Y-104315205D01*
X122003761Y-98574734D01*
X121964790Y-98516410D01*
X121733741Y-98362028D01*
X121529994Y-98321500D01*
X121529990Y-98321500D01*
X121517628Y-98319041D01*
X121270625Y-97949375D01*
X120972239Y-97750000D01*
X121270625Y-97550625D01*
X121598839Y-97059418D01*
X121714092Y-96480000D01*
X121598839Y-95900582D01*
X121270625Y-95409375D01*
X120972239Y-95210000D01*
X121270625Y-95010625D01*
X121598839Y-94519418D01*
X121714092Y-93940000D01*
X121598839Y-93360582D01*
X121270625Y-92869375D01*
X120972239Y-92670000D01*
X121270625Y-92470625D01*
X121598839Y-91979418D01*
X121714092Y-91400000D01*
X121598839Y-90820582D01*
X121270625Y-90329375D01*
X120972239Y-90130000D01*
X121270625Y-89930625D01*
X121598839Y-89439418D01*
X121714092Y-88860000D01*
X121598839Y-88280582D01*
X121270625Y-87789375D01*
X120972239Y-87590000D01*
X121270625Y-87390625D01*
X121598839Y-86899418D01*
X121714092Y-86320000D01*
X121598839Y-85740582D01*
X121270625Y-85249375D01*
X120779418Y-84921161D01*
X120346256Y-84835000D01*
X120053744Y-84835000D01*
X119620582Y-84921161D01*
X119129375Y-85249375D01*
X118924548Y-85555920D01*
X117904300Y-84535673D01*
X117904300Y-84083794D01*
X117917984Y-84015000D01*
X117863772Y-83742459D01*
X117709390Y-83511410D01*
X117519667Y-83384641D01*
X117249577Y-82980423D01*
X116897242Y-82745000D01*
X117249577Y-82509577D01*
X117566740Y-82034909D01*
X117678113Y-81475000D01*
X117566740Y-80915091D01*
X117249577Y-80440423D01*
X116897242Y-80205000D01*
X117249577Y-79969577D01*
X117474136Y-79633500D01*
X123601410Y-79633500D01*
X123670200Y-79647183D01*
X123738990Y-79633500D01*
X123738994Y-79633500D01*
X123942741Y-79592972D01*
X124173790Y-79438590D01*
X124212760Y-79380267D01*
X124225917Y-79367110D01*
X131116524Y-79367110D01*
X131237845Y-79597000D01*
X132431000Y-79597000D01*
X132431000Y-78403181D01*
X132201108Y-78282514D01*
X131676642Y-78528817D01*
X131286355Y-78957076D01*
X131116524Y-79367110D01*
X124225917Y-79367110D01*
X127449157Y-76143871D01*
X127470375Y-76175625D01*
X127961582Y-76503839D01*
X128394744Y-76590000D01*
X128687256Y-76590000D01*
X129120418Y-76503839D01*
X129611625Y-76175625D01*
X129939839Y-75684418D01*
X130055092Y-75105000D01*
X129939839Y-74525582D01*
X129611625Y-74034375D01*
X129239500Y-73785729D01*
X129239500Y-72774271D01*
X129611625Y-72525625D01*
X129939839Y-72034418D01*
X129996987Y-71747110D01*
X131116524Y-71747110D01*
X131237845Y-71977000D01*
X132431000Y-71977000D01*
X132431000Y-70783181D01*
X132685000Y-70783181D01*
X132685000Y-71977000D01*
X133878155Y-71977000D01*
X133999476Y-71747110D01*
X133829645Y-71337076D01*
X133439358Y-70908817D01*
X132914892Y-70662514D01*
X132685000Y-70783181D01*
X132431000Y-70783181D01*
X132201108Y-70662514D01*
X131676642Y-70908817D01*
X131286355Y-71337076D01*
X131116524Y-71747110D01*
X129996987Y-71747110D01*
X130055092Y-71455000D01*
X129939839Y-70875582D01*
X129611625Y-70384375D01*
X129239500Y-70135729D01*
X129239500Y-69124271D01*
X129611625Y-68875625D01*
X129939839Y-68384418D01*
X130055092Y-67805000D01*
X129939839Y-67225582D01*
X129611625Y-66734375D01*
X129239500Y-66485729D01*
X129239500Y-65474271D01*
X129611625Y-65225625D01*
X129939839Y-64734418D01*
X129989650Y-64484000D01*
X131043908Y-64484000D01*
X131159161Y-65063418D01*
X131487375Y-65554625D01*
X131785761Y-65754000D01*
X131487375Y-65953375D01*
X131159161Y-66444582D01*
X131043908Y-67024000D01*
X131159161Y-67603418D01*
X131487375Y-68094625D01*
X131978582Y-68422839D01*
X132411744Y-68509000D01*
X132704256Y-68509000D01*
X133137418Y-68422839D01*
X133628625Y-68094625D01*
X133956839Y-67603418D01*
X134072092Y-67024000D01*
X133956839Y-66444582D01*
X133628625Y-65953375D01*
X133330239Y-65754000D01*
X133628625Y-65554625D01*
X133956839Y-65063418D01*
X134072092Y-64484000D01*
X133956839Y-63904582D01*
X133628625Y-63413375D01*
X133606967Y-63398904D01*
X133767698Y-63332327D01*
X133946327Y-63153699D01*
X134043000Y-62920310D01*
X134043000Y-62229750D01*
X133884250Y-62071000D01*
X132685000Y-62071000D01*
X132685000Y-62091000D01*
X132431000Y-62091000D01*
X132431000Y-62071000D01*
X131231750Y-62071000D01*
X131073000Y-62229750D01*
X131073000Y-62920310D01*
X131169673Y-63153699D01*
X131348302Y-63332327D01*
X131509033Y-63398904D01*
X131487375Y-63413375D01*
X131159161Y-63904582D01*
X131043908Y-64484000D01*
X129989650Y-64484000D01*
X130055092Y-64155000D01*
X129939839Y-63575582D01*
X129611625Y-63084375D01*
X129239500Y-62835729D01*
X129239500Y-61824271D01*
X129611625Y-61575625D01*
X129939839Y-61084418D01*
X129963057Y-60967690D01*
X131073000Y-60967690D01*
X131073000Y-61658250D01*
X131231750Y-61817000D01*
X132431000Y-61817000D01*
X132431000Y-60617750D01*
X132685000Y-60617750D01*
X132685000Y-61817000D01*
X133884250Y-61817000D01*
X134043000Y-61658250D01*
X134043000Y-60967690D01*
X133946327Y-60734301D01*
X133767698Y-60555673D01*
X133534309Y-60459000D01*
X132843750Y-60459000D01*
X132685000Y-60617750D01*
X132431000Y-60617750D01*
X132272250Y-60459000D01*
X131581691Y-60459000D01*
X131348302Y-60555673D01*
X131169673Y-60734301D01*
X131073000Y-60967690D01*
X129963057Y-60967690D01*
X130055092Y-60505000D01*
X129939839Y-59925582D01*
X129611625Y-59434375D01*
X129425485Y-59310000D01*
X134240000Y-59310000D01*
X134240000Y-76375467D01*
X134240000Y-76375467D01*
G37*
X134240000Y-76375467D02*
X134208090Y-76327710D01*
X134149769Y-76288741D01*
X133834055Y-75973027D01*
X133865809Y-75951809D01*
X134006157Y-75741765D01*
X134055440Y-75494000D01*
X134055440Y-73794000D01*
X134006157Y-73546235D01*
X133865809Y-73336191D01*
X133655765Y-73195843D01*
X133552292Y-73175261D01*
X133829645Y-72870924D01*
X133999476Y-72460890D01*
X133878155Y-72231000D01*
X132685000Y-72231000D01*
X132685000Y-72251000D01*
X132431000Y-72251000D01*
X132431000Y-72231000D01*
X131237845Y-72231000D01*
X131116524Y-72460890D01*
X131286355Y-72870924D01*
X131563708Y-73175261D01*
X131460235Y-73195843D01*
X131250191Y-73336191D01*
X131109843Y-73546235D01*
X131060560Y-73794000D01*
X131060560Y-75494000D01*
X131109843Y-75741765D01*
X131250191Y-75951809D01*
X131460235Y-76092157D01*
X131708000Y-76141440D01*
X132023040Y-76141440D01*
X132054411Y-76188390D01*
X132112731Y-76227358D01*
X133006001Y-77120629D01*
X133006001Y-78325301D01*
X132914892Y-78282514D01*
X132685000Y-78403181D01*
X132685000Y-79597000D01*
X132705000Y-79597000D01*
X132705000Y-79851000D01*
X132685000Y-79851000D01*
X132685000Y-79871000D01*
X132431000Y-79871000D01*
X132431000Y-79851000D01*
X131237845Y-79851000D01*
X131116524Y-80080890D01*
X131286355Y-80490924D01*
X131563708Y-80795261D01*
X131460235Y-80815843D01*
X131250191Y-80956191D01*
X131109843Y-81166235D01*
X131060560Y-81414000D01*
X131060560Y-83114000D01*
X131109843Y-83361765D01*
X131250191Y-83571809D01*
X131281945Y-83593027D01*
X128334731Y-86540242D01*
X128276411Y-86579210D01*
X128237442Y-86637531D01*
X128122028Y-86810260D01*
X128067817Y-87082800D01*
X128081501Y-87151595D01*
X128081500Y-101544096D01*
X127967138Y-101591466D01*
X127563466Y-101995138D01*
X127345000Y-102522561D01*
X127345000Y-103093439D01*
X127563466Y-103620862D01*
X127967138Y-104024534D01*
X128097168Y-104078394D01*
X127745423Y-104313423D01*
X127744233Y-104315205D01*
X122003761Y-98574734D01*
X121964790Y-98516410D01*
X121733741Y-98362028D01*
X121529994Y-98321500D01*
X121529990Y-98321500D01*
X121517628Y-98319041D01*
X121270625Y-97949375D01*
X120972239Y-97750000D01*
X121270625Y-97550625D01*
X121598839Y-97059418D01*
X121714092Y-96480000D01*
X121598839Y-95900582D01*
X121270625Y-95409375D01*
X120972239Y-95210000D01*
X121270625Y-95010625D01*
X121598839Y-94519418D01*
X121714092Y-93940000D01*
X121598839Y-93360582D01*
X121270625Y-92869375D01*
X120972239Y-92670000D01*
X121270625Y-92470625D01*
X121598839Y-91979418D01*
X121714092Y-91400000D01*
X121598839Y-90820582D01*
X121270625Y-90329375D01*
X120972239Y-90130000D01*
X121270625Y-89930625D01*
X121598839Y-89439418D01*
X121714092Y-88860000D01*
X121598839Y-88280582D01*
X121270625Y-87789375D01*
X120972239Y-87590000D01*
X121270625Y-87390625D01*
X121598839Y-86899418D01*
X121714092Y-86320000D01*
X121598839Y-85740582D01*
X121270625Y-85249375D01*
X120779418Y-84921161D01*
X120346256Y-84835000D01*
X120053744Y-84835000D01*
X119620582Y-84921161D01*
X119129375Y-85249375D01*
X118924548Y-85555920D01*
X117904300Y-84535673D01*
X117904300Y-84083794D01*
X117917984Y-84015000D01*
X117863772Y-83742459D01*
X117709390Y-83511410D01*
X117519667Y-83384641D01*
X117249577Y-82980423D01*
X116897242Y-82745000D01*
X117249577Y-82509577D01*
X117566740Y-82034909D01*
X117678113Y-81475000D01*
X117566740Y-80915091D01*
X117249577Y-80440423D01*
X116897242Y-80205000D01*
X117249577Y-79969577D01*
X117474136Y-79633500D01*
X123601410Y-79633500D01*
X123670200Y-79647183D01*
X123738990Y-79633500D01*
X123738994Y-79633500D01*
X123942741Y-79592972D01*
X124173790Y-79438590D01*
X124212760Y-79380267D01*
X124225917Y-79367110D01*
X131116524Y-79367110D01*
X131237845Y-79597000D01*
X132431000Y-79597000D01*
X132431000Y-78403181D01*
X132201108Y-78282514D01*
X131676642Y-78528817D01*
X131286355Y-78957076D01*
X131116524Y-79367110D01*
X124225917Y-79367110D01*
X127449157Y-76143871D01*
X127470375Y-76175625D01*
X127961582Y-76503839D01*
X128394744Y-76590000D01*
X128687256Y-76590000D01*
X129120418Y-76503839D01*
X129611625Y-76175625D01*
X129939839Y-75684418D01*
X130055092Y-75105000D01*
X129939839Y-74525582D01*
X129611625Y-74034375D01*
X129239500Y-73785729D01*
X129239500Y-72774271D01*
X129611625Y-72525625D01*
X129939839Y-72034418D01*
X129996987Y-71747110D01*
X131116524Y-71747110D01*
X131237845Y-71977000D01*
X132431000Y-71977000D01*
X132431000Y-70783181D01*
X132685000Y-70783181D01*
X132685000Y-71977000D01*
X133878155Y-71977000D01*
X133999476Y-71747110D01*
X133829645Y-71337076D01*
X133439358Y-70908817D01*
X132914892Y-70662514D01*
X132685000Y-70783181D01*
X132431000Y-70783181D01*
X132201108Y-70662514D01*
X131676642Y-70908817D01*
X131286355Y-71337076D01*
X131116524Y-71747110D01*
X129996987Y-71747110D01*
X130055092Y-71455000D01*
X129939839Y-70875582D01*
X129611625Y-70384375D01*
X129239500Y-70135729D01*
X129239500Y-69124271D01*
X129611625Y-68875625D01*
X129939839Y-68384418D01*
X130055092Y-67805000D01*
X129939839Y-67225582D01*
X129611625Y-66734375D01*
X129239500Y-66485729D01*
X129239500Y-65474271D01*
X129611625Y-65225625D01*
X129939839Y-64734418D01*
X129989650Y-64484000D01*
X131043908Y-64484000D01*
X131159161Y-65063418D01*
X131487375Y-65554625D01*
X131785761Y-65754000D01*
X131487375Y-65953375D01*
X131159161Y-66444582D01*
X131043908Y-67024000D01*
X131159161Y-67603418D01*
X131487375Y-68094625D01*
X131978582Y-68422839D01*
X132411744Y-68509000D01*
X132704256Y-68509000D01*
X133137418Y-68422839D01*
X133628625Y-68094625D01*
X133956839Y-67603418D01*
X134072092Y-67024000D01*
X133956839Y-66444582D01*
X133628625Y-65953375D01*
X133330239Y-65754000D01*
X133628625Y-65554625D01*
X133956839Y-65063418D01*
X134072092Y-64484000D01*
X133956839Y-63904582D01*
X133628625Y-63413375D01*
X133606967Y-63398904D01*
X133767698Y-63332327D01*
X133946327Y-63153699D01*
X134043000Y-62920310D01*
X134043000Y-62229750D01*
X133884250Y-62071000D01*
X132685000Y-62071000D01*
X132685000Y-62091000D01*
X132431000Y-62091000D01*
X132431000Y-62071000D01*
X131231750Y-62071000D01*
X131073000Y-62229750D01*
X131073000Y-62920310D01*
X131169673Y-63153699D01*
X131348302Y-63332327D01*
X131509033Y-63398904D01*
X131487375Y-63413375D01*
X131159161Y-63904582D01*
X131043908Y-64484000D01*
X129989650Y-64484000D01*
X130055092Y-64155000D01*
X129939839Y-63575582D01*
X129611625Y-63084375D01*
X129239500Y-62835729D01*
X129239500Y-61824271D01*
X129611625Y-61575625D01*
X129939839Y-61084418D01*
X129963057Y-60967690D01*
X131073000Y-60967690D01*
X131073000Y-61658250D01*
X131231750Y-61817000D01*
X132431000Y-61817000D01*
X132431000Y-60617750D01*
X132685000Y-60617750D01*
X132685000Y-61817000D01*
X133884250Y-61817000D01*
X134043000Y-61658250D01*
X134043000Y-60967690D01*
X133946327Y-60734301D01*
X133767698Y-60555673D01*
X133534309Y-60459000D01*
X132843750Y-60459000D01*
X132685000Y-60617750D01*
X132431000Y-60617750D01*
X132272250Y-60459000D01*
X131581691Y-60459000D01*
X131348302Y-60555673D01*
X131169673Y-60734301D01*
X131073000Y-60967690D01*
X129963057Y-60967690D01*
X130055092Y-60505000D01*
X129939839Y-59925582D01*
X129611625Y-59434375D01*
X129425485Y-59310000D01*
X134240000Y-59310000D01*
X134240000Y-76375467D01*
G36*
X119436000Y-59528691D02*
X119436000Y-60219250D01*
X119594750Y-60378000D01*
X120794000Y-60378000D01*
X120794000Y-60358000D01*
X121048000Y-60358000D01*
X121048000Y-60378000D01*
X121068000Y-60378000D01*
X121068000Y-60632000D01*
X121048000Y-60632000D01*
X121048000Y-61831250D01*
X121206750Y-61990000D01*
X121897310Y-61990000D01*
X122130699Y-61893327D01*
X122309327Y-61714698D01*
X122375904Y-61553967D01*
X122390375Y-61575625D01*
X122701000Y-61783178D01*
X122701001Y-62876822D01*
X122390375Y-63084375D01*
X122375904Y-63106033D01*
X122309327Y-62945302D01*
X122130699Y-62766673D01*
X121897310Y-62670000D01*
X121206750Y-62670000D01*
X121048000Y-62828750D01*
X121048000Y-64028000D01*
X121068000Y-64028000D01*
X121068000Y-64282000D01*
X121048000Y-64282000D01*
X121048000Y-65481250D01*
X121206750Y-65640000D01*
X121897310Y-65640000D01*
X122130699Y-65543327D01*
X122309327Y-65364698D01*
X122375904Y-65203967D01*
X122390375Y-65225625D01*
X122881582Y-65553839D01*
X123314744Y-65640000D01*
X123607256Y-65640000D01*
X124040418Y-65553839D01*
X124531625Y-65225625D01*
X124731000Y-64927239D01*
X124930375Y-65225625D01*
X125302500Y-65474271D01*
X125302501Y-66485729D01*
X124930375Y-66734375D01*
X124731000Y-67032761D01*
X124531625Y-66734375D01*
X124040418Y-66406161D01*
X123607256Y-66320000D01*
X123314744Y-66320000D01*
X122881582Y-66406161D01*
X122390375Y-66734375D01*
X122375904Y-66756033D01*
X122309327Y-66595302D01*
X122130699Y-66416673D01*
X121897310Y-66320000D01*
X121206750Y-66320000D01*
X121048000Y-66478750D01*
X121048000Y-67678000D01*
X121068000Y-67678000D01*
X121068000Y-67932000D01*
X121048000Y-67932000D01*
X121048000Y-69131250D01*
X121206750Y-69290000D01*
X121897310Y-69290000D01*
X122130699Y-69193327D01*
X122309327Y-69014698D01*
X122375904Y-68853967D01*
X122390375Y-68875625D01*
X122701001Y-69083178D01*
X122701001Y-69501900D01*
X118468246Y-69501900D01*
X118393399Y-69487012D01*
X118318552Y-69501900D01*
X118318548Y-69501900D01*
X118096863Y-69545996D01*
X118096861Y-69545997D01*
X118096862Y-69545997D01*
X117908926Y-69671571D01*
X117908924Y-69671573D01*
X117845471Y-69713971D01*
X117803073Y-69777425D01*
X117269804Y-70310694D01*
X117249577Y-70280423D01*
X116897242Y-70045000D01*
X117249577Y-69809577D01*
X117566740Y-69334909D01*
X117678113Y-68775000D01*
X117566740Y-68215091D01*
X117483659Y-68090750D01*
X119436000Y-68090750D01*
X119436000Y-68781309D01*
X119532673Y-69014698D01*
X119711301Y-69193327D01*
X119944690Y-69290000D01*
X120635250Y-69290000D01*
X120794000Y-69131250D01*
X120794000Y-67932000D01*
X119594750Y-67932000D01*
X119436000Y-68090750D01*
X117483659Y-68090750D01*
X117249577Y-67740423D01*
X116865892Y-67484053D01*
X117070134Y-67387389D01*
X117446041Y-66972423D01*
X117505572Y-66828691D01*
X119436000Y-66828691D01*
X119436000Y-67519250D01*
X119594750Y-67678000D01*
X120794000Y-67678000D01*
X120794000Y-66478750D01*
X120635250Y-66320000D01*
X119944690Y-66320000D01*
X119711301Y-66416673D01*
X119532673Y-66595302D01*
X119436000Y-66828691D01*
X117505572Y-66828691D01*
X117606904Y-66584039D01*
X117484915Y-66362000D01*
X116342000Y-66362000D01*
X116342000Y-66382000D01*
X116088000Y-66382000D01*
X116088000Y-66362000D01*
X114945085Y-66362000D01*
X114823096Y-66584039D01*
X114983959Y-66972423D01*
X115359866Y-67387389D01*
X115564108Y-67484053D01*
X115180423Y-67740423D01*
X114863260Y-68215091D01*
X114751887Y-68775000D01*
X114863260Y-69334909D01*
X115180423Y-69809577D01*
X115532758Y-70045000D01*
X115180423Y-70280423D01*
X114863260Y-70755091D01*
X114751887Y-71315000D01*
X114863260Y-71874909D01*
X115180423Y-72349577D01*
X115532758Y-72585000D01*
X115180423Y-72820423D01*
X114863260Y-73295091D01*
X114751887Y-73855000D01*
X114863260Y-74414909D01*
X115180423Y-74889577D01*
X115532758Y-75125000D01*
X115180423Y-75360423D01*
X114863260Y-75835091D01*
X114751887Y-76395000D01*
X114863260Y-76954909D01*
X115180423Y-77429577D01*
X115532758Y-77665000D01*
X115180423Y-77900423D01*
X114863260Y-78375091D01*
X114751887Y-78935000D01*
X114863260Y-79494909D01*
X115180423Y-79969577D01*
X115532758Y-80205000D01*
X115180423Y-80440423D01*
X114863260Y-80915091D01*
X114751887Y-81475000D01*
X114863260Y-82034909D01*
X115180423Y-82509577D01*
X115532758Y-82745000D01*
X115180423Y-82980423D01*
X114863260Y-83455091D01*
X114751887Y-84015000D01*
X114863260Y-84574909D01*
X115180423Y-85049577D01*
X115532758Y-85285000D01*
X115180423Y-85520423D01*
X115119992Y-85610864D01*
X101899710Y-72390583D01*
X102206041Y-72052423D01*
X102366904Y-71664039D01*
X102244915Y-71442000D01*
X101102000Y-71442000D01*
X101102000Y-71462000D01*
X100848000Y-71462000D01*
X100848000Y-71442000D01*
X99705085Y-71442000D01*
X99661478Y-71521372D01*
X99655490Y-71512410D01*
X99424441Y-71358028D01*
X99220694Y-71317500D01*
X99220690Y-71317500D01*
X99151900Y-71303817D01*
X99083110Y-71317500D01*
X98771310Y-71317500D01*
X98897476Y-71012890D01*
X98776155Y-70783000D01*
X97583000Y-70783000D01*
X97583000Y-70803000D01*
X97329000Y-70803000D01*
X97329000Y-70783000D01*
X96135845Y-70783000D01*
X96014524Y-71012890D01*
X96140690Y-71317500D01*
X94989994Y-71317500D01*
X95044839Y-71235418D01*
X95160092Y-70656000D01*
X95044839Y-70076582D01*
X94716625Y-69585375D01*
X94418239Y-69386000D01*
X94716625Y-69186625D01*
X94928474Y-68869571D01*
X95117837Y-68831904D01*
X95369229Y-68663929D01*
X95411631Y-68600470D01*
X95539211Y-68472890D01*
X96014524Y-68472890D01*
X96184355Y-68882924D01*
X96574642Y-69311183D01*
X96733954Y-69386000D01*
X96574642Y-69460817D01*
X96184355Y-69889076D01*
X96014524Y-70299110D01*
X96135845Y-70529000D01*
X97329000Y-70529000D01*
X97329000Y-68243000D01*
X97583000Y-68243000D01*
X97583000Y-70529000D01*
X98776155Y-70529000D01*
X98897476Y-70299110D01*
X98727645Y-69889076D01*
X98337358Y-69460817D01*
X98178046Y-69386000D01*
X98337358Y-69311183D01*
X98727645Y-68882924D01*
X98897476Y-68472890D01*
X98776155Y-68243000D01*
X97583000Y-68243000D01*
X97329000Y-68243000D01*
X96135845Y-68243000D01*
X96014524Y-68472890D01*
X95539211Y-68472890D01*
X96096899Y-67915202D01*
X96135845Y-67989000D01*
X97329000Y-67989000D01*
X97329000Y-66795181D01*
X97583000Y-66795181D01*
X97583000Y-67989000D01*
X98776155Y-67989000D01*
X98897476Y-67759110D01*
X98727645Y-67349076D01*
X98337358Y-66920817D01*
X97812892Y-66674514D01*
X97583000Y-66795181D01*
X97329000Y-66795181D01*
X97255500Y-66756602D01*
X98431802Y-65580300D01*
X99686597Y-65580300D01*
X99623260Y-65675091D01*
X99511887Y-66235000D01*
X99623260Y-66794909D01*
X99940423Y-67269577D01*
X100292758Y-67505000D01*
X99940423Y-67740423D01*
X99623260Y-68215091D01*
X99511887Y-68775000D01*
X99623260Y-69334909D01*
X99940423Y-69809577D01*
X100324108Y-70065947D01*
X100119866Y-70162611D01*
X99743959Y-70577577D01*
X99583096Y-70965961D01*
X99705085Y-71188000D01*
X100848000Y-71188000D01*
X100848000Y-71168000D01*
X101102000Y-71168000D01*
X101102000Y-71188000D01*
X102244915Y-71188000D01*
X102366904Y-70965961D01*
X102206041Y-70577577D01*
X101830134Y-70162611D01*
X101625892Y-70065947D01*
X102009577Y-69809577D01*
X102326740Y-69334909D01*
X102438113Y-68775000D01*
X102326740Y-68215091D01*
X102009577Y-67740423D01*
X101657242Y-67505000D01*
X102009577Y-67269577D01*
X102326740Y-66794909D01*
X102438113Y-66235000D01*
X102326740Y-65675091D01*
X102263403Y-65580300D01*
X113889553Y-65580300D01*
X113964400Y-65595188D01*
X114039247Y-65580300D01*
X114039252Y-65580300D01*
X114260937Y-65536204D01*
X114512329Y-65368229D01*
X114554731Y-65304770D01*
X115160196Y-64699305D01*
X115180423Y-64729577D01*
X115564108Y-64985947D01*
X115359866Y-65082611D01*
X114983959Y-65497577D01*
X114823096Y-65885961D01*
X114945085Y-66108000D01*
X116088000Y-66108000D01*
X116088000Y-66088000D01*
X116342000Y-66088000D01*
X116342000Y-66108000D01*
X117484915Y-66108000D01*
X117606904Y-65885961D01*
X117446041Y-65497577D01*
X117070134Y-65082611D01*
X116865892Y-64985947D01*
X117249577Y-64729577D01*
X117442565Y-64440750D01*
X119436000Y-64440750D01*
X119436000Y-65131309D01*
X119532673Y-65364698D01*
X119711301Y-65543327D01*
X119944690Y-65640000D01*
X120635250Y-65640000D01*
X120794000Y-65481250D01*
X120794000Y-64282000D01*
X119594750Y-64282000D01*
X119436000Y-64440750D01*
X117442565Y-64440750D01*
X117566740Y-64254909D01*
X117678113Y-63695000D01*
X117575413Y-63178691D01*
X119436000Y-63178691D01*
X119436000Y-63869250D01*
X119594750Y-64028000D01*
X120794000Y-64028000D01*
X120794000Y-62828750D01*
X120635250Y-62670000D01*
X119944690Y-62670000D01*
X119711301Y-62766673D01*
X119532673Y-62945302D01*
X119436000Y-63178691D01*
X117575413Y-63178691D01*
X117566740Y-63135091D01*
X117249577Y-62660423D01*
X116774909Y-62343260D01*
X116356333Y-62260000D01*
X116073667Y-62260000D01*
X115655091Y-62343260D01*
X115180423Y-62660423D01*
X114994214Y-62939104D01*
X114793163Y-62979096D01*
X114541771Y-63147071D01*
X114499371Y-63210527D01*
X113649599Y-64060300D01*
X102422440Y-64060300D01*
X102422440Y-62895000D01*
X102373157Y-62647235D01*
X102232809Y-62437191D01*
X102022765Y-62296843D01*
X101775000Y-62247560D01*
X100175000Y-62247560D01*
X99927235Y-62296843D01*
X99717191Y-62437191D01*
X99576843Y-62647235D01*
X99527560Y-62895000D01*
X99527560Y-64060300D01*
X98191848Y-64060300D01*
X98117000Y-64045412D01*
X98042152Y-64060300D01*
X98042148Y-64060300D01*
X97820463Y-64104396D01*
X97569071Y-64272371D01*
X97526671Y-64335827D01*
X94756879Y-67105620D01*
X94716625Y-67045375D01*
X94225418Y-66717161D01*
X93792256Y-66631000D01*
X93499744Y-66631000D01*
X93066582Y-66717161D01*
X92575375Y-67045375D01*
X92247161Y-67536582D01*
X92131908Y-68116000D01*
X92247161Y-68695418D01*
X92575375Y-69186625D01*
X92873761Y-69386000D01*
X92575375Y-69585375D01*
X92247161Y-70076582D01*
X92131908Y-70656000D01*
X92247161Y-71235418D01*
X92302006Y-71317500D01*
X91844128Y-71317500D01*
X90719360Y-70192733D01*
X90680390Y-70134410D01*
X90633440Y-70103039D01*
X90633440Y-69788000D01*
X90584157Y-69540235D01*
X90443809Y-69330191D01*
X90233765Y-69189843D01*
X89986000Y-69140560D01*
X88286000Y-69140560D01*
X88038235Y-69189843D01*
X87828191Y-69330191D01*
X87687843Y-69540235D01*
X87660000Y-69680213D01*
X87660000Y-61981223D01*
X88439035Y-61981223D01*
X88466222Y-62551454D01*
X88632136Y-62952005D01*
X88878255Y-63026139D01*
X89706395Y-62198000D01*
X88878255Y-61369861D01*
X88632136Y-61443995D01*
X88439035Y-61981223D01*
X87660000Y-61981223D01*
X87660000Y-61190255D01*
X89057861Y-61190255D01*
X89886000Y-62018395D01*
X89900142Y-62004252D01*
X90079748Y-62183858D01*
X90065605Y-62198000D01*
X90079748Y-62212143D01*
X89900142Y-62391748D01*
X89886000Y-62377605D01*
X89057861Y-63205745D01*
X89131995Y-63451864D01*
X89669223Y-63644965D01*
X90239454Y-63617778D01*
X90629067Y-63456395D01*
X90838235Y-63596157D01*
X91086000Y-63645440D01*
X92686000Y-63645440D01*
X92933765Y-63596157D01*
X93143809Y-63455809D01*
X93284157Y-63245765D01*
X93333440Y-62998000D01*
X93333440Y-61398000D01*
X93284157Y-61150235D01*
X93143809Y-60940191D01*
X92933765Y-60799843D01*
X92888051Y-60790750D01*
X119436000Y-60790750D01*
X119436000Y-61481309D01*
X119532673Y-61714698D01*
X119711301Y-61893327D01*
X119944690Y-61990000D01*
X120635250Y-61990000D01*
X120794000Y-61831250D01*
X120794000Y-60632000D01*
X119594750Y-60632000D01*
X119436000Y-60790750D01*
X92888051Y-60790750D01*
X92686000Y-60750560D01*
X91086000Y-60750560D01*
X90838235Y-60799843D01*
X90628484Y-60939995D01*
X90102777Y-60751035D01*
X89532546Y-60778222D01*
X89131995Y-60944136D01*
X89057861Y-61190255D01*
X87660000Y-61190255D01*
X87660000Y-59310000D01*
X119526585Y-59310000D01*
X119436000Y-59528691D01*
X119436000Y-59528691D01*
G37*
X119436000Y-59528691D02*
X119436000Y-60219250D01*
X119594750Y-60378000D01*
X120794000Y-60378000D01*
X120794000Y-60358000D01*
X121048000Y-60358000D01*
X121048000Y-60378000D01*
X121068000Y-60378000D01*
X121068000Y-60632000D01*
X121048000Y-60632000D01*
X121048000Y-61831250D01*
X121206750Y-61990000D01*
X121897310Y-61990000D01*
X122130699Y-61893327D01*
X122309327Y-61714698D01*
X122375904Y-61553967D01*
X122390375Y-61575625D01*
X122701000Y-61783178D01*
X122701001Y-62876822D01*
X122390375Y-63084375D01*
X122375904Y-63106033D01*
X122309327Y-62945302D01*
X122130699Y-62766673D01*
X121897310Y-62670000D01*
X121206750Y-62670000D01*
X121048000Y-62828750D01*
X121048000Y-64028000D01*
X121068000Y-64028000D01*
X121068000Y-64282000D01*
X121048000Y-64282000D01*
X121048000Y-65481250D01*
X121206750Y-65640000D01*
X121897310Y-65640000D01*
X122130699Y-65543327D01*
X122309327Y-65364698D01*
X122375904Y-65203967D01*
X122390375Y-65225625D01*
X122881582Y-65553839D01*
X123314744Y-65640000D01*
X123607256Y-65640000D01*
X124040418Y-65553839D01*
X124531625Y-65225625D01*
X124731000Y-64927239D01*
X124930375Y-65225625D01*
X125302500Y-65474271D01*
X125302501Y-66485729D01*
X124930375Y-66734375D01*
X124731000Y-67032761D01*
X124531625Y-66734375D01*
X124040418Y-66406161D01*
X123607256Y-66320000D01*
X123314744Y-66320000D01*
X122881582Y-66406161D01*
X122390375Y-66734375D01*
X122375904Y-66756033D01*
X122309327Y-66595302D01*
X122130699Y-66416673D01*
X121897310Y-66320000D01*
X121206750Y-66320000D01*
X121048000Y-66478750D01*
X121048000Y-67678000D01*
X121068000Y-67678000D01*
X121068000Y-67932000D01*
X121048000Y-67932000D01*
X121048000Y-69131250D01*
X121206750Y-69290000D01*
X121897310Y-69290000D01*
X122130699Y-69193327D01*
X122309327Y-69014698D01*
X122375904Y-68853967D01*
X122390375Y-68875625D01*
X122701001Y-69083178D01*
X122701001Y-69501900D01*
X118468246Y-69501900D01*
X118393399Y-69487012D01*
X118318552Y-69501900D01*
X118318548Y-69501900D01*
X118096863Y-69545996D01*
X118096861Y-69545997D01*
X118096862Y-69545997D01*
X117908926Y-69671571D01*
X117908924Y-69671573D01*
X117845471Y-69713971D01*
X117803073Y-69777425D01*
X117269804Y-70310694D01*
X117249577Y-70280423D01*
X116897242Y-70045000D01*
X117249577Y-69809577D01*
X117566740Y-69334909D01*
X117678113Y-68775000D01*
X117566740Y-68215091D01*
X117483659Y-68090750D01*
X119436000Y-68090750D01*
X119436000Y-68781309D01*
X119532673Y-69014698D01*
X119711301Y-69193327D01*
X119944690Y-69290000D01*
X120635250Y-69290000D01*
X120794000Y-69131250D01*
X120794000Y-67932000D01*
X119594750Y-67932000D01*
X119436000Y-68090750D01*
X117483659Y-68090750D01*
X117249577Y-67740423D01*
X116865892Y-67484053D01*
X117070134Y-67387389D01*
X117446041Y-66972423D01*
X117505572Y-66828691D01*
X119436000Y-66828691D01*
X119436000Y-67519250D01*
X119594750Y-67678000D01*
X120794000Y-67678000D01*
X120794000Y-66478750D01*
X120635250Y-66320000D01*
X119944690Y-66320000D01*
X119711301Y-66416673D01*
X119532673Y-66595302D01*
X119436000Y-66828691D01*
X117505572Y-66828691D01*
X117606904Y-66584039D01*
X117484915Y-66362000D01*
X116342000Y-66362000D01*
X116342000Y-66382000D01*
X116088000Y-66382000D01*
X116088000Y-66362000D01*
X114945085Y-66362000D01*
X114823096Y-66584039D01*
X114983959Y-66972423D01*
X115359866Y-67387389D01*
X115564108Y-67484053D01*
X115180423Y-67740423D01*
X114863260Y-68215091D01*
X114751887Y-68775000D01*
X114863260Y-69334909D01*
X115180423Y-69809577D01*
X115532758Y-70045000D01*
X115180423Y-70280423D01*
X114863260Y-70755091D01*
X114751887Y-71315000D01*
X114863260Y-71874909D01*
X115180423Y-72349577D01*
X115532758Y-72585000D01*
X115180423Y-72820423D01*
X114863260Y-73295091D01*
X114751887Y-73855000D01*
X114863260Y-74414909D01*
X115180423Y-74889577D01*
X115532758Y-75125000D01*
X115180423Y-75360423D01*
X114863260Y-75835091D01*
X114751887Y-76395000D01*
X114863260Y-76954909D01*
X115180423Y-77429577D01*
X115532758Y-77665000D01*
X115180423Y-77900423D01*
X114863260Y-78375091D01*
X114751887Y-78935000D01*
X114863260Y-79494909D01*
X115180423Y-79969577D01*
X115532758Y-80205000D01*
X115180423Y-80440423D01*
X114863260Y-80915091D01*
X114751887Y-81475000D01*
X114863260Y-82034909D01*
X115180423Y-82509577D01*
X115532758Y-82745000D01*
X115180423Y-82980423D01*
X114863260Y-83455091D01*
X114751887Y-84015000D01*
X114863260Y-84574909D01*
X115180423Y-85049577D01*
X115532758Y-85285000D01*
X115180423Y-85520423D01*
X115119992Y-85610864D01*
X101899710Y-72390583D01*
X102206041Y-72052423D01*
X102366904Y-71664039D01*
X102244915Y-71442000D01*
X101102000Y-71442000D01*
X101102000Y-71462000D01*
X100848000Y-71462000D01*
X100848000Y-71442000D01*
X99705085Y-71442000D01*
X99661478Y-71521372D01*
X99655490Y-71512410D01*
X99424441Y-71358028D01*
X99220694Y-71317500D01*
X99220690Y-71317500D01*
X99151900Y-71303817D01*
X99083110Y-71317500D01*
X98771310Y-71317500D01*
X98897476Y-71012890D01*
X98776155Y-70783000D01*
X97583000Y-70783000D01*
X97583000Y-70803000D01*
X97329000Y-70803000D01*
X97329000Y-70783000D01*
X96135845Y-70783000D01*
X96014524Y-71012890D01*
X96140690Y-71317500D01*
X94989994Y-71317500D01*
X95044839Y-71235418D01*
X95160092Y-70656000D01*
X95044839Y-70076582D01*
X94716625Y-69585375D01*
X94418239Y-69386000D01*
X94716625Y-69186625D01*
X94928474Y-68869571D01*
X95117837Y-68831904D01*
X95369229Y-68663929D01*
X95411631Y-68600470D01*
X95539211Y-68472890D01*
X96014524Y-68472890D01*
X96184355Y-68882924D01*
X96574642Y-69311183D01*
X96733954Y-69386000D01*
X96574642Y-69460817D01*
X96184355Y-69889076D01*
X96014524Y-70299110D01*
X96135845Y-70529000D01*
X97329000Y-70529000D01*
X97329000Y-68243000D01*
X97583000Y-68243000D01*
X97583000Y-70529000D01*
X98776155Y-70529000D01*
X98897476Y-70299110D01*
X98727645Y-69889076D01*
X98337358Y-69460817D01*
X98178046Y-69386000D01*
X98337358Y-69311183D01*
X98727645Y-68882924D01*
X98897476Y-68472890D01*
X98776155Y-68243000D01*
X97583000Y-68243000D01*
X97329000Y-68243000D01*
X96135845Y-68243000D01*
X96014524Y-68472890D01*
X95539211Y-68472890D01*
X96096899Y-67915202D01*
X96135845Y-67989000D01*
X97329000Y-67989000D01*
X97329000Y-66795181D01*
X97583000Y-66795181D01*
X97583000Y-67989000D01*
X98776155Y-67989000D01*
X98897476Y-67759110D01*
X98727645Y-67349076D01*
X98337358Y-66920817D01*
X97812892Y-66674514D01*
X97583000Y-66795181D01*
X97329000Y-66795181D01*
X97255500Y-66756602D01*
X98431802Y-65580300D01*
X99686597Y-65580300D01*
X99623260Y-65675091D01*
X99511887Y-66235000D01*
X99623260Y-66794909D01*
X99940423Y-67269577D01*
X100292758Y-67505000D01*
X99940423Y-67740423D01*
X99623260Y-68215091D01*
X99511887Y-68775000D01*
X99623260Y-69334909D01*
X99940423Y-69809577D01*
X100324108Y-70065947D01*
X100119866Y-70162611D01*
X99743959Y-70577577D01*
X99583096Y-70965961D01*
X99705085Y-71188000D01*
X100848000Y-71188000D01*
X100848000Y-71168000D01*
X101102000Y-71168000D01*
X101102000Y-71188000D01*
X102244915Y-71188000D01*
X102366904Y-70965961D01*
X102206041Y-70577577D01*
X101830134Y-70162611D01*
X101625892Y-70065947D01*
X102009577Y-69809577D01*
X102326740Y-69334909D01*
X102438113Y-68775000D01*
X102326740Y-68215091D01*
X102009577Y-67740423D01*
X101657242Y-67505000D01*
X102009577Y-67269577D01*
X102326740Y-66794909D01*
X102438113Y-66235000D01*
X102326740Y-65675091D01*
X102263403Y-65580300D01*
X113889553Y-65580300D01*
X113964400Y-65595188D01*
X114039247Y-65580300D01*
X114039252Y-65580300D01*
X114260937Y-65536204D01*
X114512329Y-65368229D01*
X114554731Y-65304770D01*
X115160196Y-64699305D01*
X115180423Y-64729577D01*
X115564108Y-64985947D01*
X115359866Y-65082611D01*
X114983959Y-65497577D01*
X114823096Y-65885961D01*
X114945085Y-66108000D01*
X116088000Y-66108000D01*
X116088000Y-66088000D01*
X116342000Y-66088000D01*
X116342000Y-66108000D01*
X117484915Y-66108000D01*
X117606904Y-65885961D01*
X117446041Y-65497577D01*
X117070134Y-65082611D01*
X116865892Y-64985947D01*
X117249577Y-64729577D01*
X117442565Y-64440750D01*
X119436000Y-64440750D01*
X119436000Y-65131309D01*
X119532673Y-65364698D01*
X119711301Y-65543327D01*
X119944690Y-65640000D01*
X120635250Y-65640000D01*
X120794000Y-65481250D01*
X120794000Y-64282000D01*
X119594750Y-64282000D01*
X119436000Y-64440750D01*
X117442565Y-64440750D01*
X117566740Y-64254909D01*
X117678113Y-63695000D01*
X117575413Y-63178691D01*
X119436000Y-63178691D01*
X119436000Y-63869250D01*
X119594750Y-64028000D01*
X120794000Y-64028000D01*
X120794000Y-62828750D01*
X120635250Y-62670000D01*
X119944690Y-62670000D01*
X119711301Y-62766673D01*
X119532673Y-62945302D01*
X119436000Y-63178691D01*
X117575413Y-63178691D01*
X117566740Y-63135091D01*
X117249577Y-62660423D01*
X116774909Y-62343260D01*
X116356333Y-62260000D01*
X116073667Y-62260000D01*
X115655091Y-62343260D01*
X115180423Y-62660423D01*
X114994214Y-62939104D01*
X114793163Y-62979096D01*
X114541771Y-63147071D01*
X114499371Y-63210527D01*
X113649599Y-64060300D01*
X102422440Y-64060300D01*
X102422440Y-62895000D01*
X102373157Y-62647235D01*
X102232809Y-62437191D01*
X102022765Y-62296843D01*
X101775000Y-62247560D01*
X100175000Y-62247560D01*
X99927235Y-62296843D01*
X99717191Y-62437191D01*
X99576843Y-62647235D01*
X99527560Y-62895000D01*
X99527560Y-64060300D01*
X98191848Y-64060300D01*
X98117000Y-64045412D01*
X98042152Y-64060300D01*
X98042148Y-64060300D01*
X97820463Y-64104396D01*
X97569071Y-64272371D01*
X97526671Y-64335827D01*
X94756879Y-67105620D01*
X94716625Y-67045375D01*
X94225418Y-66717161D01*
X93792256Y-66631000D01*
X93499744Y-66631000D01*
X93066582Y-66717161D01*
X92575375Y-67045375D01*
X92247161Y-67536582D01*
X92131908Y-68116000D01*
X92247161Y-68695418D01*
X92575375Y-69186625D01*
X92873761Y-69386000D01*
X92575375Y-69585375D01*
X92247161Y-70076582D01*
X92131908Y-70656000D01*
X92247161Y-71235418D01*
X92302006Y-71317500D01*
X91844128Y-71317500D01*
X90719360Y-70192733D01*
X90680390Y-70134410D01*
X90633440Y-70103039D01*
X90633440Y-69788000D01*
X90584157Y-69540235D01*
X90443809Y-69330191D01*
X90233765Y-69189843D01*
X89986000Y-69140560D01*
X88286000Y-69140560D01*
X88038235Y-69189843D01*
X87828191Y-69330191D01*
X87687843Y-69540235D01*
X87660000Y-69680213D01*
X87660000Y-61981223D01*
X88439035Y-61981223D01*
X88466222Y-62551454D01*
X88632136Y-62952005D01*
X88878255Y-63026139D01*
X89706395Y-62198000D01*
X88878255Y-61369861D01*
X88632136Y-61443995D01*
X88439035Y-61981223D01*
X87660000Y-61981223D01*
X87660000Y-61190255D01*
X89057861Y-61190255D01*
X89886000Y-62018395D01*
X89900142Y-62004252D01*
X90079748Y-62183858D01*
X90065605Y-62198000D01*
X90079748Y-62212143D01*
X89900142Y-62391748D01*
X89886000Y-62377605D01*
X89057861Y-63205745D01*
X89131995Y-63451864D01*
X89669223Y-63644965D01*
X90239454Y-63617778D01*
X90629067Y-63456395D01*
X90838235Y-63596157D01*
X91086000Y-63645440D01*
X92686000Y-63645440D01*
X92933765Y-63596157D01*
X93143809Y-63455809D01*
X93284157Y-63245765D01*
X93333440Y-62998000D01*
X93333440Y-61398000D01*
X93284157Y-61150235D01*
X93143809Y-60940191D01*
X92933765Y-60799843D01*
X92888051Y-60790750D01*
X119436000Y-60790750D01*
X119436000Y-61481309D01*
X119532673Y-61714698D01*
X119711301Y-61893327D01*
X119944690Y-61990000D01*
X120635250Y-61990000D01*
X120794000Y-61831250D01*
X120794000Y-60632000D01*
X119594750Y-60632000D01*
X119436000Y-60790750D01*
X92888051Y-60790750D01*
X92686000Y-60750560D01*
X91086000Y-60750560D01*
X90838235Y-60799843D01*
X90628484Y-60939995D01*
X90102777Y-60751035D01*
X89532546Y-60778222D01*
X89131995Y-60944136D01*
X89057861Y-61190255D01*
X87660000Y-61190255D01*
X87660000Y-59310000D01*
X119526585Y-59310000D01*
X119436000Y-59528691D01*
G36*
X119436000Y-71169250D02*
X119594750Y-71328000D01*
X120794000Y-71328000D01*
X120794000Y-71308000D01*
X121048000Y-71308000D01*
X121048000Y-71328000D01*
X121068000Y-71328000D01*
X121068000Y-71582000D01*
X121048000Y-71582000D01*
X121048000Y-72781250D01*
X121206750Y-72940000D01*
X121897310Y-72940000D01*
X122130699Y-72843327D01*
X122309327Y-72664698D01*
X122375904Y-72503967D01*
X122390375Y-72525625D01*
X122701000Y-72733178D01*
X122701001Y-73826822D01*
X122390375Y-74034375D01*
X122375904Y-74056033D01*
X122309327Y-73895302D01*
X122130699Y-73716673D01*
X121897310Y-73620000D01*
X121206750Y-73620000D01*
X121048000Y-73778750D01*
X121048000Y-74978000D01*
X121068000Y-74978000D01*
X121068000Y-75232000D01*
X121048000Y-75232000D01*
X121048000Y-76431250D01*
X121206750Y-76590000D01*
X121897310Y-76590000D01*
X122130699Y-76493327D01*
X122309327Y-76314698D01*
X122375904Y-76153967D01*
X122390375Y-76175625D01*
X122881582Y-76503839D01*
X123314744Y-76590000D01*
X123607256Y-76590000D01*
X124040418Y-76503839D01*
X124531625Y-76175625D01*
X124731000Y-75877239D01*
X124930375Y-76175625D01*
X125236920Y-76380452D01*
X123380873Y-78236500D01*
X117474136Y-78236500D01*
X117249577Y-77900423D01*
X116897242Y-77665000D01*
X117249577Y-77429577D01*
X117566740Y-76954909D01*
X117678113Y-76395000D01*
X117566740Y-75835091D01*
X117269841Y-75390750D01*
X119436000Y-75390750D01*
X119436000Y-76081309D01*
X119532673Y-76314698D01*
X119711301Y-76493327D01*
X119944690Y-76590000D01*
X120635250Y-76590000D01*
X120794000Y-76431250D01*
X120794000Y-75232000D01*
X119594750Y-75232000D01*
X119436000Y-75390750D01*
X117269841Y-75390750D01*
X117249577Y-75360423D01*
X116897242Y-75125000D01*
X117249577Y-74889577D01*
X117566740Y-74414909D01*
X117623672Y-74128691D01*
X119436000Y-74128691D01*
X119436000Y-74819250D01*
X119594750Y-74978000D01*
X120794000Y-74978000D01*
X120794000Y-73778750D01*
X120635250Y-73620000D01*
X119944690Y-73620000D01*
X119711301Y-73716673D01*
X119532673Y-73895302D01*
X119436000Y-74128691D01*
X117623672Y-74128691D01*
X117678113Y-73855000D01*
X117566740Y-73295091D01*
X117249577Y-72820423D01*
X116897242Y-72585000D01*
X117249577Y-72349577D01*
X117435786Y-72070896D01*
X117636837Y-72030904D01*
X117888229Y-71862929D01*
X117930631Y-71799471D01*
X117989352Y-71740750D01*
X119436000Y-71740750D01*
X119436000Y-72431309D01*
X119532673Y-72664698D01*
X119711301Y-72843327D01*
X119944690Y-72940000D01*
X120635250Y-72940000D01*
X120794000Y-72781250D01*
X120794000Y-71582000D01*
X119594750Y-71582000D01*
X119436000Y-71740750D01*
X117989352Y-71740750D01*
X118708203Y-71021900D01*
X119436000Y-71021900D01*
X119436000Y-71169250D01*
X119436000Y-71169250D01*
G37*
X119436000Y-71169250D02*
X119594750Y-71328000D01*
X120794000Y-71328000D01*
X120794000Y-71308000D01*
X121048000Y-71308000D01*
X121048000Y-71328000D01*
X121068000Y-71328000D01*
X121068000Y-71582000D01*
X121048000Y-71582000D01*
X121048000Y-72781250D01*
X121206750Y-72940000D01*
X121897310Y-72940000D01*
X122130699Y-72843327D01*
X122309327Y-72664698D01*
X122375904Y-72503967D01*
X122390375Y-72525625D01*
X122701000Y-72733178D01*
X122701001Y-73826822D01*
X122390375Y-74034375D01*
X122375904Y-74056033D01*
X122309327Y-73895302D01*
X122130699Y-73716673D01*
X121897310Y-73620000D01*
X121206750Y-73620000D01*
X121048000Y-73778750D01*
X121048000Y-74978000D01*
X121068000Y-74978000D01*
X121068000Y-75232000D01*
X121048000Y-75232000D01*
X121048000Y-76431250D01*
X121206750Y-76590000D01*
X121897310Y-76590000D01*
X122130699Y-76493327D01*
X122309327Y-76314698D01*
X122375904Y-76153967D01*
X122390375Y-76175625D01*
X122881582Y-76503839D01*
X123314744Y-76590000D01*
X123607256Y-76590000D01*
X124040418Y-76503839D01*
X124531625Y-76175625D01*
X124731000Y-75877239D01*
X124930375Y-76175625D01*
X125236920Y-76380452D01*
X123380873Y-78236500D01*
X117474136Y-78236500D01*
X117249577Y-77900423D01*
X116897242Y-77665000D01*
X117249577Y-77429577D01*
X117566740Y-76954909D01*
X117678113Y-76395000D01*
X117566740Y-75835091D01*
X117269841Y-75390750D01*
X119436000Y-75390750D01*
X119436000Y-76081309D01*
X119532673Y-76314698D01*
X119711301Y-76493327D01*
X119944690Y-76590000D01*
X120635250Y-76590000D01*
X120794000Y-76431250D01*
X120794000Y-75232000D01*
X119594750Y-75232000D01*
X119436000Y-75390750D01*
X117269841Y-75390750D01*
X117249577Y-75360423D01*
X116897242Y-75125000D01*
X117249577Y-74889577D01*
X117566740Y-74414909D01*
X117623672Y-74128691D01*
X119436000Y-74128691D01*
X119436000Y-74819250D01*
X119594750Y-74978000D01*
X120794000Y-74978000D01*
X120794000Y-73778750D01*
X120635250Y-73620000D01*
X119944690Y-73620000D01*
X119711301Y-73716673D01*
X119532673Y-73895302D01*
X119436000Y-74128691D01*
X117623672Y-74128691D01*
X117678113Y-73855000D01*
X117566740Y-73295091D01*
X117249577Y-72820423D01*
X116897242Y-72585000D01*
X117249577Y-72349577D01*
X117435786Y-72070896D01*
X117636837Y-72030904D01*
X117888229Y-71862929D01*
X117930631Y-71799471D01*
X117989352Y-71740750D01*
X119436000Y-71740750D01*
X119436000Y-72431309D01*
X119532673Y-72664698D01*
X119711301Y-72843327D01*
X119944690Y-72940000D01*
X120635250Y-72940000D01*
X120794000Y-72781250D01*
X120794000Y-71582000D01*
X119594750Y-71582000D01*
X119436000Y-71740750D01*
X117989352Y-71740750D01*
X118708203Y-71021900D01*
X119436000Y-71021900D01*
X119436000Y-71169250D01*
M02*
