M48
;DRILL file {KiCad (5.0.1-3-g963ef8bb5)} date Friday, March 29, 2019 at 12:16:42 pm
;FORMAT={2:4/ absolute / inch / suppress leading zeros}
FMAT,2
INCH,TZ
T1C0.0315
T2C0.0394
T3C0.1260
%
G90
G05
M72
T1
X47100Y-33300
X48100Y-33300
X39754Y-25077
X39754Y-26077
X39754Y-27077
X39754Y-28077
X39754Y-29077
X39754Y-30077
X39754Y-31077
X39754Y-32077
X39754Y-33077
X39754Y-34077
X39754Y-35077
X39754Y-36077
X39754Y-37077
X39754Y-38077
X39754Y-39077
X45754Y-25077
X45754Y-26077
X45754Y-27077
X45754Y-28077
X45754Y-29077
X45754Y-30077
X45754Y-31077
X45754Y-32077
X45754Y-33077
X45754Y-34077
X45754Y-35077
X45754Y-36077
X45754Y-37077
X45754Y-38077
X45754Y-39077
X47000Y-30800
X48000Y-30800
T2
X47242Y-28750
X48242Y-28750
X49242Y-28750
X47242Y-24439
X48242Y-24439
X49242Y-24439
X36869Y-26817
X36869Y-27817
X36869Y-28817
X49700Y-30700
X50700Y-30700
X38300Y-30900
X38300Y-31900
X38300Y-32900
X38300Y-33900
X38300Y-34900
X38300Y-35900
X38300Y-36900
X38300Y-37900
X38300Y-38900
X38300Y-39900
X47323Y-34984
X47323Y-35984
X47323Y-36984
X47323Y-37984
X47323Y-38984
X47323Y-39984
X47323Y-40984
X47242Y-27313
X48242Y-27313
X49242Y-27313
X38369Y-26817
X38369Y-27817
X38369Y-28817
X47242Y-25876
X48242Y-25876
X49242Y-25876
X49800Y-33300
X50800Y-33300
X35093Y-27810
X35093Y-28810
T3
X35807Y-24646
X35807Y-40394
X51555Y-40394
X51555Y-24646
T0
M30
