%TF.GenerationSoftware,KiCad,Pcbnew,(5.0.1-3-g963ef8bb5)*%
%TF.CreationDate,2019-03-29T12:16:20-04:00*%
%TF.ProjectId,VHSBase,564853426173652E6B696361645F7063,rev?*%
%TF.SameCoordinates,Original*%
%TF.FileFunction,Legend,Bot*%
%TF.FilePolarity,Positive*%
%FSLAX46Y46*%
G04 Gerber Fmt 4.6, Leading zero omitted, Abs format (unit mm)*
G04 Created by KiCad (PCBNEW (5.0.1-3-g963ef8bb5)) date Friday, March 29, 2019 at 12:16:20 pm*
%MOMM*%
%LPD*%
G01*
G04 APERTURE LIST*
%ADD10C,0.150000*%
G04 APERTURE END LIST*
D10*
X111575428Y-89510285D02*
X111527809Y-89367428D01*
X111480190Y-89319809D01*
X111384952Y-89272190D01*
X111242095Y-89272190D01*
X111146857Y-89319809D01*
X111099238Y-89367428D01*
X111051619Y-89462666D01*
X111051619Y-89843619D01*
X112051619Y-89843619D01*
X112051619Y-89510285D01*
X112004000Y-89415047D01*
X111956380Y-89367428D01*
X111861142Y-89319809D01*
X111765904Y-89319809D01*
X111670666Y-89367428D01*
X111623047Y-89415047D01*
X111575428Y-89510285D01*
X111575428Y-89843619D01*
X111051619Y-88843619D02*
X111718285Y-88843619D01*
X111527809Y-88843619D02*
X111623047Y-88796000D01*
X111670666Y-88748380D01*
X111718285Y-88653142D01*
X111718285Y-88557904D01*
X111099238Y-87843619D02*
X111051619Y-87938857D01*
X111051619Y-88129333D01*
X111099238Y-88224571D01*
X111194476Y-88272190D01*
X111575428Y-88272190D01*
X111670666Y-88224571D01*
X111718285Y-88129333D01*
X111718285Y-87938857D01*
X111670666Y-87843619D01*
X111575428Y-87796000D01*
X111480190Y-87796000D01*
X111384952Y-88272190D01*
X111051619Y-86938857D02*
X111575428Y-86938857D01*
X111670666Y-86986476D01*
X111718285Y-87081714D01*
X111718285Y-87272190D01*
X111670666Y-87367428D01*
X111099238Y-86938857D02*
X111051619Y-87034095D01*
X111051619Y-87272190D01*
X111099238Y-87367428D01*
X111194476Y-87415047D01*
X111289714Y-87415047D01*
X111384952Y-87367428D01*
X111432571Y-87272190D01*
X111432571Y-87034095D01*
X111480190Y-86938857D01*
X111051619Y-86462666D02*
X112051619Y-86462666D01*
X111432571Y-86367428D02*
X111051619Y-86081714D01*
X111718285Y-86081714D02*
X111337333Y-86462666D01*
X111051619Y-85510285D02*
X111099238Y-85605523D01*
X111146857Y-85653142D01*
X111242095Y-85700761D01*
X111527809Y-85700761D01*
X111623047Y-85653142D01*
X111670666Y-85605523D01*
X111718285Y-85510285D01*
X111718285Y-85367428D01*
X111670666Y-85272190D01*
X111623047Y-85224571D01*
X111527809Y-85176952D01*
X111242095Y-85176952D01*
X111146857Y-85224571D01*
X111099238Y-85272190D01*
X111051619Y-85367428D01*
X111051619Y-85510285D01*
X111718285Y-84319809D02*
X111051619Y-84319809D01*
X111718285Y-84748380D02*
X111194476Y-84748380D01*
X111099238Y-84700761D01*
X111051619Y-84605523D01*
X111051619Y-84462666D01*
X111099238Y-84367428D01*
X111146857Y-84319809D01*
X111718285Y-83986476D02*
X111718285Y-83605523D01*
X112051619Y-83843619D02*
X111194476Y-83843619D01*
X111099238Y-83796000D01*
X111051619Y-83700761D01*
X111051619Y-83605523D01*
X111051619Y-82510285D02*
X112051619Y-82510285D01*
X111670666Y-82510285D02*
X111718285Y-82415047D01*
X111718285Y-82224571D01*
X111670666Y-82129333D01*
X111623047Y-82081714D01*
X111527809Y-82034095D01*
X111242095Y-82034095D01*
X111146857Y-82081714D01*
X111099238Y-82129333D01*
X111051619Y-82224571D01*
X111051619Y-82415047D01*
X111099238Y-82510285D01*
X111051619Y-81462666D02*
X111099238Y-81557904D01*
X111146857Y-81605523D01*
X111242095Y-81653142D01*
X111527809Y-81653142D01*
X111623047Y-81605523D01*
X111670666Y-81557904D01*
X111718285Y-81462666D01*
X111718285Y-81319809D01*
X111670666Y-81224571D01*
X111623047Y-81176952D01*
X111527809Y-81129333D01*
X111242095Y-81129333D01*
X111146857Y-81176952D01*
X111099238Y-81224571D01*
X111051619Y-81319809D01*
X111051619Y-81462666D01*
X111051619Y-80272190D02*
X111575428Y-80272190D01*
X111670666Y-80319809D01*
X111718285Y-80415047D01*
X111718285Y-80605523D01*
X111670666Y-80700761D01*
X111099238Y-80272190D02*
X111051619Y-80367428D01*
X111051619Y-80605523D01*
X111099238Y-80700761D01*
X111194476Y-80748380D01*
X111289714Y-80748380D01*
X111384952Y-80700761D01*
X111432571Y-80605523D01*
X111432571Y-80367428D01*
X111480190Y-80272190D01*
X111051619Y-79796000D02*
X111718285Y-79796000D01*
X111527809Y-79796000D02*
X111623047Y-79748380D01*
X111670666Y-79700761D01*
X111718285Y-79605523D01*
X111718285Y-79510285D01*
X111051619Y-78748380D02*
X112051619Y-78748380D01*
X111099238Y-78748380D02*
X111051619Y-78843619D01*
X111051619Y-79034095D01*
X111099238Y-79129333D01*
X111146857Y-79176952D01*
X111242095Y-79224571D01*
X111527809Y-79224571D01*
X111623047Y-79176952D01*
X111670666Y-79129333D01*
X111718285Y-79034095D01*
X111718285Y-78843619D01*
X111670666Y-78748380D01*
X112051619Y-77653142D02*
X111051619Y-77319809D01*
X112051619Y-76986476D01*
X111051619Y-76129333D02*
X111051619Y-76700761D01*
X111051619Y-76415047D02*
X112051619Y-76415047D01*
X111908761Y-76510285D01*
X111813523Y-76605523D01*
X111765904Y-76700761D01*
X111146857Y-75700761D02*
X111099238Y-75653142D01*
X111051619Y-75700761D01*
X111099238Y-75748380D01*
X111146857Y-75700761D01*
X111051619Y-75700761D01*
X112051619Y-75034095D02*
X112051619Y-74938857D01*
X112004000Y-74843619D01*
X111956380Y-74796000D01*
X111861142Y-74748380D01*
X111670666Y-74700761D01*
X111432571Y-74700761D01*
X111242095Y-74748380D01*
X111146857Y-74796000D01*
X111099238Y-74843619D01*
X111051619Y-74938857D01*
X111051619Y-75034095D01*
X111099238Y-75129333D01*
X111146857Y-75176952D01*
X111242095Y-75224571D01*
X111432571Y-75272190D01*
X111670666Y-75272190D01*
X111861142Y-75224571D01*
X111956380Y-75176952D01*
X112004000Y-75129333D01*
X112051619Y-75034095D01*
X109401619Y-86557904D02*
X110401619Y-86557904D01*
X109687333Y-86224571D01*
X110401619Y-85891238D01*
X109401619Y-85891238D01*
X109401619Y-84986476D02*
X109925428Y-84986476D01*
X110020666Y-85034095D01*
X110068285Y-85129333D01*
X110068285Y-85319809D01*
X110020666Y-85415047D01*
X109449238Y-84986476D02*
X109401619Y-85081714D01*
X109401619Y-85319809D01*
X109449238Y-85415047D01*
X109544476Y-85462666D01*
X109639714Y-85462666D01*
X109734952Y-85415047D01*
X109782571Y-85319809D01*
X109782571Y-85081714D01*
X109830190Y-84986476D01*
X109401619Y-84510285D02*
X110068285Y-84510285D01*
X109877809Y-84510285D02*
X109973047Y-84462666D01*
X110020666Y-84415047D01*
X110068285Y-84319809D01*
X110068285Y-84224571D01*
X109449238Y-83462666D02*
X109401619Y-83557904D01*
X109401619Y-83748380D01*
X109449238Y-83843619D01*
X109496857Y-83891238D01*
X109592095Y-83938857D01*
X109877809Y-83938857D01*
X109973047Y-83891238D01*
X110020666Y-83843619D01*
X110068285Y-83748380D01*
X110068285Y-83557904D01*
X110020666Y-83462666D01*
X109401619Y-83034095D02*
X110401619Y-83034095D01*
X109401619Y-82605523D02*
X109925428Y-82605523D01*
X110020666Y-82653142D01*
X110068285Y-82748380D01*
X110068285Y-82891238D01*
X110020666Y-82986476D01*
X109973047Y-83034095D01*
X110306380Y-81415047D02*
X110354000Y-81367428D01*
X110401619Y-81272190D01*
X110401619Y-81034095D01*
X110354000Y-80938857D01*
X110306380Y-80891238D01*
X110211142Y-80843619D01*
X110115904Y-80843619D01*
X109973047Y-80891238D01*
X109401619Y-81462666D01*
X109401619Y-80843619D01*
X110401619Y-80224571D02*
X110401619Y-80129333D01*
X110354000Y-80034095D01*
X110306380Y-79986476D01*
X110211142Y-79938857D01*
X110020666Y-79891238D01*
X109782571Y-79891238D01*
X109592095Y-79938857D01*
X109496857Y-79986476D01*
X109449238Y-80034095D01*
X109401619Y-80129333D01*
X109401619Y-80224571D01*
X109449238Y-80319809D01*
X109496857Y-80367428D01*
X109592095Y-80415047D01*
X109782571Y-80462666D01*
X110020666Y-80462666D01*
X110211142Y-80415047D01*
X110306380Y-80367428D01*
X110354000Y-80319809D01*
X110401619Y-80224571D01*
X109401619Y-78938857D02*
X109401619Y-79510285D01*
X109401619Y-79224571D02*
X110401619Y-79224571D01*
X110258761Y-79319809D01*
X110163523Y-79415047D01*
X110115904Y-79510285D01*
X109401619Y-78462666D02*
X109401619Y-78272190D01*
X109449238Y-78176952D01*
X109496857Y-78129333D01*
X109639714Y-78034095D01*
X109830190Y-77986476D01*
X110211142Y-77986476D01*
X110306380Y-78034095D01*
X110354000Y-78081714D01*
X110401619Y-78176952D01*
X110401619Y-78367428D01*
X110354000Y-78462666D01*
X110306380Y-78510285D01*
X110211142Y-78557904D01*
X109973047Y-78557904D01*
X109877809Y-78510285D01*
X109830190Y-78462666D01*
X109782571Y-78367428D01*
X109782571Y-78176952D01*
X109830190Y-78081714D01*
X109877809Y-78034095D01*
X109973047Y-77986476D01*
X107751619Y-92153142D02*
X108751619Y-92153142D01*
X108751619Y-91915047D01*
X108704000Y-91772190D01*
X108608761Y-91676952D01*
X108513523Y-91629333D01*
X108323047Y-91581714D01*
X108180190Y-91581714D01*
X107989714Y-91629333D01*
X107894476Y-91676952D01*
X107799238Y-91772190D01*
X107751619Y-91915047D01*
X107751619Y-92153142D01*
X107799238Y-90772190D02*
X107751619Y-90867428D01*
X107751619Y-91057904D01*
X107799238Y-91153142D01*
X107894476Y-91200761D01*
X108275428Y-91200761D01*
X108370666Y-91153142D01*
X108418285Y-91057904D01*
X108418285Y-90867428D01*
X108370666Y-90772190D01*
X108275428Y-90724571D01*
X108180190Y-90724571D01*
X108084952Y-91200761D01*
X107799238Y-90343619D02*
X107751619Y-90248380D01*
X107751619Y-90057904D01*
X107799238Y-89962666D01*
X107894476Y-89915047D01*
X107942095Y-89915047D01*
X108037333Y-89962666D01*
X108084952Y-90057904D01*
X108084952Y-90200761D01*
X108132571Y-90296000D01*
X108227809Y-90343619D01*
X108275428Y-90343619D01*
X108370666Y-90296000D01*
X108418285Y-90200761D01*
X108418285Y-90057904D01*
X108370666Y-89962666D01*
X107751619Y-89486476D02*
X108418285Y-89486476D01*
X108751619Y-89486476D02*
X108704000Y-89534095D01*
X108656380Y-89486476D01*
X108704000Y-89438857D01*
X108751619Y-89486476D01*
X108656380Y-89486476D01*
X108418285Y-88581714D02*
X107608761Y-88581714D01*
X107513523Y-88629333D01*
X107465904Y-88676952D01*
X107418285Y-88772190D01*
X107418285Y-88915047D01*
X107465904Y-89010285D01*
X107799238Y-88581714D02*
X107751619Y-88676952D01*
X107751619Y-88867428D01*
X107799238Y-88962666D01*
X107846857Y-89010285D01*
X107942095Y-89057904D01*
X108227809Y-89057904D01*
X108323047Y-89010285D01*
X108370666Y-88962666D01*
X108418285Y-88867428D01*
X108418285Y-88676952D01*
X108370666Y-88581714D01*
X108418285Y-88105523D02*
X107751619Y-88105523D01*
X108323047Y-88105523D02*
X108370666Y-88057904D01*
X108418285Y-87962666D01*
X108418285Y-87819809D01*
X108370666Y-87724571D01*
X108275428Y-87676952D01*
X107751619Y-87676952D01*
X107799238Y-86819809D02*
X107751619Y-86915047D01*
X107751619Y-87105523D01*
X107799238Y-87200761D01*
X107894476Y-87248380D01*
X108275428Y-87248380D01*
X108370666Y-87200761D01*
X108418285Y-87105523D01*
X108418285Y-86915047D01*
X108370666Y-86819809D01*
X108275428Y-86772190D01*
X108180190Y-86772190D01*
X108084952Y-87248380D01*
X107751619Y-85915047D02*
X108751619Y-85915047D01*
X107799238Y-85915047D02*
X107751619Y-86010285D01*
X107751619Y-86200761D01*
X107799238Y-86296000D01*
X107846857Y-86343619D01*
X107942095Y-86391238D01*
X108227809Y-86391238D01*
X108323047Y-86343619D01*
X108370666Y-86296000D01*
X108418285Y-86200761D01*
X108418285Y-86010285D01*
X108370666Y-85915047D01*
X107751619Y-84676952D02*
X108751619Y-84676952D01*
X108370666Y-84676952D02*
X108418285Y-84581714D01*
X108418285Y-84391238D01*
X108370666Y-84296000D01*
X108323047Y-84248380D01*
X108227809Y-84200761D01*
X107942095Y-84200761D01*
X107846857Y-84248380D01*
X107799238Y-84296000D01*
X107751619Y-84391238D01*
X107751619Y-84581714D01*
X107799238Y-84676952D01*
X108418285Y-83867428D02*
X107751619Y-83629333D01*
X108418285Y-83391238D02*
X107751619Y-83629333D01*
X107513523Y-83724571D01*
X107465904Y-83772190D01*
X107418285Y-83867428D01*
X107751619Y-82248380D02*
X108751619Y-82248380D01*
X108751619Y-82010285D01*
X108704000Y-81867428D01*
X108608761Y-81772190D01*
X108513523Y-81724571D01*
X108323047Y-81676952D01*
X108180190Y-81676952D01*
X107989714Y-81724571D01*
X107894476Y-81772190D01*
X107799238Y-81867428D01*
X107751619Y-82010285D01*
X107751619Y-82248380D01*
X107751619Y-80819809D02*
X108275428Y-80819809D01*
X108370666Y-80867428D01*
X108418285Y-80962666D01*
X108418285Y-81153142D01*
X108370666Y-81248380D01*
X107799238Y-80819809D02*
X107751619Y-80915047D01*
X107751619Y-81153142D01*
X107799238Y-81248380D01*
X107894476Y-81296000D01*
X107989714Y-81296000D01*
X108084952Y-81248380D01*
X108132571Y-81153142D01*
X108132571Y-80915047D01*
X108180190Y-80819809D01*
X108418285Y-80343619D02*
X107751619Y-80343619D01*
X108323047Y-80343619D02*
X108370666Y-80296000D01*
X108418285Y-80200761D01*
X108418285Y-80057904D01*
X108370666Y-79962666D01*
X108275428Y-79915047D01*
X107751619Y-79915047D01*
X107751619Y-79438857D02*
X108418285Y-79438857D01*
X108751619Y-79438857D02*
X108704000Y-79486476D01*
X108656380Y-79438857D01*
X108704000Y-79391238D01*
X108751619Y-79438857D01*
X108656380Y-79438857D01*
X107799238Y-78581714D02*
X107751619Y-78676952D01*
X107751619Y-78867428D01*
X107799238Y-78962666D01*
X107894476Y-79010285D01*
X108275428Y-79010285D01*
X108370666Y-78962666D01*
X108418285Y-78867428D01*
X108418285Y-78676952D01*
X108370666Y-78581714D01*
X108275428Y-78534095D01*
X108180190Y-78534095D01*
X108084952Y-79010285D01*
X107751619Y-77962666D02*
X107799238Y-78057904D01*
X107894476Y-78105523D01*
X108751619Y-78105523D01*
X108751619Y-76629333D02*
X108751619Y-76438857D01*
X108704000Y-76343619D01*
X108608761Y-76248380D01*
X108418285Y-76200761D01*
X108084952Y-76200761D01*
X107894476Y-76248380D01*
X107799238Y-76343619D01*
X107751619Y-76438857D01*
X107751619Y-76629333D01*
X107799238Y-76724571D01*
X107894476Y-76819809D01*
X108084952Y-76867428D01*
X108418285Y-76867428D01*
X108608761Y-76819809D01*
X108704000Y-76724571D01*
X108751619Y-76629333D01*
X108418285Y-75343619D02*
X107751619Y-75343619D01*
X108418285Y-75772190D02*
X107894476Y-75772190D01*
X107799238Y-75724571D01*
X107751619Y-75629333D01*
X107751619Y-75486476D01*
X107799238Y-75391238D01*
X107846857Y-75343619D01*
X107751619Y-74724571D02*
X107799238Y-74819809D01*
X107894476Y-74867428D01*
X108751619Y-74867428D01*
X108418285Y-74486476D02*
X108418285Y-74105523D01*
X108751619Y-74343619D02*
X107894476Y-74343619D01*
X107799238Y-74296000D01*
X107751619Y-74200761D01*
X107751619Y-74105523D01*
X107751619Y-73629333D02*
X107799238Y-73724571D01*
X107846857Y-73772190D01*
X107942095Y-73819809D01*
X108227809Y-73819809D01*
X108323047Y-73772190D01*
X108370666Y-73724571D01*
X108418285Y-73629333D01*
X108418285Y-73486476D01*
X108370666Y-73391238D01*
X108323047Y-73343619D01*
X108227809Y-73296000D01*
X107942095Y-73296000D01*
X107846857Y-73343619D01*
X107799238Y-73391238D01*
X107751619Y-73486476D01*
X107751619Y-73629333D01*
X108418285Y-72867428D02*
X107751619Y-72867428D01*
X108323047Y-72867428D02*
X108370666Y-72819809D01*
X108418285Y-72724571D01*
X108418285Y-72581714D01*
X108370666Y-72486476D01*
X108275428Y-72438857D01*
X107751619Y-72438857D01*
X106625428Y-82915047D02*
X106625428Y-83248380D01*
X106101619Y-83248380D02*
X107101619Y-83248380D01*
X107101619Y-82772190D01*
X106101619Y-82248380D02*
X106149238Y-82343619D01*
X106196857Y-82391238D01*
X106292095Y-82438857D01*
X106577809Y-82438857D01*
X106673047Y-82391238D01*
X106720666Y-82343619D01*
X106768285Y-82248380D01*
X106768285Y-82105523D01*
X106720666Y-82010285D01*
X106673047Y-81962666D01*
X106577809Y-81915047D01*
X106292095Y-81915047D01*
X106196857Y-81962666D01*
X106149238Y-82010285D01*
X106101619Y-82105523D01*
X106101619Y-82248380D01*
X106101619Y-81486476D02*
X106768285Y-81486476D01*
X106577809Y-81486476D02*
X106673047Y-81438857D01*
X106720666Y-81391238D01*
X106768285Y-81296000D01*
X106768285Y-81200761D01*
X105451619Y-88891238D02*
X105451619Y-88700761D01*
X105404000Y-88605523D01*
X105308761Y-88510285D01*
X105118285Y-88462666D01*
X104784952Y-88462666D01*
X104594476Y-88510285D01*
X104499238Y-88605523D01*
X104451619Y-88700761D01*
X104451619Y-88891238D01*
X104499238Y-88986476D01*
X104594476Y-89081714D01*
X104784952Y-89129333D01*
X105118285Y-89129333D01*
X105308761Y-89081714D01*
X105404000Y-88986476D01*
X105451619Y-88891238D01*
X105118285Y-87605523D02*
X104451619Y-87605523D01*
X105118285Y-88034095D02*
X104594476Y-88034095D01*
X104499238Y-87986476D01*
X104451619Y-87891238D01*
X104451619Y-87748380D01*
X104499238Y-87653142D01*
X104546857Y-87605523D01*
X105118285Y-87272190D02*
X105118285Y-86891238D01*
X105451619Y-87129333D02*
X104594476Y-87129333D01*
X104499238Y-87081714D01*
X104451619Y-86986476D01*
X104451619Y-86891238D01*
X104499238Y-86605523D02*
X104451619Y-86510285D01*
X104451619Y-86319809D01*
X104499238Y-86224571D01*
X104594476Y-86176952D01*
X104642095Y-86176952D01*
X104737333Y-86224571D01*
X104784952Y-86319809D01*
X104784952Y-86462666D01*
X104832571Y-86557904D01*
X104927809Y-86605523D01*
X104975428Y-86605523D01*
X105070666Y-86557904D01*
X105118285Y-86462666D01*
X105118285Y-86319809D01*
X105070666Y-86224571D01*
X104451619Y-85748380D02*
X105118285Y-85748380D01*
X105451619Y-85748380D02*
X105404000Y-85796000D01*
X105356380Y-85748380D01*
X105404000Y-85700761D01*
X105451619Y-85748380D01*
X105356380Y-85748380D01*
X104451619Y-84843619D02*
X105451619Y-84843619D01*
X104499238Y-84843619D02*
X104451619Y-84938857D01*
X104451619Y-85129333D01*
X104499238Y-85224571D01*
X104546857Y-85272190D01*
X104642095Y-85319809D01*
X104927809Y-85319809D01*
X105023047Y-85272190D01*
X105070666Y-85224571D01*
X105118285Y-85129333D01*
X105118285Y-84938857D01*
X105070666Y-84843619D01*
X104499238Y-83986476D02*
X104451619Y-84081714D01*
X104451619Y-84272190D01*
X104499238Y-84367428D01*
X104594476Y-84415047D01*
X104975428Y-84415047D01*
X105070666Y-84367428D01*
X105118285Y-84272190D01*
X105118285Y-84081714D01*
X105070666Y-83986476D01*
X104975428Y-83938857D01*
X104880190Y-83938857D01*
X104784952Y-84415047D01*
X105451619Y-82891238D02*
X105451619Y-82319809D01*
X104451619Y-82605523D02*
X105451619Y-82605523D01*
X104451619Y-81986476D02*
X105451619Y-81986476D01*
X104451619Y-81557904D02*
X104975428Y-81557904D01*
X105070666Y-81605523D01*
X105118285Y-81700761D01*
X105118285Y-81843619D01*
X105070666Y-81938857D01*
X105023047Y-81986476D01*
X104499238Y-80700761D02*
X104451619Y-80796000D01*
X104451619Y-80986476D01*
X104499238Y-81081714D01*
X104594476Y-81129333D01*
X104975428Y-81129333D01*
X105070666Y-81081714D01*
X105118285Y-80986476D01*
X105118285Y-80796000D01*
X105070666Y-80700761D01*
X104975428Y-80653142D01*
X104880190Y-80653142D01*
X104784952Y-81129333D01*
X104451619Y-79462666D02*
X105451619Y-79462666D01*
X104737333Y-79129333D01*
X105451619Y-78796000D01*
X104451619Y-78796000D01*
X104451619Y-77891238D02*
X104975428Y-77891238D01*
X105070666Y-77938857D01*
X105118285Y-78034095D01*
X105118285Y-78224571D01*
X105070666Y-78319809D01*
X104499238Y-77891238D02*
X104451619Y-77986476D01*
X104451619Y-78224571D01*
X104499238Y-78319809D01*
X104594476Y-78367428D01*
X104689714Y-78367428D01*
X104784952Y-78319809D01*
X104832571Y-78224571D01*
X104832571Y-77986476D01*
X104880190Y-77891238D01*
X104451619Y-77415047D02*
X105118285Y-77415047D01*
X104927809Y-77415047D02*
X105023047Y-77367428D01*
X105070666Y-77319809D01*
X105118285Y-77224571D01*
X105118285Y-77129333D01*
X104499238Y-76367428D02*
X104451619Y-76462666D01*
X104451619Y-76653142D01*
X104499238Y-76748380D01*
X104546857Y-76796000D01*
X104642095Y-76843619D01*
X104927809Y-76843619D01*
X105023047Y-76796000D01*
X105070666Y-76748380D01*
X105118285Y-76653142D01*
X105118285Y-76462666D01*
X105070666Y-76367428D01*
X104451619Y-75938857D02*
X105451619Y-75938857D01*
X104451619Y-75510285D02*
X104975428Y-75510285D01*
X105070666Y-75557904D01*
X105118285Y-75653142D01*
X105118285Y-75796000D01*
X105070666Y-75891238D01*
X105023047Y-75938857D01*
M02*
