%TF.GenerationSoftware,KiCad,Pcbnew,(5.0.1-3-g963ef8bb5)*%
%TF.CreationDate,2019-03-29T12:16:20-04:00*%
%TF.ProjectId,VHSBase,564853426173652E6B696361645F7063,rev?*%
%TF.SameCoordinates,Original*%
%TF.FileFunction,Legend,Top*%
%TF.FilePolarity,Positive*%
%FSLAX46Y46*%
G04 Gerber Fmt 4.6, Leading zero omitted, Abs format (unit mm)*
G04 Created by KiCad (PCBNEW (5.0.1-3-g963ef8bb5)) date Friday, March 29, 2019 at 12:16:20 pm*
%MOMM*%
%LPD*%
G01*
G04 APERTURE LIST*
%ADD10C,0.150000*%
%ADD11C,0.120000*%
G04 APERTURE END LIST*
D10*
X91922000Y-72670095D02*
X91969619Y-72574857D01*
X91969619Y-72432000D01*
X91922000Y-72289142D01*
X91826761Y-72193904D01*
X91731523Y-72146285D01*
X91541047Y-72098666D01*
X91398190Y-72098666D01*
X91207714Y-72146285D01*
X91112476Y-72193904D01*
X91017238Y-72289142D01*
X90969619Y-72432000D01*
X90969619Y-72527238D01*
X91017238Y-72670095D01*
X91064857Y-72717714D01*
X91398190Y-72717714D01*
X91398190Y-72527238D01*
X90969619Y-73146285D02*
X91969619Y-73146285D01*
X90969619Y-73717714D01*
X91969619Y-73717714D01*
X90969619Y-74193904D02*
X91969619Y-74193904D01*
X91969619Y-74432000D01*
X91922000Y-74574857D01*
X91826761Y-74670095D01*
X91731523Y-74717714D01*
X91541047Y-74765333D01*
X91398190Y-74765333D01*
X91207714Y-74717714D01*
X91112476Y-74670095D01*
X91017238Y-74574857D01*
X90969619Y-74432000D01*
X90969619Y-74193904D01*
X91969619Y-69193523D02*
X91969619Y-69812571D01*
X91588666Y-69479238D01*
X91588666Y-69622095D01*
X91541047Y-69717333D01*
X91493428Y-69764952D01*
X91398190Y-69812571D01*
X91160095Y-69812571D01*
X91064857Y-69764952D01*
X91017238Y-69717333D01*
X90969619Y-69622095D01*
X90969619Y-69336380D01*
X91017238Y-69241142D01*
X91064857Y-69193523D01*
X91636285Y-70145904D02*
X90969619Y-70384000D01*
X91636285Y-70622095D01*
X91969619Y-70907809D02*
X91969619Y-71526857D01*
X91588666Y-71193523D01*
X91588666Y-71336380D01*
X91541047Y-71431619D01*
X91493428Y-71479238D01*
X91398190Y-71526857D01*
X91160095Y-71526857D01*
X91064857Y-71479238D01*
X91017238Y-71431619D01*
X90969619Y-71336380D01*
X90969619Y-71050666D01*
X91017238Y-70955428D01*
X91064857Y-70907809D01*
X92694285Y-101417428D02*
X93456190Y-101417428D01*
X93075238Y-101798380D02*
X93075238Y-101036476D01*
X94408571Y-100798380D02*
X93932380Y-100798380D01*
X93884761Y-101274571D01*
X93932380Y-101226952D01*
X94027619Y-101179333D01*
X94265714Y-101179333D01*
X94360952Y-101226952D01*
X94408571Y-101274571D01*
X94456190Y-101369809D01*
X94456190Y-101607904D01*
X94408571Y-101703142D01*
X94360952Y-101750761D01*
X94265714Y-101798380D01*
X94027619Y-101798380D01*
X93932380Y-101750761D01*
X93884761Y-101703142D01*
X94741904Y-100798380D02*
X95075238Y-101798380D01*
X95408571Y-100798380D01*
X93218095Y-98306000D02*
X93122857Y-98258380D01*
X92980000Y-98258380D01*
X92837142Y-98306000D01*
X92741904Y-98401238D01*
X92694285Y-98496476D01*
X92646666Y-98686952D01*
X92646666Y-98829809D01*
X92694285Y-99020285D01*
X92741904Y-99115523D01*
X92837142Y-99210761D01*
X92980000Y-99258380D01*
X93075238Y-99258380D01*
X93218095Y-99210761D01*
X93265714Y-99163142D01*
X93265714Y-98829809D01*
X93075238Y-98829809D01*
X93694285Y-99258380D02*
X93694285Y-98258380D01*
X94265714Y-99258380D01*
X94265714Y-98258380D01*
X94741904Y-99258380D02*
X94741904Y-98258380D01*
X94980000Y-98258380D01*
X95122857Y-98306000D01*
X95218095Y-98401238D01*
X95265714Y-98496476D01*
X95313333Y-98686952D01*
X95313333Y-98829809D01*
X95265714Y-99020285D01*
X95218095Y-99115523D01*
X95122857Y-99210761D01*
X94980000Y-99258380D01*
X94741904Y-99258380D01*
X94321333Y-96623142D02*
X94273714Y-96670761D01*
X94130857Y-96718380D01*
X94035619Y-96718380D01*
X93892761Y-96670761D01*
X93797523Y-96575523D01*
X93749904Y-96480285D01*
X93702285Y-96289809D01*
X93702285Y-96146952D01*
X93749904Y-95956476D01*
X93797523Y-95861238D01*
X93892761Y-95766000D01*
X94035619Y-95718380D01*
X94130857Y-95718380D01*
X94273714Y-95766000D01*
X94321333Y-95813619D01*
X94702285Y-96670761D02*
X94845142Y-96718380D01*
X95083238Y-96718380D01*
X95178476Y-96670761D01*
X95226095Y-96623142D01*
X95273714Y-96527904D01*
X95273714Y-96432666D01*
X95226095Y-96337428D01*
X95178476Y-96289809D01*
X95083238Y-96242190D01*
X94892761Y-96194571D01*
X94797523Y-96146952D01*
X94749904Y-96099333D01*
X94702285Y-96004095D01*
X94702285Y-95908857D01*
X94749904Y-95813619D01*
X94797523Y-95766000D01*
X94892761Y-95718380D01*
X95130857Y-95718380D01*
X95273714Y-95766000D01*
X92154571Y-94178380D02*
X92154571Y-93178380D01*
X92487904Y-93892666D01*
X92821238Y-93178380D01*
X92821238Y-94178380D01*
X93297428Y-94178380D02*
X93297428Y-93178380D01*
X93726000Y-94130761D02*
X93868857Y-94178380D01*
X94106952Y-94178380D01*
X94202190Y-94130761D01*
X94249809Y-94083142D01*
X94297428Y-93987904D01*
X94297428Y-93892666D01*
X94249809Y-93797428D01*
X94202190Y-93749809D01*
X94106952Y-93702190D01*
X93916476Y-93654571D01*
X93821238Y-93606952D01*
X93773619Y-93559333D01*
X93726000Y-93464095D01*
X93726000Y-93368857D01*
X93773619Y-93273619D01*
X93821238Y-93226000D01*
X93916476Y-93178380D01*
X94154571Y-93178380D01*
X94297428Y-93226000D01*
X94916476Y-93178380D02*
X95106952Y-93178380D01*
X95202190Y-93226000D01*
X95297428Y-93321238D01*
X95345047Y-93511714D01*
X95345047Y-93845047D01*
X95297428Y-94035523D01*
X95202190Y-94130761D01*
X95106952Y-94178380D01*
X94916476Y-94178380D01*
X94821238Y-94130761D01*
X94726000Y-94035523D01*
X94678380Y-93845047D01*
X94678380Y-93511714D01*
X94726000Y-93321238D01*
X94821238Y-93226000D01*
X94916476Y-93178380D01*
X92154571Y-91638380D02*
X92154571Y-90638380D01*
X92487904Y-91352666D01*
X92821238Y-90638380D01*
X92821238Y-91638380D01*
X93487904Y-90638380D02*
X93678380Y-90638380D01*
X93773619Y-90686000D01*
X93868857Y-90781238D01*
X93916476Y-90971714D01*
X93916476Y-91305047D01*
X93868857Y-91495523D01*
X93773619Y-91590761D01*
X93678380Y-91638380D01*
X93487904Y-91638380D01*
X93392666Y-91590761D01*
X93297428Y-91495523D01*
X93249809Y-91305047D01*
X93249809Y-90971714D01*
X93297428Y-90781238D01*
X93392666Y-90686000D01*
X93487904Y-90638380D01*
X94297428Y-91590761D02*
X94440285Y-91638380D01*
X94678380Y-91638380D01*
X94773619Y-91590761D01*
X94821238Y-91543142D01*
X94868857Y-91447904D01*
X94868857Y-91352666D01*
X94821238Y-91257428D01*
X94773619Y-91209809D01*
X94678380Y-91162190D01*
X94487904Y-91114571D01*
X94392666Y-91066952D01*
X94345047Y-91019333D01*
X94297428Y-90924095D01*
X94297428Y-90828857D01*
X94345047Y-90733619D01*
X94392666Y-90686000D01*
X94487904Y-90638380D01*
X94726000Y-90638380D01*
X94868857Y-90686000D01*
X95297428Y-91638380D02*
X95297428Y-90638380D01*
X92948285Y-89050761D02*
X93091142Y-89098380D01*
X93329238Y-89098380D01*
X93424476Y-89050761D01*
X93472095Y-89003142D01*
X93519714Y-88907904D01*
X93519714Y-88812666D01*
X93472095Y-88717428D01*
X93424476Y-88669809D01*
X93329238Y-88622190D01*
X93138761Y-88574571D01*
X93043523Y-88526952D01*
X92995904Y-88479333D01*
X92948285Y-88384095D01*
X92948285Y-88288857D01*
X92995904Y-88193619D01*
X93043523Y-88146000D01*
X93138761Y-88098380D01*
X93376857Y-88098380D01*
X93519714Y-88146000D01*
X94519714Y-89003142D02*
X94472095Y-89050761D01*
X94329238Y-89098380D01*
X94234000Y-89098380D01*
X94091142Y-89050761D01*
X93995904Y-88955523D01*
X93948285Y-88860285D01*
X93900666Y-88669809D01*
X93900666Y-88526952D01*
X93948285Y-88336476D01*
X93995904Y-88241238D01*
X94091142Y-88146000D01*
X94234000Y-88098380D01*
X94329238Y-88098380D01*
X94472095Y-88146000D01*
X94519714Y-88193619D01*
X94948285Y-89098380D02*
X94948285Y-88098380D01*
X95519714Y-89098380D02*
X95091142Y-88526952D01*
X95519714Y-88098380D02*
X94948285Y-88669809D01*
X92924476Y-85558380D02*
X93591142Y-86558380D01*
X93591142Y-85558380D02*
X92924476Y-86558380D01*
X94543523Y-86463142D02*
X94495904Y-86510761D01*
X94353047Y-86558380D01*
X94257809Y-86558380D01*
X94114952Y-86510761D01*
X94019714Y-86415523D01*
X93972095Y-86320285D01*
X93924476Y-86129809D01*
X93924476Y-85986952D01*
X93972095Y-85796476D01*
X94019714Y-85701238D01*
X94114952Y-85606000D01*
X94257809Y-85558380D01*
X94353047Y-85558380D01*
X94495904Y-85606000D01*
X94543523Y-85653619D01*
X94924476Y-86510761D02*
X95067333Y-86558380D01*
X95305428Y-86558380D01*
X95400666Y-86510761D01*
X95448285Y-86463142D01*
X95495904Y-86367904D01*
X95495904Y-86272666D01*
X95448285Y-86177428D01*
X95400666Y-86129809D01*
X95305428Y-86082190D01*
X95114952Y-86034571D01*
X95019714Y-85986952D01*
X94972095Y-85939333D01*
X94924476Y-85844095D01*
X94924476Y-85748857D01*
X94972095Y-85653619D01*
X95019714Y-85606000D01*
X95114952Y-85558380D01*
X95353047Y-85558380D01*
X95495904Y-85606000D01*
X92035523Y-83018380D02*
X92702190Y-84018380D01*
X92702190Y-83018380D02*
X92035523Y-84018380D01*
X93654571Y-84018380D02*
X93321238Y-83542190D01*
X93083142Y-84018380D02*
X93083142Y-83018380D01*
X93464095Y-83018380D01*
X93559333Y-83066000D01*
X93606952Y-83113619D01*
X93654571Y-83208857D01*
X93654571Y-83351714D01*
X93606952Y-83446952D01*
X93559333Y-83494571D01*
X93464095Y-83542190D01*
X93083142Y-83542190D01*
X94035523Y-83970761D02*
X94178380Y-84018380D01*
X94416476Y-84018380D01*
X94511714Y-83970761D01*
X94559333Y-83923142D01*
X94606952Y-83827904D01*
X94606952Y-83732666D01*
X94559333Y-83637428D01*
X94511714Y-83589809D01*
X94416476Y-83542190D01*
X94226000Y-83494571D01*
X94130761Y-83446952D01*
X94083142Y-83399333D01*
X94035523Y-83304095D01*
X94035523Y-83208857D01*
X94083142Y-83113619D01*
X94130761Y-83066000D01*
X94226000Y-83018380D01*
X94464095Y-83018380D01*
X94606952Y-83066000D01*
X94892666Y-83018380D02*
X95464095Y-83018380D01*
X95178380Y-84018380D02*
X95178380Y-83018380D01*
X91916476Y-80478380D02*
X92583142Y-81478380D01*
X92583142Y-80478380D02*
X91916476Y-81478380D01*
X92964095Y-81478380D02*
X92964095Y-80478380D01*
X93202190Y-80478380D01*
X93345047Y-80526000D01*
X93440285Y-80621238D01*
X93487904Y-80716476D01*
X93535523Y-80906952D01*
X93535523Y-81049809D01*
X93487904Y-81240285D01*
X93440285Y-81335523D01*
X93345047Y-81430761D01*
X93202190Y-81478380D01*
X92964095Y-81478380D01*
X94535523Y-81383142D02*
X94487904Y-81430761D01*
X94345047Y-81478380D01*
X94249809Y-81478380D01*
X94106952Y-81430761D01*
X94011714Y-81335523D01*
X93964095Y-81240285D01*
X93916476Y-81049809D01*
X93916476Y-80906952D01*
X93964095Y-80716476D01*
X94011714Y-80621238D01*
X94106952Y-80526000D01*
X94249809Y-80478380D01*
X94345047Y-80478380D01*
X94487904Y-80526000D01*
X94535523Y-80573619D01*
X94916476Y-81430761D02*
X95059333Y-81478380D01*
X95297428Y-81478380D01*
X95392666Y-81430761D01*
X95440285Y-81383142D01*
X95487904Y-81287904D01*
X95487904Y-81192666D01*
X95440285Y-81097428D01*
X95392666Y-81049809D01*
X95297428Y-81002190D01*
X95106952Y-80954571D01*
X95011714Y-80906952D01*
X94964095Y-80859333D01*
X94916476Y-80764095D01*
X94916476Y-80668857D01*
X94964095Y-80573619D01*
X95011714Y-80526000D01*
X95106952Y-80478380D01*
X95345047Y-80478380D01*
X95487904Y-80526000D01*
X91957904Y-79084380D02*
X91957904Y-78084380D01*
X92196000Y-78084380D01*
X92338857Y-78132000D01*
X92434095Y-78227238D01*
X92481714Y-78322476D01*
X92529333Y-78512952D01*
X92529333Y-78655809D01*
X92481714Y-78846285D01*
X92434095Y-78941523D01*
X92338857Y-79036761D01*
X92196000Y-79084380D01*
X91957904Y-79084380D01*
X93529333Y-79084380D02*
X93196000Y-78608190D01*
X92957904Y-79084380D02*
X92957904Y-78084380D01*
X93338857Y-78084380D01*
X93434095Y-78132000D01*
X93481714Y-78179619D01*
X93529333Y-78274857D01*
X93529333Y-78417714D01*
X93481714Y-78512952D01*
X93434095Y-78560571D01*
X93338857Y-78608190D01*
X92957904Y-78608190D01*
X93957904Y-78560571D02*
X94291238Y-78560571D01*
X94434095Y-79084380D02*
X93957904Y-79084380D01*
X93957904Y-78084380D01*
X94434095Y-78084380D01*
X95529333Y-79179619D02*
X95434095Y-79132000D01*
X95338857Y-79036761D01*
X95196000Y-78893904D01*
X95100761Y-78846285D01*
X95005523Y-78846285D01*
X95053142Y-79084380D02*
X94957904Y-79036761D01*
X94862666Y-78941523D01*
X94815047Y-78751047D01*
X94815047Y-78417714D01*
X94862666Y-78227238D01*
X94957904Y-78132000D01*
X95053142Y-78084380D01*
X95243619Y-78084380D01*
X95338857Y-78132000D01*
X95434095Y-78227238D01*
X95481714Y-78417714D01*
X95481714Y-78751047D01*
X95434095Y-78941523D01*
X95338857Y-79036761D01*
X95243619Y-79084380D01*
X95053142Y-79084380D01*
X117887904Y-76271428D02*
X117935523Y-76223809D01*
X118030761Y-76176190D01*
X118221238Y-76271428D01*
X118316476Y-76223809D01*
X118364095Y-76176190D01*
X118745047Y-76652380D02*
X118745047Y-75652380D01*
X118983142Y-75652380D01*
X119126000Y-75700000D01*
X119221238Y-75795238D01*
X119268857Y-75890476D01*
X119316476Y-76080952D01*
X119316476Y-76223809D01*
X119268857Y-76414285D01*
X119221238Y-76509523D01*
X119126000Y-76604761D01*
X118983142Y-76652380D01*
X118745047Y-76652380D01*
X120173619Y-75652380D02*
X119983142Y-75652380D01*
X119887904Y-75700000D01*
X119840285Y-75747619D01*
X119745047Y-75890476D01*
X119697428Y-76080952D01*
X119697428Y-76461904D01*
X119745047Y-76557142D01*
X119792666Y-76604761D01*
X119887904Y-76652380D01*
X120078380Y-76652380D01*
X120173619Y-76604761D01*
X120221238Y-76557142D01*
X120268857Y-76461904D01*
X120268857Y-76223809D01*
X120221238Y-76128571D01*
X120173619Y-76080952D01*
X120078380Y-76033333D01*
X119887904Y-76033333D01*
X119792666Y-76080952D01*
X119745047Y-76128571D01*
X119697428Y-76223809D01*
X118141904Y-82621428D02*
X118189523Y-82573809D01*
X118284761Y-82526190D01*
X118475238Y-82621428D01*
X118570476Y-82573809D01*
X118618095Y-82526190D01*
X118999047Y-83002380D02*
X118999047Y-82002380D01*
X119237142Y-82002380D01*
X119380000Y-82050000D01*
X119475238Y-82145238D01*
X119522857Y-82240476D01*
X119570476Y-82430952D01*
X119570476Y-82573809D01*
X119522857Y-82764285D01*
X119475238Y-82859523D01*
X119380000Y-82954761D01*
X119237142Y-83002380D01*
X118999047Y-83002380D01*
X120475238Y-82002380D02*
X119999047Y-82002380D01*
X119951428Y-82478571D01*
X119999047Y-82430952D01*
X120094285Y-82383333D01*
X120332380Y-82383333D01*
X120427619Y-82430952D01*
X120475238Y-82478571D01*
X120522857Y-82573809D01*
X120522857Y-82811904D01*
X120475238Y-82907142D01*
X120427619Y-82954761D01*
X120332380Y-83002380D01*
X120094285Y-83002380D01*
X119999047Y-82954761D01*
X119951428Y-82907142D01*
X126000095Y-81351428D02*
X126762000Y-81351428D01*
X126381047Y-81732380D02*
X126381047Y-80970476D01*
X128762000Y-81351428D02*
X129523904Y-81351428D01*
X122904380Y-81732380D02*
X122428190Y-81732380D01*
X122428190Y-80732380D01*
X123237714Y-81208571D02*
X123571047Y-81208571D01*
X123713904Y-81732380D02*
X123237714Y-81732380D01*
X123237714Y-80732380D01*
X123713904Y-80732380D01*
X124142476Y-81732380D02*
X124142476Y-80732380D01*
X124380571Y-80732380D01*
X124523428Y-80780000D01*
X124618666Y-80875238D01*
X124666285Y-80970476D01*
X124713904Y-81160952D01*
X124713904Y-81303809D01*
X124666285Y-81494285D01*
X124618666Y-81589523D01*
X124523428Y-81684761D01*
X124380571Y-81732380D01*
X124142476Y-81732380D01*
X125094857Y-81684761D02*
X125190095Y-81732380D01*
X125380571Y-81732380D01*
X125475809Y-81684761D01*
X125523428Y-81589523D01*
X125523428Y-81541904D01*
X125475809Y-81446666D01*
X125380571Y-81399047D01*
X125237714Y-81399047D01*
X125142476Y-81351428D01*
X125094857Y-81256190D01*
X125094857Y-81208571D01*
X125142476Y-81113333D01*
X125237714Y-81065714D01*
X125380571Y-81065714D01*
X125475809Y-81113333D01*
X122830952Y-89552380D02*
X122497619Y-89076190D01*
X122259523Y-89552380D02*
X122259523Y-88552380D01*
X122640476Y-88552380D01*
X122735714Y-88600000D01*
X122783333Y-88647619D01*
X122830952Y-88742857D01*
X122830952Y-88885714D01*
X122783333Y-88980952D01*
X122735714Y-89028571D01*
X122640476Y-89076190D01*
X122259523Y-89076190D01*
X123688095Y-88885714D02*
X123688095Y-89552380D01*
X123450000Y-88504761D02*
X123211904Y-89219047D01*
X123830952Y-89219047D01*
X125259523Y-89933333D02*
X125211904Y-89885714D01*
X125116666Y-89742857D01*
X125069047Y-89647619D01*
X125021428Y-89504761D01*
X124973809Y-89266666D01*
X124973809Y-89076190D01*
X125021428Y-88838095D01*
X125069047Y-88695238D01*
X125116666Y-88600000D01*
X125211904Y-88457142D01*
X125259523Y-88409523D01*
X125592857Y-89266666D02*
X126069047Y-89266666D01*
X125497619Y-89552380D02*
X125830952Y-88552380D01*
X126164285Y-89552380D01*
X126402380Y-88552380D02*
X127021428Y-88552380D01*
X126688095Y-88933333D01*
X126830952Y-88933333D01*
X126926190Y-88980952D01*
X126973809Y-89028571D01*
X127021428Y-89123809D01*
X127021428Y-89361904D01*
X126973809Y-89457142D01*
X126926190Y-89504761D01*
X126830952Y-89552380D01*
X126545238Y-89552380D01*
X126450000Y-89504761D01*
X126402380Y-89457142D01*
X127354761Y-89933333D02*
X127402380Y-89885714D01*
X127497619Y-89742857D01*
X127545238Y-89647619D01*
X127592857Y-89504761D01*
X127640476Y-89266666D01*
X127640476Y-89076190D01*
X127592857Y-88838095D01*
X127545238Y-88695238D01*
X127497619Y-88600000D01*
X127402380Y-88457142D01*
X127354761Y-88409523D01*
X122780952Y-92002380D02*
X122447619Y-91526190D01*
X122209523Y-92002380D02*
X122209523Y-91002380D01*
X122590476Y-91002380D01*
X122685714Y-91050000D01*
X122733333Y-91097619D01*
X122780952Y-91192857D01*
X122780952Y-91335714D01*
X122733333Y-91430952D01*
X122685714Y-91478571D01*
X122590476Y-91526190D01*
X122209523Y-91526190D01*
X123114285Y-91002380D02*
X123733333Y-91002380D01*
X123400000Y-91383333D01*
X123542857Y-91383333D01*
X123638095Y-91430952D01*
X123685714Y-91478571D01*
X123733333Y-91573809D01*
X123733333Y-91811904D01*
X123685714Y-91907142D01*
X123638095Y-91954761D01*
X123542857Y-92002380D01*
X123257142Y-92002380D01*
X123161904Y-91954761D01*
X123114285Y-91907142D01*
X125209523Y-92383333D02*
X125161904Y-92335714D01*
X125066666Y-92192857D01*
X125019047Y-92097619D01*
X124971428Y-91954761D01*
X124923809Y-91716666D01*
X124923809Y-91526190D01*
X124971428Y-91288095D01*
X125019047Y-91145238D01*
X125066666Y-91050000D01*
X125161904Y-90907142D01*
X125209523Y-90859523D01*
X125542857Y-91716666D02*
X126019047Y-91716666D01*
X125447619Y-92002380D02*
X125780952Y-91002380D01*
X126114285Y-92002380D01*
X126400000Y-91097619D02*
X126447619Y-91050000D01*
X126542857Y-91002380D01*
X126780952Y-91002380D01*
X126876190Y-91050000D01*
X126923809Y-91097619D01*
X126971428Y-91192857D01*
X126971428Y-91288095D01*
X126923809Y-91430952D01*
X126352380Y-92002380D01*
X126971428Y-92002380D01*
X127304761Y-92383333D02*
X127352380Y-92335714D01*
X127447619Y-92192857D01*
X127495238Y-92097619D01*
X127542857Y-91954761D01*
X127590476Y-91716666D01*
X127590476Y-91526190D01*
X127542857Y-91288095D01*
X127495238Y-91145238D01*
X127447619Y-91050000D01*
X127352380Y-90907142D01*
X127304761Y-90859523D01*
X122830952Y-94552380D02*
X122497619Y-94076190D01*
X122259523Y-94552380D02*
X122259523Y-93552380D01*
X122640476Y-93552380D01*
X122735714Y-93600000D01*
X122783333Y-93647619D01*
X122830952Y-93742857D01*
X122830952Y-93885714D01*
X122783333Y-93980952D01*
X122735714Y-94028571D01*
X122640476Y-94076190D01*
X122259523Y-94076190D01*
X123211904Y-93647619D02*
X123259523Y-93600000D01*
X123354761Y-93552380D01*
X123592857Y-93552380D01*
X123688095Y-93600000D01*
X123735714Y-93647619D01*
X123783333Y-93742857D01*
X123783333Y-93838095D01*
X123735714Y-93980952D01*
X123164285Y-94552380D01*
X123783333Y-94552380D01*
X125259523Y-94933333D02*
X125211904Y-94885714D01*
X125116666Y-94742857D01*
X125069047Y-94647619D01*
X125021428Y-94504761D01*
X124973809Y-94266666D01*
X124973809Y-94076190D01*
X125021428Y-93838095D01*
X125069047Y-93695238D01*
X125116666Y-93600000D01*
X125211904Y-93457142D01*
X125259523Y-93409523D01*
X125592857Y-94266666D02*
X126069047Y-94266666D01*
X125497619Y-94552380D02*
X125830952Y-93552380D01*
X126164285Y-94552380D01*
X127021428Y-94552380D02*
X126450000Y-94552380D01*
X126735714Y-94552380D02*
X126735714Y-93552380D01*
X126640476Y-93695238D01*
X126545238Y-93790476D01*
X126450000Y-93838095D01*
X127354761Y-94933333D02*
X127402380Y-94885714D01*
X127497619Y-94742857D01*
X127545238Y-94647619D01*
X127592857Y-94504761D01*
X127640476Y-94266666D01*
X127640476Y-94076190D01*
X127592857Y-93838095D01*
X127545238Y-93695238D01*
X127497619Y-93600000D01*
X127402380Y-93457142D01*
X127354761Y-93409523D01*
X122830952Y-97152380D02*
X122497619Y-96676190D01*
X122259523Y-97152380D02*
X122259523Y-96152380D01*
X122640476Y-96152380D01*
X122735714Y-96200000D01*
X122783333Y-96247619D01*
X122830952Y-96342857D01*
X122830952Y-96485714D01*
X122783333Y-96580952D01*
X122735714Y-96628571D01*
X122640476Y-96676190D01*
X122259523Y-96676190D01*
X123783333Y-97152380D02*
X123211904Y-97152380D01*
X123497619Y-97152380D02*
X123497619Y-96152380D01*
X123402380Y-96295238D01*
X123307142Y-96390476D01*
X123211904Y-96438095D01*
X125259523Y-97533333D02*
X125211904Y-97485714D01*
X125116666Y-97342857D01*
X125069047Y-97247619D01*
X125021428Y-97104761D01*
X124973809Y-96866666D01*
X124973809Y-96676190D01*
X125021428Y-96438095D01*
X125069047Y-96295238D01*
X125116666Y-96200000D01*
X125211904Y-96057142D01*
X125259523Y-96009523D01*
X125592857Y-96866666D02*
X126069047Y-96866666D01*
X125497619Y-97152380D02*
X125830952Y-96152380D01*
X126164285Y-97152380D01*
X126688095Y-96152380D02*
X126783333Y-96152380D01*
X126878571Y-96200000D01*
X126926190Y-96247619D01*
X126973809Y-96342857D01*
X127021428Y-96533333D01*
X127021428Y-96771428D01*
X126973809Y-96961904D01*
X126926190Y-97057142D01*
X126878571Y-97104761D01*
X126783333Y-97152380D01*
X126688095Y-97152380D01*
X126592857Y-97104761D01*
X126545238Y-97057142D01*
X126497619Y-96961904D01*
X126450000Y-96771428D01*
X126450000Y-96533333D01*
X126497619Y-96342857D01*
X126545238Y-96247619D01*
X126592857Y-96200000D01*
X126688095Y-96152380D01*
X127354761Y-97533333D02*
X127402380Y-97485714D01*
X127497619Y-97342857D01*
X127545238Y-97247619D01*
X127592857Y-97104761D01*
X127640476Y-96866666D01*
X127640476Y-96676190D01*
X127592857Y-96438095D01*
X127545238Y-96295238D01*
X127497619Y-96200000D01*
X127402380Y-96057142D01*
X127354761Y-96009523D01*
X122802380Y-99857142D02*
X122754761Y-99904761D01*
X122611904Y-99952380D01*
X122516666Y-99952380D01*
X122373809Y-99904761D01*
X122278571Y-99809523D01*
X122230952Y-99714285D01*
X122183333Y-99523809D01*
X122183333Y-99380952D01*
X122230952Y-99190476D01*
X122278571Y-99095238D01*
X122373809Y-99000000D01*
X122516666Y-98952380D01*
X122611904Y-98952380D01*
X122754761Y-99000000D01*
X122802380Y-99047619D01*
X123135714Y-98952380D02*
X123754761Y-98952380D01*
X123421428Y-99333333D01*
X123564285Y-99333333D01*
X123659523Y-99380952D01*
X123707142Y-99428571D01*
X123754761Y-99523809D01*
X123754761Y-99761904D01*
X123707142Y-99857142D01*
X123659523Y-99904761D01*
X123564285Y-99952380D01*
X123278571Y-99952380D01*
X123183333Y-99904761D01*
X123135714Y-99857142D01*
X125230952Y-100333333D02*
X125183333Y-100285714D01*
X125088095Y-100142857D01*
X125040476Y-100047619D01*
X124992857Y-99904761D01*
X124945238Y-99666666D01*
X124945238Y-99476190D01*
X124992857Y-99238095D01*
X125040476Y-99095238D01*
X125088095Y-99000000D01*
X125183333Y-98857142D01*
X125230952Y-98809523D01*
X125469047Y-99571428D02*
X125516666Y-99523809D01*
X125611904Y-99476190D01*
X125802380Y-99571428D01*
X125897619Y-99523809D01*
X125945238Y-99476190D01*
X126326190Y-99952380D02*
X126326190Y-98952380D01*
X126564285Y-98952380D01*
X126707142Y-99000000D01*
X126802380Y-99095238D01*
X126850000Y-99190476D01*
X126897619Y-99380952D01*
X126897619Y-99523809D01*
X126850000Y-99714285D01*
X126802380Y-99809523D01*
X126707142Y-99904761D01*
X126564285Y-99952380D01*
X126326190Y-99952380D01*
X127754761Y-98952380D02*
X127564285Y-98952380D01*
X127469047Y-99000000D01*
X127421428Y-99047619D01*
X127326190Y-99190476D01*
X127278571Y-99380952D01*
X127278571Y-99761904D01*
X127326190Y-99857142D01*
X127373809Y-99904761D01*
X127469047Y-99952380D01*
X127659523Y-99952380D01*
X127754761Y-99904761D01*
X127802380Y-99857142D01*
X127850000Y-99761904D01*
X127850000Y-99523809D01*
X127802380Y-99428571D01*
X127754761Y-99380952D01*
X127659523Y-99333333D01*
X127469047Y-99333333D01*
X127373809Y-99380952D01*
X127326190Y-99428571D01*
X127278571Y-99523809D01*
X128183333Y-100333333D02*
X128230952Y-100285714D01*
X128326190Y-100142857D01*
X128373809Y-100047619D01*
X128421428Y-99904761D01*
X128469047Y-99666666D01*
X128469047Y-99476190D01*
X128421428Y-99238095D01*
X128373809Y-99095238D01*
X128326190Y-99000000D01*
X128230952Y-98857142D01*
X128183333Y-98809523D01*
X122802380Y-102207142D02*
X122754761Y-102254761D01*
X122611904Y-102302380D01*
X122516666Y-102302380D01*
X122373809Y-102254761D01*
X122278571Y-102159523D01*
X122230952Y-102064285D01*
X122183333Y-101873809D01*
X122183333Y-101730952D01*
X122230952Y-101540476D01*
X122278571Y-101445238D01*
X122373809Y-101350000D01*
X122516666Y-101302380D01*
X122611904Y-101302380D01*
X122754761Y-101350000D01*
X122802380Y-101397619D01*
X123183333Y-101397619D02*
X123230952Y-101350000D01*
X123326190Y-101302380D01*
X123564285Y-101302380D01*
X123659523Y-101350000D01*
X123707142Y-101397619D01*
X123754761Y-101492857D01*
X123754761Y-101588095D01*
X123707142Y-101730952D01*
X123135714Y-102302380D01*
X123754761Y-102302380D01*
X125230952Y-102683333D02*
X125183333Y-102635714D01*
X125088095Y-102492857D01*
X125040476Y-102397619D01*
X124992857Y-102254761D01*
X124945238Y-102016666D01*
X124945238Y-101826190D01*
X124992857Y-101588095D01*
X125040476Y-101445238D01*
X125088095Y-101350000D01*
X125183333Y-101207142D01*
X125230952Y-101159523D01*
X125469047Y-101921428D02*
X125516666Y-101873809D01*
X125611904Y-101826190D01*
X125802380Y-101921428D01*
X125897619Y-101873809D01*
X125945238Y-101826190D01*
X126326190Y-102302380D02*
X126326190Y-101302380D01*
X126564285Y-101302380D01*
X126707142Y-101350000D01*
X126802380Y-101445238D01*
X126850000Y-101540476D01*
X126897619Y-101730952D01*
X126897619Y-101873809D01*
X126850000Y-102064285D01*
X126802380Y-102159523D01*
X126707142Y-102254761D01*
X126564285Y-102302380D01*
X126326190Y-102302380D01*
X127802380Y-101302380D02*
X127326190Y-101302380D01*
X127278571Y-101778571D01*
X127326190Y-101730952D01*
X127421428Y-101683333D01*
X127659523Y-101683333D01*
X127754761Y-101730952D01*
X127802380Y-101778571D01*
X127850000Y-101873809D01*
X127850000Y-102111904D01*
X127802380Y-102207142D01*
X127754761Y-102254761D01*
X127659523Y-102302380D01*
X127421428Y-102302380D01*
X127326190Y-102254761D01*
X127278571Y-102207142D01*
X128183333Y-102683333D02*
X128230952Y-102635714D01*
X128326190Y-102492857D01*
X128373809Y-102397619D01*
X128421428Y-102254761D01*
X128469047Y-102016666D01*
X128469047Y-101826190D01*
X128421428Y-101588095D01*
X128373809Y-101445238D01*
X128326190Y-101350000D01*
X128230952Y-101207142D01*
X128183333Y-101159523D01*
X122909523Y-104607142D02*
X122861904Y-104654761D01*
X122719047Y-104702380D01*
X122623809Y-104702380D01*
X122480952Y-104654761D01*
X122385714Y-104559523D01*
X122338095Y-104464285D01*
X122290476Y-104273809D01*
X122290476Y-104130952D01*
X122338095Y-103940476D01*
X122385714Y-103845238D01*
X122480952Y-103750000D01*
X122623809Y-103702380D01*
X122719047Y-103702380D01*
X122861904Y-103750000D01*
X122909523Y-103797619D01*
X123861904Y-104702380D02*
X123290476Y-104702380D01*
X123576190Y-104702380D02*
X123576190Y-103702380D01*
X123480952Y-103845238D01*
X123385714Y-103940476D01*
X123290476Y-103988095D01*
X125338095Y-105083333D02*
X125290476Y-105035714D01*
X125195238Y-104892857D01*
X125147619Y-104797619D01*
X125100000Y-104654761D01*
X125052380Y-104416666D01*
X125052380Y-104226190D01*
X125100000Y-103988095D01*
X125147619Y-103845238D01*
X125195238Y-103750000D01*
X125290476Y-103607142D01*
X125338095Y-103559523D01*
X125719047Y-104702380D02*
X125719047Y-103702380D01*
X125957142Y-103702380D01*
X126100000Y-103750000D01*
X126195238Y-103845238D01*
X126242857Y-103940476D01*
X126290476Y-104130952D01*
X126290476Y-104273809D01*
X126242857Y-104464285D01*
X126195238Y-104559523D01*
X126100000Y-104654761D01*
X125957142Y-104702380D01*
X125719047Y-104702380D01*
X126671428Y-103797619D02*
X126719047Y-103750000D01*
X126814285Y-103702380D01*
X127052380Y-103702380D01*
X127147619Y-103750000D01*
X127195238Y-103797619D01*
X127242857Y-103892857D01*
X127242857Y-103988095D01*
X127195238Y-104130952D01*
X126623809Y-104702380D01*
X127242857Y-104702380D01*
X127576190Y-105083333D02*
X127623809Y-105035714D01*
X127719047Y-104892857D01*
X127766666Y-104797619D01*
X127814285Y-104654761D01*
X127861904Y-104416666D01*
X127861904Y-104226190D01*
X127814285Y-103988095D01*
X127766666Y-103845238D01*
X127719047Y-103750000D01*
X127623809Y-103607142D01*
X127576190Y-103559523D01*
X96688095Y-64850000D02*
X96592857Y-64802380D01*
X96450000Y-64802380D01*
X96307142Y-64850000D01*
X96211904Y-64945238D01*
X96164285Y-65040476D01*
X96116666Y-65230952D01*
X96116666Y-65373809D01*
X96164285Y-65564285D01*
X96211904Y-65659523D01*
X96307142Y-65754761D01*
X96450000Y-65802380D01*
X96545238Y-65802380D01*
X96688095Y-65754761D01*
X96735714Y-65707142D01*
X96735714Y-65373809D01*
X96545238Y-65373809D01*
X97164285Y-65802380D02*
X97164285Y-64802380D01*
X97735714Y-65802380D01*
X97735714Y-64802380D01*
X98211904Y-65802380D02*
X98211904Y-64802380D01*
X98450000Y-64802380D01*
X98592857Y-64850000D01*
X98688095Y-64945238D01*
X98735714Y-65040476D01*
X98783333Y-65230952D01*
X98783333Y-65373809D01*
X98735714Y-65564285D01*
X98688095Y-65659523D01*
X98592857Y-65754761D01*
X98450000Y-65802380D01*
X98211904Y-65802380D01*
X92654761Y-64852380D02*
X92988095Y-65852380D01*
X93321428Y-64852380D01*
X93654761Y-65852380D02*
X93654761Y-64852380D01*
X94130952Y-65852380D02*
X94130952Y-64852380D01*
X94702380Y-65852380D01*
X94702380Y-64852380D01*
D11*
X117615000Y-59755000D02*
X99575000Y-59755000D01*
X117615000Y-103195000D02*
X117615000Y-59755000D01*
X99575000Y-103195000D02*
X117615000Y-103195000D01*
X102245000Y-100525000D02*
X99575000Y-100525000D01*
X102245000Y-64965000D02*
X102245000Y-100525000D01*
X102245000Y-64965000D02*
X99575000Y-64965000D01*
X114945000Y-100525000D02*
X117615000Y-100525000D01*
X114945000Y-62425000D02*
X114945000Y-100525000D01*
X114945000Y-62425000D02*
X117615000Y-62425000D01*
X99575000Y-59755000D02*
X99575000Y-62425000D01*
X99575000Y-64965000D02*
X99575000Y-103195000D01*
X102245000Y-62425000D02*
X99575000Y-62425000D01*
X102245000Y-64965000D02*
X102245000Y-62425000D01*
X121530000Y-105430000D02*
X120200000Y-105430000D01*
X121530000Y-104100000D02*
X121530000Y-105430000D01*
X121530000Y-102830000D02*
X118870000Y-102830000D01*
X118870000Y-102830000D02*
X118870000Y-87530000D01*
X121530000Y-102830000D02*
X121530000Y-87530000D01*
X121530000Y-87530000D02*
X118870000Y-87530000D01*
X95952000Y-77156000D02*
X97282000Y-77156000D01*
X95952000Y-78486000D02*
X95952000Y-77156000D01*
X95952000Y-79756000D02*
X98612000Y-79756000D01*
X98612000Y-79756000D02*
X98612000Y-102676000D01*
X95952000Y-79756000D02*
X95952000Y-102676000D01*
X95952000Y-102676000D02*
X98612000Y-102676000D01*
X94976000Y-74526000D02*
X93646000Y-74526000D01*
X94976000Y-73196000D02*
X94976000Y-74526000D01*
X94976000Y-71926000D02*
X92316000Y-71926000D01*
X92316000Y-71926000D02*
X92316000Y-66786000D01*
X94976000Y-71926000D02*
X94976000Y-66786000D01*
X94976000Y-66786000D02*
X92316000Y-66786000D01*
X98786000Y-74526000D02*
X97456000Y-74526000D01*
X98786000Y-73196000D02*
X98786000Y-74526000D01*
X98786000Y-71926000D02*
X96126000Y-71926000D01*
X96126000Y-71926000D02*
X96126000Y-66786000D01*
X98786000Y-71926000D02*
X98786000Y-66786000D01*
X98786000Y-66786000D02*
X96126000Y-66786000D01*
X125162000Y-85912000D02*
X125162000Y-84582000D01*
X126492000Y-85912000D02*
X125162000Y-85912000D01*
X127762000Y-85912000D02*
X127762000Y-83252000D01*
X127762000Y-83252000D02*
X130362000Y-83252000D01*
X127762000Y-85912000D02*
X130362000Y-85912000D01*
X130362000Y-85912000D02*
X130362000Y-83252000D01*
X130108000Y-79308000D02*
X130108000Y-76648000D01*
X127508000Y-79308000D02*
X130108000Y-79308000D01*
X127508000Y-76648000D02*
X130108000Y-76648000D01*
X127508000Y-79308000D02*
X127508000Y-76648000D01*
X126238000Y-79308000D02*
X124908000Y-79308000D01*
X124908000Y-79308000D02*
X124908000Y-77978000D01*
X118665000Y-60745000D02*
X118665000Y-63405000D01*
X123805000Y-60745000D02*
X118665000Y-60745000D01*
X123805000Y-63405000D02*
X118665000Y-63405000D01*
X123805000Y-60745000D02*
X123805000Y-63405000D01*
X125075000Y-60745000D02*
X126405000Y-60745000D01*
X126405000Y-60745000D02*
X126405000Y-62075000D01*
X126405000Y-64395000D02*
X126405000Y-65725000D01*
X125075000Y-64395000D02*
X126405000Y-64395000D01*
X123805000Y-64395000D02*
X123805000Y-67055000D01*
X123805000Y-67055000D02*
X118665000Y-67055000D01*
X123805000Y-64395000D02*
X118665000Y-64395000D01*
X118665000Y-64395000D02*
X118665000Y-67055000D01*
X126405000Y-68045000D02*
X126405000Y-69375000D01*
X125075000Y-68045000D02*
X126405000Y-68045000D01*
X123805000Y-68045000D02*
X123805000Y-70705000D01*
X123805000Y-70705000D02*
X118665000Y-70705000D01*
X123805000Y-68045000D02*
X118665000Y-68045000D01*
X118665000Y-68045000D02*
X118665000Y-70705000D01*
X118665000Y-71695000D02*
X118665000Y-74355000D01*
X123805000Y-71695000D02*
X118665000Y-71695000D01*
X123805000Y-74355000D02*
X118665000Y-74355000D01*
X123805000Y-71695000D02*
X123805000Y-74355000D01*
X125075000Y-71695000D02*
X126405000Y-71695000D01*
X126405000Y-71695000D02*
X126405000Y-73025000D01*
X120719172Y-83782578D02*
G75*
G02X120719490Y-85382000I1454828J-799422D01*
G01*
X120465172Y-77432578D02*
G75*
G02X120465490Y-79032000I1454828J-799422D01*
G01*
X87806000Y-69308000D02*
X89136000Y-69308000D01*
X87806000Y-70638000D02*
X87806000Y-69308000D01*
X87806000Y-71908000D02*
X90466000Y-71908000D01*
X90466000Y-71908000D02*
X90466000Y-74508000D01*
X87806000Y-71908000D02*
X87806000Y-74508000D01*
X87806000Y-74508000D02*
X90466000Y-74508000D01*
D10*
X108235713Y-65766665D02*
X108711903Y-65766665D01*
X108140475Y-66052379D02*
X108473808Y-65052379D01*
X108807141Y-66052379D01*
X109664284Y-66052379D02*
X109092856Y-66052379D01*
X109378570Y-66052379D02*
X109378570Y-65052379D01*
X109283332Y-65195237D01*
X109188094Y-65290475D01*
X109092856Y-65338094D01*
X117522666Y-103846380D02*
X117522666Y-104560666D01*
X117475047Y-104703523D01*
X117379809Y-104798761D01*
X117236952Y-104846380D01*
X117141714Y-104846380D01*
X118427428Y-103846380D02*
X118236952Y-103846380D01*
X118141714Y-103894000D01*
X118094095Y-103941619D01*
X117998857Y-104084476D01*
X117951238Y-104274952D01*
X117951238Y-104655904D01*
X117998857Y-104751142D01*
X118046476Y-104798761D01*
X118141714Y-104846380D01*
X118332190Y-104846380D01*
X118427428Y-104798761D01*
X118475047Y-104751142D01*
X118522666Y-104655904D01*
X118522666Y-104417809D01*
X118475047Y-104322571D01*
X118427428Y-104274952D01*
X118332190Y-104227333D01*
X118141714Y-104227333D01*
X118046476Y-104274952D01*
X117998857Y-104322571D01*
X117951238Y-104417809D01*
X94408666Y-76414380D02*
X94408666Y-77128666D01*
X94361047Y-77271523D01*
X94265809Y-77366761D01*
X94122952Y-77414380D01*
X94027714Y-77414380D01*
X94789619Y-76414380D02*
X95456285Y-76414380D01*
X95027714Y-77414380D01*
X93616666Y-75052380D02*
X93616666Y-75766666D01*
X93569047Y-75909523D01*
X93473809Y-76004761D01*
X93330952Y-76052380D01*
X93235714Y-76052380D01*
X94616666Y-76052380D02*
X94045238Y-76052380D01*
X94330952Y-76052380D02*
X94330952Y-75052380D01*
X94235714Y-75195238D01*
X94140476Y-75290476D01*
X94045238Y-75338095D01*
X97066666Y-75052380D02*
X97066666Y-75766666D01*
X97019047Y-75909523D01*
X96923809Y-76004761D01*
X96780952Y-76052380D01*
X96685714Y-76052380D01*
X97685714Y-75480952D02*
X97590476Y-75433333D01*
X97542857Y-75385714D01*
X97495238Y-75290476D01*
X97495238Y-75242857D01*
X97542857Y-75147619D01*
X97590476Y-75100000D01*
X97685714Y-75052380D01*
X97876190Y-75052380D01*
X97971428Y-75100000D01*
X98019047Y-75147619D01*
X98066666Y-75242857D01*
X98066666Y-75290476D01*
X98019047Y-75385714D01*
X97971428Y-75433333D01*
X97876190Y-75480952D01*
X97685714Y-75480952D01*
X97590476Y-75528571D01*
X97542857Y-75576190D01*
X97495238Y-75671428D01*
X97495238Y-75861904D01*
X97542857Y-75957142D01*
X97590476Y-76004761D01*
X97685714Y-76052380D01*
X97876190Y-76052380D01*
X97971428Y-76004761D01*
X98019047Y-75957142D01*
X98066666Y-75861904D01*
X98066666Y-75671428D01*
X98019047Y-75576190D01*
X97971428Y-75528571D01*
X97876190Y-75480952D01*
X126488096Y-62021427D02*
X127250001Y-62021427D01*
X126869048Y-62402379D02*
X126869048Y-61640475D01*
X128202381Y-61402379D02*
X127726191Y-61402379D01*
X127678572Y-61878570D01*
X127726191Y-61830951D01*
X127821429Y-61783332D01*
X128059524Y-61783332D01*
X128154762Y-61830951D01*
X128202381Y-61878570D01*
X128250001Y-61973808D01*
X128250001Y-62211903D01*
X128202381Y-62307141D01*
X128154762Y-62354760D01*
X128059524Y-62402379D01*
X127821429Y-62402379D01*
X127726191Y-62354760D01*
X127678572Y-62307141D01*
X128535715Y-61402379D02*
X128869048Y-62402379D01*
X129202381Y-61402379D01*
X130059524Y-62402379D02*
X129488096Y-62402379D01*
X129773810Y-62402379D02*
X129773810Y-61402379D01*
X129678572Y-61545237D01*
X129583334Y-61640475D01*
X129488096Y-61688094D01*
X127311905Y-65049999D02*
X127216667Y-65002379D01*
X127073810Y-65002379D01*
X126930953Y-65049999D01*
X126835715Y-65145237D01*
X126788096Y-65240475D01*
X126740477Y-65430951D01*
X126740477Y-65573808D01*
X126788096Y-65764284D01*
X126835715Y-65859522D01*
X126930953Y-65954760D01*
X127073810Y-66002379D01*
X127169048Y-66002379D01*
X127311905Y-65954760D01*
X127359524Y-65907141D01*
X127359524Y-65573808D01*
X127169048Y-65573808D01*
X127788096Y-66002379D02*
X127788096Y-65002379D01*
X128359524Y-66002379D01*
X128359524Y-65002379D01*
X128835715Y-66002379D02*
X128835715Y-65002379D01*
X129073810Y-65002379D01*
X129216667Y-65049999D01*
X129311905Y-65145237D01*
X129359524Y-65240475D01*
X129407143Y-65430951D01*
X129407143Y-65573808D01*
X129359524Y-65764284D01*
X129311905Y-65859522D01*
X129216667Y-65954760D01*
X129073810Y-66002379D01*
X128835715Y-66002379D01*
X130359524Y-66002379D02*
X129788096Y-66002379D01*
X130073810Y-66002379D02*
X130073810Y-65002379D01*
X129978572Y-65145237D01*
X129883334Y-65240475D01*
X129788096Y-65288094D01*
X126833334Y-69779761D02*
X126976191Y-69827380D01*
X127214286Y-69827380D01*
X127309524Y-69779761D01*
X127357143Y-69732142D01*
X127404762Y-69636904D01*
X127404762Y-69541666D01*
X127357143Y-69446428D01*
X127309524Y-69398809D01*
X127214286Y-69351190D01*
X127023810Y-69303571D01*
X126928572Y-69255952D01*
X126880953Y-69208333D01*
X126833334Y-69113095D01*
X126833334Y-69017857D01*
X126880953Y-68922619D01*
X126928572Y-68875000D01*
X127023810Y-68827380D01*
X127261905Y-68827380D01*
X127404762Y-68875000D01*
X128404762Y-69732142D02*
X128357143Y-69779761D01*
X128214286Y-69827380D01*
X128119048Y-69827380D01*
X127976191Y-69779761D01*
X127880953Y-69684523D01*
X127833334Y-69589285D01*
X127785715Y-69398809D01*
X127785715Y-69255952D01*
X127833334Y-69065476D01*
X127880953Y-68970238D01*
X127976191Y-68875000D01*
X128119048Y-68827380D01*
X128214286Y-68827380D01*
X128357143Y-68875000D01*
X128404762Y-68922619D01*
X129309524Y-69827380D02*
X128833334Y-69827380D01*
X128833334Y-68827380D01*
X130166667Y-69827380D02*
X129595239Y-69827380D01*
X129880953Y-69827380D02*
X129880953Y-68827380D01*
X129785715Y-68970238D01*
X129690477Y-69065476D01*
X129595239Y-69113095D01*
X127009524Y-73454760D02*
X127152381Y-73502379D01*
X127390477Y-73502379D01*
X127485715Y-73454760D01*
X127533334Y-73407141D01*
X127580953Y-73311903D01*
X127580953Y-73216665D01*
X127533334Y-73121427D01*
X127485715Y-73073808D01*
X127390477Y-73026189D01*
X127200001Y-72978570D01*
X127104762Y-72930951D01*
X127057143Y-72883332D01*
X127009524Y-72788094D01*
X127009524Y-72692856D01*
X127057143Y-72597618D01*
X127104762Y-72549999D01*
X127200001Y-72502379D01*
X127438096Y-72502379D01*
X127580953Y-72549999D01*
X128009524Y-73502379D02*
X128009524Y-72502379D01*
X128247620Y-72502379D01*
X128390477Y-72549999D01*
X128485715Y-72645237D01*
X128533334Y-72740475D01*
X128580953Y-72930951D01*
X128580953Y-73073808D01*
X128533334Y-73264284D01*
X128485715Y-73359522D01*
X128390477Y-73454760D01*
X128247620Y-73502379D01*
X128009524Y-73502379D01*
X128961905Y-73216665D02*
X129438096Y-73216665D01*
X128866667Y-73502379D02*
X129200001Y-72502379D01*
X129533334Y-73502379D01*
X130390477Y-73502379D02*
X129819048Y-73502379D01*
X130104762Y-73502379D02*
X130104762Y-72502379D01*
X130009524Y-72645237D01*
X129914286Y-72740475D01*
X129819048Y-72788094D01*
X88588380Y-68641333D02*
X89302666Y-68641333D01*
X89445523Y-68688952D01*
X89540761Y-68784190D01*
X89588380Y-68927047D01*
X89588380Y-69022285D01*
X88683619Y-68212761D02*
X88636000Y-68165142D01*
X88588380Y-68069904D01*
X88588380Y-67831809D01*
X88636000Y-67736571D01*
X88683619Y-67688952D01*
X88778857Y-67641333D01*
X88874095Y-67641333D01*
X89016952Y-67688952D01*
X89588380Y-68260380D01*
X89588380Y-67641333D01*
X90188095Y-98852380D02*
X90188095Y-97852380D01*
X90188095Y-98328571D02*
X90759523Y-98328571D01*
X90759523Y-98852380D02*
X90759523Y-97852380D01*
X91188095Y-97947619D02*
X91235714Y-97900000D01*
X91330952Y-97852380D01*
X91569047Y-97852380D01*
X91664285Y-97900000D01*
X91711904Y-97947619D01*
X91759523Y-98042857D01*
X91759523Y-98138095D01*
X91711904Y-98280952D01*
X91140476Y-98852380D01*
X91759523Y-98852380D01*
X94688095Y-63052380D02*
X94688095Y-62052380D01*
X94688095Y-62528571D02*
X95259523Y-62528571D01*
X95259523Y-63052380D02*
X95259523Y-62052380D01*
X95640476Y-62052380D02*
X96259523Y-62052380D01*
X95926190Y-62433333D01*
X96069047Y-62433333D01*
X96164285Y-62480952D01*
X96211904Y-62528571D01*
X96259523Y-62623809D01*
X96259523Y-62861904D01*
X96211904Y-62957142D01*
X96164285Y-63004761D01*
X96069047Y-63052380D01*
X95783333Y-63052380D01*
X95688095Y-63004761D01*
X95640476Y-62957142D01*
X130188095Y-98852380D02*
X130188095Y-97852380D01*
X130188095Y-98328571D02*
X130759523Y-98328571D01*
X130759523Y-98852380D02*
X130759523Y-97852380D01*
X131759523Y-98852380D02*
X131188095Y-98852380D01*
X131473809Y-98852380D02*
X131473809Y-97852380D01*
X131378571Y-97995238D01*
X131283333Y-98090476D01*
X131188095Y-98138095D01*
X132188095Y-65552380D02*
X132188095Y-64552380D01*
X132188095Y-65028571D02*
X132759523Y-65028571D01*
X132759523Y-65552380D02*
X132759523Y-64552380D01*
X133664285Y-64885714D02*
X133664285Y-65552380D01*
X133426190Y-64504761D02*
X133188095Y-65219047D01*
X133807142Y-65219047D01*
M02*
