%TF.GenerationSoftware,KiCad,Pcbnew,(5.0.1-3-g963ef8bb5)*%
%TF.CreationDate,2019-03-29T12:16:20-04:00*%
%TF.ProjectId,VHSBase,564853426173652E6B696361645F7063,rev?*%
%TF.SameCoordinates,Original*%
%TF.FileFunction,Soldermask,Bot*%
%TF.FilePolarity,Negative*%
%FSLAX46Y46*%
G04 Gerber Fmt 4.6, Leading zero omitted, Abs format (unit mm)*
G04 Created by KiCad (PCBNEW (5.0.1-3-g963ef8bb5)) date Friday, March 29, 2019 at 12:16:20 pm*
%MOMM*%
%LPD*%
G01*
G04 APERTURE LIST*
%ADD10C,0.100000*%
G04 APERTURE END LIST*
D10*
G36*
X121101000Y-105001000D02*
X119299000Y-105001000D01*
X119299000Y-103199000D01*
X121101000Y-103199000D01*
X121101000Y-105001000D01*
X121101000Y-105001000D01*
G37*
G36*
X131325256Y-100991298D02*
X131431579Y-101012447D01*
X131732042Y-101136903D01*
X131846728Y-101213534D01*
X132002454Y-101317587D01*
X132232413Y-101547546D01*
X132413098Y-101817960D01*
X132425951Y-101848991D01*
X132537553Y-102118421D01*
X132601000Y-102437391D01*
X132601000Y-102762609D01*
X132537553Y-103081579D01*
X132449550Y-103294037D01*
X132413098Y-103382040D01*
X132232413Y-103652454D01*
X132002454Y-103882413D01*
X132002451Y-103882415D01*
X131732042Y-104063097D01*
X131431579Y-104187553D01*
X131325256Y-104208702D01*
X131112611Y-104251000D01*
X130787389Y-104251000D01*
X130574744Y-104208702D01*
X130468421Y-104187553D01*
X130167958Y-104063097D01*
X129897549Y-103882415D01*
X129897546Y-103882413D01*
X129667587Y-103652454D01*
X129486902Y-103382040D01*
X129450450Y-103294037D01*
X129362447Y-103081579D01*
X129299000Y-102762609D01*
X129299000Y-102437391D01*
X129362447Y-102118421D01*
X129474049Y-101848991D01*
X129486902Y-101817960D01*
X129667587Y-101547546D01*
X129897546Y-101317587D01*
X130053272Y-101213534D01*
X130167958Y-101136903D01*
X130468421Y-101012447D01*
X130574744Y-100991298D01*
X130787389Y-100949000D01*
X131112611Y-100949000D01*
X131325256Y-100991298D01*
X131325256Y-100991298D01*
G37*
G36*
X91325256Y-100991298D02*
X91431579Y-101012447D01*
X91732042Y-101136903D01*
X91846728Y-101213534D01*
X92002454Y-101317587D01*
X92232413Y-101547546D01*
X92413098Y-101817960D01*
X92425951Y-101848991D01*
X92537553Y-102118421D01*
X92601000Y-102437391D01*
X92601000Y-102762609D01*
X92537553Y-103081579D01*
X92449550Y-103294037D01*
X92413098Y-103382040D01*
X92232413Y-103652454D01*
X92002454Y-103882413D01*
X92002451Y-103882415D01*
X91732042Y-104063097D01*
X91431579Y-104187553D01*
X91325256Y-104208702D01*
X91112611Y-104251000D01*
X90787389Y-104251000D01*
X90574744Y-104208702D01*
X90468421Y-104187553D01*
X90167958Y-104063097D01*
X89897549Y-103882415D01*
X89897546Y-103882413D01*
X89667587Y-103652454D01*
X89486902Y-103382040D01*
X89450450Y-103294037D01*
X89362447Y-103081579D01*
X89299000Y-102762609D01*
X89299000Y-102437391D01*
X89362447Y-102118421D01*
X89474049Y-101848991D01*
X89486902Y-101817960D01*
X89667587Y-101547546D01*
X89897546Y-101317587D01*
X90053272Y-101213534D01*
X90167958Y-101136903D01*
X90468421Y-101012447D01*
X90574744Y-100991298D01*
X90787389Y-100949000D01*
X91112611Y-100949000D01*
X91325256Y-100991298D01*
X91325256Y-100991298D01*
G37*
G36*
X120310442Y-100665518D02*
X120376627Y-100672037D01*
X120487975Y-100705814D01*
X120546467Y-100723557D01*
X120685087Y-100797652D01*
X120702991Y-100807222D01*
X120738729Y-100836552D01*
X120840186Y-100919814D01*
X120916207Y-101012447D01*
X120952778Y-101057009D01*
X120952779Y-101057011D01*
X121036443Y-101213533D01*
X121036443Y-101213534D01*
X121087963Y-101383373D01*
X121105359Y-101560000D01*
X121087963Y-101736627D01*
X121063291Y-101817960D01*
X121036443Y-101906467D01*
X120962348Y-102045087D01*
X120952778Y-102062991D01*
X120923448Y-102098729D01*
X120840186Y-102200186D01*
X120738729Y-102283448D01*
X120702991Y-102312778D01*
X120702989Y-102312779D01*
X120546467Y-102396443D01*
X120489853Y-102413616D01*
X120376627Y-102447963D01*
X120310443Y-102454481D01*
X120244260Y-102461000D01*
X120155740Y-102461000D01*
X120089557Y-102454481D01*
X120023373Y-102447963D01*
X119910147Y-102413616D01*
X119853533Y-102396443D01*
X119697011Y-102312779D01*
X119697009Y-102312778D01*
X119661271Y-102283448D01*
X119559814Y-102200186D01*
X119476552Y-102098729D01*
X119447222Y-102062991D01*
X119437652Y-102045087D01*
X119363557Y-101906467D01*
X119336709Y-101817960D01*
X119312037Y-101736627D01*
X119294641Y-101560000D01*
X119312037Y-101383373D01*
X119363557Y-101213534D01*
X119363557Y-101213533D01*
X119447221Y-101057011D01*
X119447222Y-101057009D01*
X119483793Y-101012447D01*
X119559814Y-100919814D01*
X119661271Y-100836552D01*
X119697009Y-100807222D01*
X119714913Y-100797652D01*
X119853533Y-100723557D01*
X119912025Y-100705814D01*
X120023373Y-100672037D01*
X120089558Y-100665518D01*
X120155740Y-100659000D01*
X120244260Y-100659000D01*
X120310442Y-100665518D01*
X120310442Y-100665518D01*
G37*
G36*
X97392443Y-100451519D02*
X97458627Y-100458037D01*
X97571853Y-100492384D01*
X97628467Y-100509557D01*
X97767087Y-100583652D01*
X97784991Y-100593222D01*
X97820729Y-100622552D01*
X97922186Y-100705814D01*
X98005407Y-100807221D01*
X98034778Y-100843009D01*
X98034779Y-100843011D01*
X98118443Y-100999533D01*
X98118443Y-100999534D01*
X98169963Y-101169373D01*
X98187359Y-101346000D01*
X98169963Y-101522627D01*
X98162403Y-101547549D01*
X98118443Y-101692467D01*
X98051366Y-101817958D01*
X98034778Y-101848991D01*
X98005448Y-101884729D01*
X97922186Y-101986186D01*
X97828600Y-102062989D01*
X97784991Y-102098778D01*
X97784989Y-102098779D01*
X97628467Y-102182443D01*
X97571853Y-102199616D01*
X97458627Y-102233963D01*
X97392443Y-102240481D01*
X97326260Y-102247000D01*
X97237740Y-102247000D01*
X97171557Y-102240481D01*
X97105373Y-102233963D01*
X96992147Y-102199616D01*
X96935533Y-102182443D01*
X96779011Y-102098779D01*
X96779009Y-102098778D01*
X96735400Y-102062989D01*
X96641814Y-101986186D01*
X96558552Y-101884729D01*
X96529222Y-101848991D01*
X96512634Y-101817958D01*
X96445557Y-101692467D01*
X96401597Y-101547549D01*
X96394037Y-101522627D01*
X96376641Y-101346000D01*
X96394037Y-101169373D01*
X96445557Y-100999534D01*
X96445557Y-100999533D01*
X96529221Y-100843011D01*
X96529222Y-100843009D01*
X96558593Y-100807221D01*
X96641814Y-100705814D01*
X96743271Y-100622552D01*
X96779009Y-100593222D01*
X96796913Y-100583652D01*
X96935533Y-100509557D01*
X96992147Y-100492384D01*
X97105373Y-100458037D01*
X97171557Y-100451519D01*
X97237740Y-100445000D01*
X97326260Y-100445000D01*
X97392443Y-100451519D01*
X97392443Y-100451519D01*
G37*
G36*
X116381821Y-98416313D02*
X116381824Y-98416314D01*
X116381825Y-98416314D01*
X116542239Y-98464975D01*
X116542241Y-98464976D01*
X116542244Y-98464977D01*
X116690078Y-98543995D01*
X116819659Y-98650341D01*
X116926005Y-98779922D01*
X117005023Y-98927756D01*
X117005024Y-98927759D01*
X117005025Y-98927761D01*
X117021668Y-98982627D01*
X117053687Y-99088179D01*
X117070117Y-99255000D01*
X117053687Y-99421821D01*
X117053686Y-99421824D01*
X117053686Y-99421825D01*
X117012142Y-99558779D01*
X117005023Y-99582244D01*
X116926005Y-99730078D01*
X116819659Y-99859659D01*
X116690078Y-99966005D01*
X116542244Y-100045023D01*
X116542241Y-100045024D01*
X116542239Y-100045025D01*
X116381825Y-100093686D01*
X116381824Y-100093686D01*
X116381821Y-100093687D01*
X116256804Y-100106000D01*
X116173196Y-100106000D01*
X116048179Y-100093687D01*
X116048176Y-100093686D01*
X116048175Y-100093686D01*
X115887761Y-100045025D01*
X115887759Y-100045024D01*
X115887756Y-100045023D01*
X115739922Y-99966005D01*
X115610341Y-99859659D01*
X115503995Y-99730078D01*
X115424977Y-99582244D01*
X115417859Y-99558779D01*
X115376314Y-99421825D01*
X115376314Y-99421824D01*
X115376313Y-99421821D01*
X115359883Y-99255000D01*
X115376313Y-99088179D01*
X115408332Y-98982627D01*
X115424975Y-98927761D01*
X115424976Y-98927759D01*
X115424977Y-98927756D01*
X115503995Y-98779922D01*
X115610341Y-98650341D01*
X115739922Y-98543995D01*
X115887756Y-98464977D01*
X115887759Y-98464976D01*
X115887761Y-98464975D01*
X116048175Y-98416314D01*
X116048176Y-98416314D01*
X116048179Y-98416313D01*
X116173196Y-98404000D01*
X116256804Y-98404000D01*
X116381821Y-98416313D01*
X116381821Y-98416313D01*
G37*
G36*
X101141821Y-98416313D02*
X101141824Y-98416314D01*
X101141825Y-98416314D01*
X101302239Y-98464975D01*
X101302241Y-98464976D01*
X101302244Y-98464977D01*
X101450078Y-98543995D01*
X101579659Y-98650341D01*
X101686005Y-98779922D01*
X101765023Y-98927756D01*
X101765024Y-98927759D01*
X101765025Y-98927761D01*
X101781668Y-98982627D01*
X101813687Y-99088179D01*
X101830117Y-99255000D01*
X101813687Y-99421821D01*
X101813686Y-99421824D01*
X101813686Y-99421825D01*
X101772142Y-99558779D01*
X101765023Y-99582244D01*
X101686005Y-99730078D01*
X101579659Y-99859659D01*
X101450078Y-99966005D01*
X101302244Y-100045023D01*
X101302241Y-100045024D01*
X101302239Y-100045025D01*
X101141825Y-100093686D01*
X101141824Y-100093686D01*
X101141821Y-100093687D01*
X101016804Y-100106000D01*
X100933196Y-100106000D01*
X100808179Y-100093687D01*
X100808176Y-100093686D01*
X100808175Y-100093686D01*
X100647761Y-100045025D01*
X100647759Y-100045024D01*
X100647756Y-100045023D01*
X100499922Y-99966005D01*
X100370341Y-99859659D01*
X100263995Y-99730078D01*
X100184977Y-99582244D01*
X100177859Y-99558779D01*
X100136314Y-99421825D01*
X100136314Y-99421824D01*
X100136313Y-99421821D01*
X100119883Y-99255000D01*
X100136313Y-99088179D01*
X100168332Y-98982627D01*
X100184975Y-98927761D01*
X100184976Y-98927759D01*
X100184977Y-98927756D01*
X100263995Y-98779922D01*
X100370341Y-98650341D01*
X100499922Y-98543995D01*
X100647756Y-98464977D01*
X100647759Y-98464976D01*
X100647761Y-98464975D01*
X100808175Y-98416314D01*
X100808176Y-98416314D01*
X100808179Y-98416313D01*
X100933196Y-98404000D01*
X101016804Y-98404000D01*
X101141821Y-98416313D01*
X101141821Y-98416313D01*
G37*
G36*
X120310443Y-98125519D02*
X120376627Y-98132037D01*
X120487975Y-98165814D01*
X120546467Y-98183557D01*
X120685087Y-98257652D01*
X120702991Y-98267222D01*
X120738729Y-98296552D01*
X120840186Y-98379814D01*
X120910076Y-98464977D01*
X120952778Y-98517009D01*
X120952779Y-98517011D01*
X121036443Y-98673533D01*
X121036443Y-98673534D01*
X121087963Y-98843373D01*
X121105359Y-99020000D01*
X121087963Y-99196627D01*
X121053878Y-99308989D01*
X121036443Y-99366467D01*
X120962348Y-99505087D01*
X120952778Y-99522991D01*
X120923448Y-99558729D01*
X120840186Y-99660186D01*
X120755021Y-99730078D01*
X120702991Y-99772778D01*
X120702989Y-99772779D01*
X120546467Y-99856443D01*
X120489853Y-99873616D01*
X120376627Y-99907963D01*
X120310443Y-99914481D01*
X120244260Y-99921000D01*
X120155740Y-99921000D01*
X120089557Y-99914481D01*
X120023373Y-99907963D01*
X119910147Y-99873616D01*
X119853533Y-99856443D01*
X119697011Y-99772779D01*
X119697009Y-99772778D01*
X119644979Y-99730078D01*
X119559814Y-99660186D01*
X119476552Y-99558729D01*
X119447222Y-99522991D01*
X119437652Y-99505087D01*
X119363557Y-99366467D01*
X119346122Y-99308989D01*
X119312037Y-99196627D01*
X119294641Y-99020000D01*
X119312037Y-98843373D01*
X119363557Y-98673534D01*
X119363557Y-98673533D01*
X119447221Y-98517011D01*
X119447222Y-98517009D01*
X119489924Y-98464977D01*
X119559814Y-98379814D01*
X119661271Y-98296552D01*
X119697009Y-98267222D01*
X119714913Y-98257652D01*
X119853533Y-98183557D01*
X119912025Y-98165814D01*
X120023373Y-98132037D01*
X120089557Y-98125519D01*
X120155740Y-98119000D01*
X120244260Y-98119000D01*
X120310443Y-98125519D01*
X120310443Y-98125519D01*
G37*
G36*
X97392442Y-97911518D02*
X97458627Y-97918037D01*
X97571853Y-97952384D01*
X97628467Y-97969557D01*
X97767087Y-98043652D01*
X97784991Y-98053222D01*
X97820729Y-98082552D01*
X97922186Y-98165814D01*
X98005407Y-98267221D01*
X98034778Y-98303009D01*
X98034779Y-98303011D01*
X98118443Y-98459533D01*
X98118443Y-98459534D01*
X98169963Y-98629373D01*
X98187359Y-98806000D01*
X98169963Y-98982627D01*
X98158626Y-99020000D01*
X98118443Y-99152467D01*
X98063637Y-99255000D01*
X98034778Y-99308991D01*
X98005448Y-99344729D01*
X97922186Y-99446186D01*
X97828600Y-99522989D01*
X97784991Y-99558778D01*
X97784989Y-99558779D01*
X97628467Y-99642443D01*
X97571853Y-99659616D01*
X97458627Y-99693963D01*
X97392442Y-99700482D01*
X97326260Y-99707000D01*
X97237740Y-99707000D01*
X97171558Y-99700482D01*
X97105373Y-99693963D01*
X96992147Y-99659616D01*
X96935533Y-99642443D01*
X96779011Y-99558779D01*
X96779009Y-99558778D01*
X96735400Y-99522989D01*
X96641814Y-99446186D01*
X96558552Y-99344729D01*
X96529222Y-99308991D01*
X96500363Y-99255000D01*
X96445557Y-99152467D01*
X96405374Y-99020000D01*
X96394037Y-98982627D01*
X96376641Y-98806000D01*
X96394037Y-98629373D01*
X96445557Y-98459534D01*
X96445557Y-98459533D01*
X96529221Y-98303011D01*
X96529222Y-98303009D01*
X96558593Y-98267221D01*
X96641814Y-98165814D01*
X96743271Y-98082552D01*
X96779009Y-98053222D01*
X96796913Y-98043652D01*
X96935533Y-97969557D01*
X96992147Y-97952384D01*
X97105373Y-97918037D01*
X97171558Y-97911518D01*
X97237740Y-97905000D01*
X97326260Y-97905000D01*
X97392442Y-97911518D01*
X97392442Y-97911518D01*
G37*
G36*
X116381821Y-95876313D02*
X116381824Y-95876314D01*
X116381825Y-95876314D01*
X116542239Y-95924975D01*
X116542241Y-95924976D01*
X116542244Y-95924977D01*
X116690078Y-96003995D01*
X116819659Y-96110341D01*
X116926005Y-96239922D01*
X117005023Y-96387756D01*
X117005024Y-96387759D01*
X117005025Y-96387761D01*
X117021668Y-96442627D01*
X117053687Y-96548179D01*
X117070117Y-96715000D01*
X117053687Y-96881821D01*
X117053686Y-96881824D01*
X117053686Y-96881825D01*
X117012142Y-97018779D01*
X117005023Y-97042244D01*
X116926005Y-97190078D01*
X116819659Y-97319659D01*
X116690078Y-97426005D01*
X116542244Y-97505023D01*
X116542241Y-97505024D01*
X116542239Y-97505025D01*
X116381825Y-97553686D01*
X116381824Y-97553686D01*
X116381821Y-97553687D01*
X116256804Y-97566000D01*
X116173196Y-97566000D01*
X116048179Y-97553687D01*
X116048176Y-97553686D01*
X116048175Y-97553686D01*
X115887761Y-97505025D01*
X115887759Y-97505024D01*
X115887756Y-97505023D01*
X115739922Y-97426005D01*
X115610341Y-97319659D01*
X115503995Y-97190078D01*
X115424977Y-97042244D01*
X115417859Y-97018779D01*
X115376314Y-96881825D01*
X115376314Y-96881824D01*
X115376313Y-96881821D01*
X115359883Y-96715000D01*
X115376313Y-96548179D01*
X115408332Y-96442627D01*
X115424975Y-96387761D01*
X115424976Y-96387759D01*
X115424977Y-96387756D01*
X115503995Y-96239922D01*
X115610341Y-96110341D01*
X115739922Y-96003995D01*
X115887756Y-95924977D01*
X115887759Y-95924976D01*
X115887761Y-95924975D01*
X116048175Y-95876314D01*
X116048176Y-95876314D01*
X116048179Y-95876313D01*
X116173196Y-95864000D01*
X116256804Y-95864000D01*
X116381821Y-95876313D01*
X116381821Y-95876313D01*
G37*
G36*
X101141821Y-95876313D02*
X101141824Y-95876314D01*
X101141825Y-95876314D01*
X101302239Y-95924975D01*
X101302241Y-95924976D01*
X101302244Y-95924977D01*
X101450078Y-96003995D01*
X101579659Y-96110341D01*
X101686005Y-96239922D01*
X101765023Y-96387756D01*
X101765024Y-96387759D01*
X101765025Y-96387761D01*
X101781668Y-96442627D01*
X101813687Y-96548179D01*
X101830117Y-96715000D01*
X101813687Y-96881821D01*
X101813686Y-96881824D01*
X101813686Y-96881825D01*
X101772142Y-97018779D01*
X101765023Y-97042244D01*
X101686005Y-97190078D01*
X101579659Y-97319659D01*
X101450078Y-97426005D01*
X101302244Y-97505023D01*
X101302241Y-97505024D01*
X101302239Y-97505025D01*
X101141825Y-97553686D01*
X101141824Y-97553686D01*
X101141821Y-97553687D01*
X101016804Y-97566000D01*
X100933196Y-97566000D01*
X100808179Y-97553687D01*
X100808176Y-97553686D01*
X100808175Y-97553686D01*
X100647761Y-97505025D01*
X100647759Y-97505024D01*
X100647756Y-97505023D01*
X100499922Y-97426005D01*
X100370341Y-97319659D01*
X100263995Y-97190078D01*
X100184977Y-97042244D01*
X100177859Y-97018779D01*
X100136314Y-96881825D01*
X100136314Y-96881824D01*
X100136313Y-96881821D01*
X100119883Y-96715000D01*
X100136313Y-96548179D01*
X100168332Y-96442627D01*
X100184975Y-96387761D01*
X100184976Y-96387759D01*
X100184977Y-96387756D01*
X100263995Y-96239922D01*
X100370341Y-96110341D01*
X100499922Y-96003995D01*
X100647756Y-95924977D01*
X100647759Y-95924976D01*
X100647761Y-95924975D01*
X100808175Y-95876314D01*
X100808176Y-95876314D01*
X100808179Y-95876313D01*
X100933196Y-95864000D01*
X101016804Y-95864000D01*
X101141821Y-95876313D01*
X101141821Y-95876313D01*
G37*
G36*
X120310443Y-95585519D02*
X120376627Y-95592037D01*
X120487975Y-95625814D01*
X120546467Y-95643557D01*
X120685087Y-95717652D01*
X120702991Y-95727222D01*
X120738729Y-95756552D01*
X120840186Y-95839814D01*
X120910076Y-95924977D01*
X120952778Y-95977009D01*
X120952779Y-95977011D01*
X121036443Y-96133533D01*
X121036443Y-96133534D01*
X121087963Y-96303373D01*
X121105359Y-96480000D01*
X121087963Y-96656627D01*
X121053878Y-96768989D01*
X121036443Y-96826467D01*
X120962348Y-96965087D01*
X120952778Y-96982991D01*
X120923448Y-97018729D01*
X120840186Y-97120186D01*
X120755021Y-97190078D01*
X120702991Y-97232778D01*
X120702989Y-97232779D01*
X120546467Y-97316443D01*
X120489853Y-97333616D01*
X120376627Y-97367963D01*
X120310443Y-97374481D01*
X120244260Y-97381000D01*
X120155740Y-97381000D01*
X120089558Y-97374482D01*
X120023373Y-97367963D01*
X119910147Y-97333616D01*
X119853533Y-97316443D01*
X119697011Y-97232779D01*
X119697009Y-97232778D01*
X119644979Y-97190078D01*
X119559814Y-97120186D01*
X119476552Y-97018729D01*
X119447222Y-96982991D01*
X119437652Y-96965087D01*
X119363557Y-96826467D01*
X119346122Y-96768989D01*
X119312037Y-96656627D01*
X119294641Y-96480000D01*
X119312037Y-96303373D01*
X119363557Y-96133534D01*
X119363557Y-96133533D01*
X119447221Y-95977011D01*
X119447222Y-95977009D01*
X119489924Y-95924977D01*
X119559814Y-95839814D01*
X119661271Y-95756552D01*
X119697009Y-95727222D01*
X119714913Y-95717652D01*
X119853533Y-95643557D01*
X119912025Y-95625814D01*
X120023373Y-95592037D01*
X120089558Y-95585518D01*
X120155740Y-95579000D01*
X120244260Y-95579000D01*
X120310443Y-95585519D01*
X120310443Y-95585519D01*
G37*
G36*
X97392443Y-95371519D02*
X97458627Y-95378037D01*
X97571853Y-95412384D01*
X97628467Y-95429557D01*
X97767087Y-95503652D01*
X97784991Y-95513222D01*
X97820729Y-95542552D01*
X97922186Y-95625814D01*
X98005407Y-95727221D01*
X98034778Y-95763009D01*
X98034779Y-95763011D01*
X98118443Y-95919533D01*
X98118443Y-95919534D01*
X98169963Y-96089373D01*
X98187359Y-96266000D01*
X98169963Y-96442627D01*
X98158626Y-96480000D01*
X98118443Y-96612467D01*
X98063637Y-96715000D01*
X98034778Y-96768991D01*
X98005448Y-96804729D01*
X97922186Y-96906186D01*
X97828600Y-96982989D01*
X97784991Y-97018778D01*
X97784989Y-97018779D01*
X97628467Y-97102443D01*
X97571853Y-97119616D01*
X97458627Y-97153963D01*
X97392443Y-97160481D01*
X97326260Y-97167000D01*
X97237740Y-97167000D01*
X97171557Y-97160481D01*
X97105373Y-97153963D01*
X96992147Y-97119616D01*
X96935533Y-97102443D01*
X96779011Y-97018779D01*
X96779009Y-97018778D01*
X96735400Y-96982989D01*
X96641814Y-96906186D01*
X96558552Y-96804729D01*
X96529222Y-96768991D01*
X96500363Y-96715000D01*
X96445557Y-96612467D01*
X96405374Y-96480000D01*
X96394037Y-96442627D01*
X96376641Y-96266000D01*
X96394037Y-96089373D01*
X96445557Y-95919534D01*
X96445557Y-95919533D01*
X96529221Y-95763011D01*
X96529222Y-95763009D01*
X96558593Y-95727221D01*
X96641814Y-95625814D01*
X96743271Y-95542552D01*
X96779009Y-95513222D01*
X96796913Y-95503652D01*
X96935533Y-95429557D01*
X96992147Y-95412384D01*
X97105373Y-95378037D01*
X97171557Y-95371519D01*
X97237740Y-95365000D01*
X97326260Y-95365000D01*
X97392443Y-95371519D01*
X97392443Y-95371519D01*
G37*
G36*
X101141821Y-93336313D02*
X101141824Y-93336314D01*
X101141825Y-93336314D01*
X101302239Y-93384975D01*
X101302241Y-93384976D01*
X101302244Y-93384977D01*
X101450078Y-93463995D01*
X101579659Y-93570341D01*
X101686005Y-93699922D01*
X101765023Y-93847756D01*
X101765024Y-93847759D01*
X101765025Y-93847761D01*
X101781668Y-93902627D01*
X101813687Y-94008179D01*
X101830117Y-94175000D01*
X101813687Y-94341821D01*
X101813686Y-94341824D01*
X101813686Y-94341825D01*
X101772142Y-94478779D01*
X101765023Y-94502244D01*
X101686005Y-94650078D01*
X101579659Y-94779659D01*
X101450078Y-94886005D01*
X101302244Y-94965023D01*
X101302241Y-94965024D01*
X101302239Y-94965025D01*
X101141825Y-95013686D01*
X101141824Y-95013686D01*
X101141821Y-95013687D01*
X101016804Y-95026000D01*
X100933196Y-95026000D01*
X100808179Y-95013687D01*
X100808176Y-95013686D01*
X100808175Y-95013686D01*
X100647761Y-94965025D01*
X100647759Y-94965024D01*
X100647756Y-94965023D01*
X100499922Y-94886005D01*
X100370341Y-94779659D01*
X100263995Y-94650078D01*
X100184977Y-94502244D01*
X100177859Y-94478779D01*
X100136314Y-94341825D01*
X100136314Y-94341824D01*
X100136313Y-94341821D01*
X100119883Y-94175000D01*
X100136313Y-94008179D01*
X100168332Y-93902627D01*
X100184975Y-93847761D01*
X100184976Y-93847759D01*
X100184977Y-93847756D01*
X100263995Y-93699922D01*
X100370341Y-93570341D01*
X100499922Y-93463995D01*
X100647756Y-93384977D01*
X100647759Y-93384976D01*
X100647761Y-93384975D01*
X100808175Y-93336314D01*
X100808176Y-93336314D01*
X100808179Y-93336313D01*
X100933196Y-93324000D01*
X101016804Y-93324000D01*
X101141821Y-93336313D01*
X101141821Y-93336313D01*
G37*
G36*
X116381821Y-93336313D02*
X116381824Y-93336314D01*
X116381825Y-93336314D01*
X116542239Y-93384975D01*
X116542241Y-93384976D01*
X116542244Y-93384977D01*
X116690078Y-93463995D01*
X116819659Y-93570341D01*
X116926005Y-93699922D01*
X117005023Y-93847756D01*
X117005024Y-93847759D01*
X117005025Y-93847761D01*
X117021668Y-93902627D01*
X117053687Y-94008179D01*
X117070117Y-94175000D01*
X117053687Y-94341821D01*
X117053686Y-94341824D01*
X117053686Y-94341825D01*
X117012142Y-94478779D01*
X117005023Y-94502244D01*
X116926005Y-94650078D01*
X116819659Y-94779659D01*
X116690078Y-94886005D01*
X116542244Y-94965023D01*
X116542241Y-94965024D01*
X116542239Y-94965025D01*
X116381825Y-95013686D01*
X116381824Y-95013686D01*
X116381821Y-95013687D01*
X116256804Y-95026000D01*
X116173196Y-95026000D01*
X116048179Y-95013687D01*
X116048176Y-95013686D01*
X116048175Y-95013686D01*
X115887761Y-94965025D01*
X115887759Y-94965024D01*
X115887756Y-94965023D01*
X115739922Y-94886005D01*
X115610341Y-94779659D01*
X115503995Y-94650078D01*
X115424977Y-94502244D01*
X115417859Y-94478779D01*
X115376314Y-94341825D01*
X115376314Y-94341824D01*
X115376313Y-94341821D01*
X115359883Y-94175000D01*
X115376313Y-94008179D01*
X115408332Y-93902627D01*
X115424975Y-93847761D01*
X115424976Y-93847759D01*
X115424977Y-93847756D01*
X115503995Y-93699922D01*
X115610341Y-93570341D01*
X115739922Y-93463995D01*
X115887756Y-93384977D01*
X115887759Y-93384976D01*
X115887761Y-93384975D01*
X116048175Y-93336314D01*
X116048176Y-93336314D01*
X116048179Y-93336313D01*
X116173196Y-93324000D01*
X116256804Y-93324000D01*
X116381821Y-93336313D01*
X116381821Y-93336313D01*
G37*
G36*
X120310442Y-93045518D02*
X120376627Y-93052037D01*
X120487975Y-93085814D01*
X120546467Y-93103557D01*
X120685087Y-93177652D01*
X120702991Y-93187222D01*
X120738729Y-93216552D01*
X120840186Y-93299814D01*
X120910076Y-93384977D01*
X120952778Y-93437009D01*
X120952779Y-93437011D01*
X121036443Y-93593533D01*
X121036443Y-93593534D01*
X121087963Y-93763373D01*
X121105359Y-93940000D01*
X121087963Y-94116627D01*
X121053878Y-94228989D01*
X121036443Y-94286467D01*
X120962348Y-94425087D01*
X120952778Y-94442991D01*
X120923448Y-94478729D01*
X120840186Y-94580186D01*
X120755021Y-94650078D01*
X120702991Y-94692778D01*
X120702989Y-94692779D01*
X120546467Y-94776443D01*
X120489853Y-94793616D01*
X120376627Y-94827963D01*
X120310443Y-94834481D01*
X120244260Y-94841000D01*
X120155740Y-94841000D01*
X120089557Y-94834481D01*
X120023373Y-94827963D01*
X119910147Y-94793616D01*
X119853533Y-94776443D01*
X119697011Y-94692779D01*
X119697009Y-94692778D01*
X119644979Y-94650078D01*
X119559814Y-94580186D01*
X119476552Y-94478729D01*
X119447222Y-94442991D01*
X119437652Y-94425087D01*
X119363557Y-94286467D01*
X119346122Y-94228989D01*
X119312037Y-94116627D01*
X119294641Y-93940000D01*
X119312037Y-93763373D01*
X119363557Y-93593534D01*
X119363557Y-93593533D01*
X119447221Y-93437011D01*
X119447222Y-93437009D01*
X119489924Y-93384977D01*
X119559814Y-93299814D01*
X119661271Y-93216552D01*
X119697009Y-93187222D01*
X119714913Y-93177652D01*
X119853533Y-93103557D01*
X119912025Y-93085814D01*
X120023373Y-93052037D01*
X120089558Y-93045518D01*
X120155740Y-93039000D01*
X120244260Y-93039000D01*
X120310442Y-93045518D01*
X120310442Y-93045518D01*
G37*
G36*
X97392442Y-92831518D02*
X97458627Y-92838037D01*
X97571853Y-92872384D01*
X97628467Y-92889557D01*
X97767087Y-92963652D01*
X97784991Y-92973222D01*
X97820729Y-93002552D01*
X97922186Y-93085814D01*
X98005407Y-93187221D01*
X98034778Y-93223009D01*
X98034779Y-93223011D01*
X98118443Y-93379533D01*
X98118443Y-93379534D01*
X98169963Y-93549373D01*
X98187359Y-93726000D01*
X98169963Y-93902627D01*
X98158626Y-93940000D01*
X98118443Y-94072467D01*
X98063637Y-94175000D01*
X98034778Y-94228991D01*
X98005448Y-94264729D01*
X97922186Y-94366186D01*
X97828600Y-94442989D01*
X97784991Y-94478778D01*
X97784989Y-94478779D01*
X97628467Y-94562443D01*
X97571853Y-94579616D01*
X97458627Y-94613963D01*
X97392443Y-94620481D01*
X97326260Y-94627000D01*
X97237740Y-94627000D01*
X97171557Y-94620481D01*
X97105373Y-94613963D01*
X96992147Y-94579616D01*
X96935533Y-94562443D01*
X96779011Y-94478779D01*
X96779009Y-94478778D01*
X96735400Y-94442989D01*
X96641814Y-94366186D01*
X96558552Y-94264729D01*
X96529222Y-94228991D01*
X96500363Y-94175000D01*
X96445557Y-94072467D01*
X96405374Y-93940000D01*
X96394037Y-93902627D01*
X96376641Y-93726000D01*
X96394037Y-93549373D01*
X96445557Y-93379534D01*
X96445557Y-93379533D01*
X96529221Y-93223011D01*
X96529222Y-93223009D01*
X96558593Y-93187221D01*
X96641814Y-93085814D01*
X96743271Y-93002552D01*
X96779009Y-92973222D01*
X96796913Y-92963652D01*
X96935533Y-92889557D01*
X96992147Y-92872384D01*
X97105373Y-92838037D01*
X97171558Y-92831518D01*
X97237740Y-92825000D01*
X97326260Y-92825000D01*
X97392442Y-92831518D01*
X97392442Y-92831518D01*
G37*
G36*
X101141821Y-90796313D02*
X101141824Y-90796314D01*
X101141825Y-90796314D01*
X101302239Y-90844975D01*
X101302241Y-90844976D01*
X101302244Y-90844977D01*
X101450078Y-90923995D01*
X101579659Y-91030341D01*
X101686005Y-91159922D01*
X101765023Y-91307756D01*
X101765024Y-91307759D01*
X101765025Y-91307761D01*
X101781668Y-91362627D01*
X101813687Y-91468179D01*
X101830117Y-91635000D01*
X101813687Y-91801821D01*
X101813686Y-91801824D01*
X101813686Y-91801825D01*
X101772142Y-91938779D01*
X101765023Y-91962244D01*
X101686005Y-92110078D01*
X101579659Y-92239659D01*
X101450078Y-92346005D01*
X101302244Y-92425023D01*
X101302241Y-92425024D01*
X101302239Y-92425025D01*
X101141825Y-92473686D01*
X101141824Y-92473686D01*
X101141821Y-92473687D01*
X101016804Y-92486000D01*
X100933196Y-92486000D01*
X100808179Y-92473687D01*
X100808176Y-92473686D01*
X100808175Y-92473686D01*
X100647761Y-92425025D01*
X100647759Y-92425024D01*
X100647756Y-92425023D01*
X100499922Y-92346005D01*
X100370341Y-92239659D01*
X100263995Y-92110078D01*
X100184977Y-91962244D01*
X100177859Y-91938779D01*
X100136314Y-91801825D01*
X100136314Y-91801824D01*
X100136313Y-91801821D01*
X100119883Y-91635000D01*
X100136313Y-91468179D01*
X100168332Y-91362627D01*
X100184975Y-91307761D01*
X100184976Y-91307759D01*
X100184977Y-91307756D01*
X100263995Y-91159922D01*
X100370341Y-91030341D01*
X100499922Y-90923995D01*
X100647756Y-90844977D01*
X100647759Y-90844976D01*
X100647761Y-90844975D01*
X100808175Y-90796314D01*
X100808176Y-90796314D01*
X100808179Y-90796313D01*
X100933196Y-90784000D01*
X101016804Y-90784000D01*
X101141821Y-90796313D01*
X101141821Y-90796313D01*
G37*
G36*
X116381821Y-90796313D02*
X116381824Y-90796314D01*
X116381825Y-90796314D01*
X116542239Y-90844975D01*
X116542241Y-90844976D01*
X116542244Y-90844977D01*
X116690078Y-90923995D01*
X116819659Y-91030341D01*
X116926005Y-91159922D01*
X117005023Y-91307756D01*
X117005024Y-91307759D01*
X117005025Y-91307761D01*
X117021668Y-91362627D01*
X117053687Y-91468179D01*
X117070117Y-91635000D01*
X117053687Y-91801821D01*
X117053686Y-91801824D01*
X117053686Y-91801825D01*
X117012142Y-91938779D01*
X117005023Y-91962244D01*
X116926005Y-92110078D01*
X116819659Y-92239659D01*
X116690078Y-92346005D01*
X116542244Y-92425023D01*
X116542241Y-92425024D01*
X116542239Y-92425025D01*
X116381825Y-92473686D01*
X116381824Y-92473686D01*
X116381821Y-92473687D01*
X116256804Y-92486000D01*
X116173196Y-92486000D01*
X116048179Y-92473687D01*
X116048176Y-92473686D01*
X116048175Y-92473686D01*
X115887761Y-92425025D01*
X115887759Y-92425024D01*
X115887756Y-92425023D01*
X115739922Y-92346005D01*
X115610341Y-92239659D01*
X115503995Y-92110078D01*
X115424977Y-91962244D01*
X115417859Y-91938779D01*
X115376314Y-91801825D01*
X115376314Y-91801824D01*
X115376313Y-91801821D01*
X115359883Y-91635000D01*
X115376313Y-91468179D01*
X115408332Y-91362627D01*
X115424975Y-91307761D01*
X115424976Y-91307759D01*
X115424977Y-91307756D01*
X115503995Y-91159922D01*
X115610341Y-91030341D01*
X115739922Y-90923995D01*
X115887756Y-90844977D01*
X115887759Y-90844976D01*
X115887761Y-90844975D01*
X116048175Y-90796314D01*
X116048176Y-90796314D01*
X116048179Y-90796313D01*
X116173196Y-90784000D01*
X116256804Y-90784000D01*
X116381821Y-90796313D01*
X116381821Y-90796313D01*
G37*
G36*
X120310442Y-90505518D02*
X120376627Y-90512037D01*
X120487975Y-90545814D01*
X120546467Y-90563557D01*
X120685087Y-90637652D01*
X120702991Y-90647222D01*
X120738729Y-90676552D01*
X120840186Y-90759814D01*
X120910076Y-90844977D01*
X120952778Y-90897009D01*
X120952779Y-90897011D01*
X121036443Y-91053533D01*
X121036443Y-91053534D01*
X121087963Y-91223373D01*
X121105359Y-91400000D01*
X121087963Y-91576627D01*
X121053878Y-91688989D01*
X121036443Y-91746467D01*
X120962348Y-91885087D01*
X120952778Y-91902991D01*
X120923448Y-91938729D01*
X120840186Y-92040186D01*
X120755021Y-92110078D01*
X120702991Y-92152778D01*
X120702989Y-92152779D01*
X120546467Y-92236443D01*
X120489853Y-92253616D01*
X120376627Y-92287963D01*
X120310442Y-92294482D01*
X120244260Y-92301000D01*
X120155740Y-92301000D01*
X120089558Y-92294482D01*
X120023373Y-92287963D01*
X119910147Y-92253616D01*
X119853533Y-92236443D01*
X119697011Y-92152779D01*
X119697009Y-92152778D01*
X119644979Y-92110078D01*
X119559814Y-92040186D01*
X119476552Y-91938729D01*
X119447222Y-91902991D01*
X119437652Y-91885087D01*
X119363557Y-91746467D01*
X119346122Y-91688989D01*
X119312037Y-91576627D01*
X119294641Y-91400000D01*
X119312037Y-91223373D01*
X119363557Y-91053534D01*
X119363557Y-91053533D01*
X119447221Y-90897011D01*
X119447222Y-90897009D01*
X119489924Y-90844977D01*
X119559814Y-90759814D01*
X119661271Y-90676552D01*
X119697009Y-90647222D01*
X119714913Y-90637652D01*
X119853533Y-90563557D01*
X119912025Y-90545814D01*
X120023373Y-90512037D01*
X120089558Y-90505518D01*
X120155740Y-90499000D01*
X120244260Y-90499000D01*
X120310442Y-90505518D01*
X120310442Y-90505518D01*
G37*
G36*
X97392443Y-90291519D02*
X97458627Y-90298037D01*
X97571853Y-90332384D01*
X97628467Y-90349557D01*
X97767087Y-90423652D01*
X97784991Y-90433222D01*
X97820729Y-90462552D01*
X97922186Y-90545814D01*
X98005407Y-90647221D01*
X98034778Y-90683009D01*
X98034779Y-90683011D01*
X98118443Y-90839533D01*
X98118443Y-90839534D01*
X98169963Y-91009373D01*
X98187359Y-91186000D01*
X98169963Y-91362627D01*
X98158626Y-91400000D01*
X98118443Y-91532467D01*
X98063637Y-91635000D01*
X98034778Y-91688991D01*
X98005448Y-91724729D01*
X97922186Y-91826186D01*
X97828600Y-91902989D01*
X97784991Y-91938778D01*
X97784989Y-91938779D01*
X97628467Y-92022443D01*
X97571853Y-92039616D01*
X97458627Y-92073963D01*
X97392443Y-92080481D01*
X97326260Y-92087000D01*
X97237740Y-92087000D01*
X97171557Y-92080481D01*
X97105373Y-92073963D01*
X96992147Y-92039616D01*
X96935533Y-92022443D01*
X96779011Y-91938779D01*
X96779009Y-91938778D01*
X96735400Y-91902989D01*
X96641814Y-91826186D01*
X96558552Y-91724729D01*
X96529222Y-91688991D01*
X96500363Y-91635000D01*
X96445557Y-91532467D01*
X96405374Y-91400000D01*
X96394037Y-91362627D01*
X96376641Y-91186000D01*
X96394037Y-91009373D01*
X96445557Y-90839534D01*
X96445557Y-90839533D01*
X96529221Y-90683011D01*
X96529222Y-90683009D01*
X96558593Y-90647221D01*
X96641814Y-90545814D01*
X96743271Y-90462552D01*
X96779009Y-90433222D01*
X96796913Y-90423652D01*
X96935533Y-90349557D01*
X96992147Y-90332384D01*
X97105373Y-90298037D01*
X97171557Y-90291519D01*
X97237740Y-90285000D01*
X97326260Y-90285000D01*
X97392443Y-90291519D01*
X97392443Y-90291519D01*
G37*
G36*
X101141821Y-88256313D02*
X101141824Y-88256314D01*
X101141825Y-88256314D01*
X101302239Y-88304975D01*
X101302241Y-88304976D01*
X101302244Y-88304977D01*
X101450078Y-88383995D01*
X101579659Y-88490341D01*
X101686005Y-88619922D01*
X101765023Y-88767756D01*
X101765024Y-88767759D01*
X101765025Y-88767761D01*
X101781668Y-88822627D01*
X101813687Y-88928179D01*
X101830117Y-89095000D01*
X101813687Y-89261821D01*
X101813686Y-89261824D01*
X101813686Y-89261825D01*
X101772142Y-89398779D01*
X101765023Y-89422244D01*
X101686005Y-89570078D01*
X101579659Y-89699659D01*
X101450078Y-89806005D01*
X101302244Y-89885023D01*
X101302241Y-89885024D01*
X101302239Y-89885025D01*
X101141825Y-89933686D01*
X101141824Y-89933686D01*
X101141821Y-89933687D01*
X101016804Y-89946000D01*
X100933196Y-89946000D01*
X100808179Y-89933687D01*
X100808176Y-89933686D01*
X100808175Y-89933686D01*
X100647761Y-89885025D01*
X100647759Y-89885024D01*
X100647756Y-89885023D01*
X100499922Y-89806005D01*
X100370341Y-89699659D01*
X100263995Y-89570078D01*
X100184977Y-89422244D01*
X100177859Y-89398779D01*
X100136314Y-89261825D01*
X100136314Y-89261824D01*
X100136313Y-89261821D01*
X100119883Y-89095000D01*
X100136313Y-88928179D01*
X100168332Y-88822627D01*
X100184975Y-88767761D01*
X100184976Y-88767759D01*
X100184977Y-88767756D01*
X100263995Y-88619922D01*
X100370341Y-88490341D01*
X100499922Y-88383995D01*
X100647756Y-88304977D01*
X100647759Y-88304976D01*
X100647761Y-88304975D01*
X100808175Y-88256314D01*
X100808176Y-88256314D01*
X100808179Y-88256313D01*
X100933196Y-88244000D01*
X101016804Y-88244000D01*
X101141821Y-88256313D01*
X101141821Y-88256313D01*
G37*
G36*
X116381821Y-88256313D02*
X116381824Y-88256314D01*
X116381825Y-88256314D01*
X116542239Y-88304975D01*
X116542241Y-88304976D01*
X116542244Y-88304977D01*
X116690078Y-88383995D01*
X116819659Y-88490341D01*
X116926005Y-88619922D01*
X117005023Y-88767756D01*
X117005024Y-88767759D01*
X117005025Y-88767761D01*
X117021668Y-88822627D01*
X117053687Y-88928179D01*
X117070117Y-89095000D01*
X117053687Y-89261821D01*
X117053686Y-89261824D01*
X117053686Y-89261825D01*
X117012142Y-89398779D01*
X117005023Y-89422244D01*
X116926005Y-89570078D01*
X116819659Y-89699659D01*
X116690078Y-89806005D01*
X116542244Y-89885023D01*
X116542241Y-89885024D01*
X116542239Y-89885025D01*
X116381825Y-89933686D01*
X116381824Y-89933686D01*
X116381821Y-89933687D01*
X116256804Y-89946000D01*
X116173196Y-89946000D01*
X116048179Y-89933687D01*
X116048176Y-89933686D01*
X116048175Y-89933686D01*
X115887761Y-89885025D01*
X115887759Y-89885024D01*
X115887756Y-89885023D01*
X115739922Y-89806005D01*
X115610341Y-89699659D01*
X115503995Y-89570078D01*
X115424977Y-89422244D01*
X115417859Y-89398779D01*
X115376314Y-89261825D01*
X115376314Y-89261824D01*
X115376313Y-89261821D01*
X115359883Y-89095000D01*
X115376313Y-88928179D01*
X115408332Y-88822627D01*
X115424975Y-88767761D01*
X115424976Y-88767759D01*
X115424977Y-88767756D01*
X115503995Y-88619922D01*
X115610341Y-88490341D01*
X115739922Y-88383995D01*
X115887756Y-88304977D01*
X115887759Y-88304976D01*
X115887761Y-88304975D01*
X116048175Y-88256314D01*
X116048176Y-88256314D01*
X116048179Y-88256313D01*
X116173196Y-88244000D01*
X116256804Y-88244000D01*
X116381821Y-88256313D01*
X116381821Y-88256313D01*
G37*
G36*
X120310443Y-87965519D02*
X120376627Y-87972037D01*
X120487975Y-88005814D01*
X120546467Y-88023557D01*
X120685087Y-88097652D01*
X120702991Y-88107222D01*
X120738729Y-88136552D01*
X120840186Y-88219814D01*
X120910076Y-88304977D01*
X120952778Y-88357009D01*
X120952779Y-88357011D01*
X121036443Y-88513533D01*
X121036443Y-88513534D01*
X121087963Y-88683373D01*
X121105359Y-88860000D01*
X121087963Y-89036627D01*
X121053878Y-89148989D01*
X121036443Y-89206467D01*
X120962348Y-89345087D01*
X120952778Y-89362991D01*
X120923448Y-89398729D01*
X120840186Y-89500186D01*
X120755021Y-89570078D01*
X120702991Y-89612778D01*
X120702989Y-89612779D01*
X120546467Y-89696443D01*
X120489853Y-89713616D01*
X120376627Y-89747963D01*
X120310443Y-89754481D01*
X120244260Y-89761000D01*
X120155740Y-89761000D01*
X120089557Y-89754481D01*
X120023373Y-89747963D01*
X119910147Y-89713616D01*
X119853533Y-89696443D01*
X119697011Y-89612779D01*
X119697009Y-89612778D01*
X119644979Y-89570078D01*
X119559814Y-89500186D01*
X119476552Y-89398729D01*
X119447222Y-89362991D01*
X119437652Y-89345087D01*
X119363557Y-89206467D01*
X119346122Y-89148989D01*
X119312037Y-89036627D01*
X119294641Y-88860000D01*
X119312037Y-88683373D01*
X119363557Y-88513534D01*
X119363557Y-88513533D01*
X119447221Y-88357011D01*
X119447222Y-88357009D01*
X119489924Y-88304977D01*
X119559814Y-88219814D01*
X119661271Y-88136552D01*
X119697009Y-88107222D01*
X119714913Y-88097652D01*
X119853533Y-88023557D01*
X119912025Y-88005814D01*
X120023373Y-87972037D01*
X120089557Y-87965519D01*
X120155740Y-87959000D01*
X120244260Y-87959000D01*
X120310443Y-87965519D01*
X120310443Y-87965519D01*
G37*
G36*
X97392442Y-87751518D02*
X97458627Y-87758037D01*
X97571853Y-87792384D01*
X97628467Y-87809557D01*
X97767087Y-87883652D01*
X97784991Y-87893222D01*
X97820729Y-87922552D01*
X97922186Y-88005814D01*
X98005407Y-88107221D01*
X98034778Y-88143009D01*
X98034779Y-88143011D01*
X98118443Y-88299533D01*
X98118443Y-88299534D01*
X98169963Y-88469373D01*
X98187359Y-88646000D01*
X98169963Y-88822627D01*
X98158626Y-88860000D01*
X98118443Y-88992467D01*
X98063637Y-89095000D01*
X98034778Y-89148991D01*
X98005448Y-89184729D01*
X97922186Y-89286186D01*
X97828600Y-89362989D01*
X97784991Y-89398778D01*
X97784989Y-89398779D01*
X97628467Y-89482443D01*
X97571853Y-89499616D01*
X97458627Y-89533963D01*
X97392442Y-89540482D01*
X97326260Y-89547000D01*
X97237740Y-89547000D01*
X97171558Y-89540482D01*
X97105373Y-89533963D01*
X96992147Y-89499616D01*
X96935533Y-89482443D01*
X96779011Y-89398779D01*
X96779009Y-89398778D01*
X96735400Y-89362989D01*
X96641814Y-89286186D01*
X96558552Y-89184729D01*
X96529222Y-89148991D01*
X96500363Y-89095000D01*
X96445557Y-88992467D01*
X96405374Y-88860000D01*
X96394037Y-88822627D01*
X96376641Y-88646000D01*
X96394037Y-88469373D01*
X96445557Y-88299534D01*
X96445557Y-88299533D01*
X96529221Y-88143011D01*
X96529222Y-88143009D01*
X96558593Y-88107221D01*
X96641814Y-88005814D01*
X96743271Y-87922552D01*
X96779009Y-87893222D01*
X96796913Y-87883652D01*
X96935533Y-87809557D01*
X96992147Y-87792384D01*
X97105373Y-87758037D01*
X97171558Y-87751518D01*
X97237740Y-87745000D01*
X97326260Y-87745000D01*
X97392442Y-87751518D01*
X97392442Y-87751518D01*
G37*
G36*
X116381821Y-85716313D02*
X116381824Y-85716314D01*
X116381825Y-85716314D01*
X116542239Y-85764975D01*
X116542241Y-85764976D01*
X116542244Y-85764977D01*
X116690078Y-85843995D01*
X116819659Y-85950341D01*
X116926005Y-86079922D01*
X117005023Y-86227756D01*
X117005024Y-86227759D01*
X117005025Y-86227761D01*
X117021668Y-86282627D01*
X117053687Y-86388179D01*
X117070117Y-86555000D01*
X117053687Y-86721821D01*
X117053686Y-86721824D01*
X117053686Y-86721825D01*
X117012142Y-86858779D01*
X117005023Y-86882244D01*
X116926005Y-87030078D01*
X116819659Y-87159659D01*
X116690078Y-87266005D01*
X116542244Y-87345023D01*
X116542241Y-87345024D01*
X116542239Y-87345025D01*
X116381825Y-87393686D01*
X116381824Y-87393686D01*
X116381821Y-87393687D01*
X116256804Y-87406000D01*
X116173196Y-87406000D01*
X116048179Y-87393687D01*
X116048176Y-87393686D01*
X116048175Y-87393686D01*
X115887761Y-87345025D01*
X115887759Y-87345024D01*
X115887756Y-87345023D01*
X115739922Y-87266005D01*
X115610341Y-87159659D01*
X115503995Y-87030078D01*
X115424977Y-86882244D01*
X115417859Y-86858779D01*
X115376314Y-86721825D01*
X115376314Y-86721824D01*
X115376313Y-86721821D01*
X115359883Y-86555000D01*
X115376313Y-86388179D01*
X115408332Y-86282627D01*
X115424975Y-86227761D01*
X115424976Y-86227759D01*
X115424977Y-86227756D01*
X115503995Y-86079922D01*
X115610341Y-85950341D01*
X115739922Y-85843995D01*
X115887756Y-85764977D01*
X115887759Y-85764976D01*
X115887761Y-85764975D01*
X116048175Y-85716314D01*
X116048176Y-85716314D01*
X116048179Y-85716313D01*
X116173196Y-85704000D01*
X116256804Y-85704000D01*
X116381821Y-85716313D01*
X116381821Y-85716313D01*
G37*
G36*
X101141821Y-85716313D02*
X101141824Y-85716314D01*
X101141825Y-85716314D01*
X101302239Y-85764975D01*
X101302241Y-85764976D01*
X101302244Y-85764977D01*
X101450078Y-85843995D01*
X101579659Y-85950341D01*
X101686005Y-86079922D01*
X101765023Y-86227756D01*
X101765024Y-86227759D01*
X101765025Y-86227761D01*
X101781668Y-86282627D01*
X101813687Y-86388179D01*
X101830117Y-86555000D01*
X101813687Y-86721821D01*
X101813686Y-86721824D01*
X101813686Y-86721825D01*
X101772142Y-86858779D01*
X101765023Y-86882244D01*
X101686005Y-87030078D01*
X101579659Y-87159659D01*
X101450078Y-87266005D01*
X101302244Y-87345023D01*
X101302241Y-87345024D01*
X101302239Y-87345025D01*
X101141825Y-87393686D01*
X101141824Y-87393686D01*
X101141821Y-87393687D01*
X101016804Y-87406000D01*
X100933196Y-87406000D01*
X100808179Y-87393687D01*
X100808176Y-87393686D01*
X100808175Y-87393686D01*
X100647761Y-87345025D01*
X100647759Y-87345024D01*
X100647756Y-87345023D01*
X100499922Y-87266005D01*
X100370341Y-87159659D01*
X100263995Y-87030078D01*
X100184977Y-86882244D01*
X100177859Y-86858779D01*
X100136314Y-86721825D01*
X100136314Y-86721824D01*
X100136313Y-86721821D01*
X100119883Y-86555000D01*
X100136313Y-86388179D01*
X100168332Y-86282627D01*
X100184975Y-86227761D01*
X100184976Y-86227759D01*
X100184977Y-86227756D01*
X100263995Y-86079922D01*
X100370341Y-85950341D01*
X100499922Y-85843995D01*
X100647756Y-85764977D01*
X100647759Y-85764976D01*
X100647761Y-85764975D01*
X100808175Y-85716314D01*
X100808176Y-85716314D01*
X100808179Y-85716313D01*
X100933196Y-85704000D01*
X101016804Y-85704000D01*
X101141821Y-85716313D01*
X101141821Y-85716313D01*
G37*
G36*
X97392443Y-85211519D02*
X97458627Y-85218037D01*
X97571853Y-85252384D01*
X97628467Y-85269557D01*
X97672334Y-85293005D01*
X97784991Y-85353222D01*
X97807900Y-85372023D01*
X97922186Y-85465814D01*
X98005448Y-85567271D01*
X98034778Y-85603009D01*
X98034779Y-85603011D01*
X98118443Y-85759533D01*
X98118443Y-85759534D01*
X98169963Y-85929373D01*
X98187359Y-86106000D01*
X98169963Y-86282627D01*
X98137945Y-86388175D01*
X98118443Y-86452467D01*
X98063637Y-86555000D01*
X98034778Y-86608991D01*
X98005448Y-86644729D01*
X97922186Y-86746186D01*
X97820729Y-86829448D01*
X97784991Y-86858778D01*
X97784989Y-86858779D01*
X97628467Y-86942443D01*
X97571853Y-86959616D01*
X97458627Y-86993963D01*
X97392442Y-87000482D01*
X97326260Y-87007000D01*
X97237740Y-87007000D01*
X97171558Y-87000482D01*
X97105373Y-86993963D01*
X96992147Y-86959616D01*
X96935533Y-86942443D01*
X96779011Y-86858779D01*
X96779009Y-86858778D01*
X96743271Y-86829448D01*
X96641814Y-86746186D01*
X96558552Y-86644729D01*
X96529222Y-86608991D01*
X96500363Y-86555000D01*
X96445557Y-86452467D01*
X96426055Y-86388175D01*
X96394037Y-86282627D01*
X96376641Y-86106000D01*
X96394037Y-85929373D01*
X96445557Y-85759534D01*
X96445557Y-85759533D01*
X96529221Y-85603011D01*
X96529222Y-85603009D01*
X96558552Y-85567271D01*
X96641814Y-85465814D01*
X96756100Y-85372023D01*
X96779009Y-85353222D01*
X96891666Y-85293005D01*
X96935533Y-85269557D01*
X96992147Y-85252384D01*
X97105373Y-85218037D01*
X97171557Y-85211519D01*
X97237740Y-85205000D01*
X97326260Y-85205000D01*
X97392443Y-85211519D01*
X97392443Y-85211519D01*
G37*
G36*
X129142443Y-83687519D02*
X129208627Y-83694037D01*
X129321853Y-83728384D01*
X129378467Y-83745557D01*
X129465311Y-83791977D01*
X129534991Y-83829222D01*
X129558085Y-83848175D01*
X129672186Y-83941814D01*
X129732247Y-84015000D01*
X129784778Y-84079009D01*
X129784779Y-84079011D01*
X129868443Y-84235533D01*
X129885616Y-84292147D01*
X129919963Y-84405373D01*
X129937359Y-84582000D01*
X129919963Y-84758627D01*
X129905889Y-84805023D01*
X129868443Y-84928467D01*
X129799698Y-85057078D01*
X129784778Y-85084991D01*
X129755448Y-85120729D01*
X129672186Y-85222186D01*
X129570729Y-85305448D01*
X129534991Y-85334778D01*
X129534989Y-85334779D01*
X129378467Y-85418443D01*
X129371069Y-85420687D01*
X129208627Y-85469963D01*
X129142442Y-85476482D01*
X129076260Y-85483000D01*
X128987740Y-85483000D01*
X128921558Y-85476482D01*
X128855373Y-85469963D01*
X128692931Y-85420687D01*
X128685533Y-85418443D01*
X128529011Y-85334779D01*
X128529009Y-85334778D01*
X128493271Y-85305448D01*
X128391814Y-85222186D01*
X128308552Y-85120729D01*
X128279222Y-85084991D01*
X128264302Y-85057078D01*
X128195557Y-84928467D01*
X128158111Y-84805023D01*
X128144037Y-84758627D01*
X128126641Y-84582000D01*
X128144037Y-84405373D01*
X128178384Y-84292147D01*
X128195557Y-84235533D01*
X128279221Y-84079011D01*
X128279222Y-84079009D01*
X128331753Y-84015000D01*
X128391814Y-83941814D01*
X128505915Y-83848175D01*
X128529009Y-83829222D01*
X128598689Y-83791977D01*
X128685533Y-83745557D01*
X128742147Y-83728384D01*
X128855373Y-83694037D01*
X128921557Y-83687519D01*
X128987740Y-83681000D01*
X129076260Y-83681000D01*
X129142443Y-83687519D01*
X129142443Y-83687519D01*
G37*
G36*
X127393000Y-85483000D02*
X125591000Y-85483000D01*
X125591000Y-83681000D01*
X127393000Y-83681000D01*
X127393000Y-85483000D01*
X127393000Y-85483000D01*
G37*
G36*
X119800821Y-83743313D02*
X119800824Y-83743314D01*
X119800825Y-83743314D01*
X119961239Y-83791975D01*
X119961241Y-83791976D01*
X119961244Y-83791977D01*
X120109078Y-83870995D01*
X120238659Y-83977341D01*
X120345005Y-84106922D01*
X120424023Y-84254756D01*
X120424024Y-84254759D01*
X120424025Y-84254761D01*
X120469713Y-84405375D01*
X120472687Y-84415179D01*
X120489117Y-84582000D01*
X120472687Y-84748821D01*
X120472686Y-84748824D01*
X120472686Y-84748825D01*
X120440877Y-84853686D01*
X120424023Y-84909244D01*
X120345005Y-85057078D01*
X120238659Y-85186659D01*
X120109078Y-85293005D01*
X119961244Y-85372023D01*
X119961241Y-85372024D01*
X119961239Y-85372025D01*
X119800825Y-85420686D01*
X119800824Y-85420686D01*
X119800821Y-85420687D01*
X119675804Y-85433000D01*
X119592196Y-85433000D01*
X119467179Y-85420687D01*
X119467176Y-85420686D01*
X119467175Y-85420686D01*
X119306761Y-85372025D01*
X119306759Y-85372024D01*
X119306756Y-85372023D01*
X119158922Y-85293005D01*
X119029341Y-85186659D01*
X118922995Y-85057078D01*
X118843977Y-84909244D01*
X118827124Y-84853686D01*
X118795314Y-84748825D01*
X118795314Y-84748824D01*
X118795313Y-84748821D01*
X118778883Y-84582000D01*
X118795313Y-84415179D01*
X118798287Y-84405375D01*
X118843975Y-84254761D01*
X118843976Y-84254759D01*
X118843977Y-84254756D01*
X118922995Y-84106922D01*
X119029341Y-83977341D01*
X119158922Y-83870995D01*
X119306756Y-83791977D01*
X119306759Y-83791976D01*
X119306761Y-83791975D01*
X119467175Y-83743314D01*
X119467176Y-83743314D01*
X119467179Y-83743313D01*
X119592196Y-83731000D01*
X119675804Y-83731000D01*
X119800821Y-83743313D01*
X119800821Y-83743313D01*
G37*
G36*
X122422228Y-83763703D02*
X122577100Y-83827853D01*
X122716481Y-83920985D01*
X122835015Y-84039519D01*
X122928147Y-84178900D01*
X122992297Y-84333772D01*
X123025000Y-84498184D01*
X123025000Y-84665816D01*
X122992297Y-84830228D01*
X122928147Y-84985100D01*
X122835015Y-85124481D01*
X122716481Y-85243015D01*
X122577100Y-85336147D01*
X122422228Y-85400297D01*
X122257816Y-85433000D01*
X122090184Y-85433000D01*
X121925772Y-85400297D01*
X121770900Y-85336147D01*
X121631519Y-85243015D01*
X121512985Y-85124481D01*
X121419853Y-84985100D01*
X121355703Y-84830228D01*
X121323000Y-84665816D01*
X121323000Y-84498184D01*
X121355703Y-84333772D01*
X121419853Y-84178900D01*
X121512985Y-84039519D01*
X121631519Y-83920985D01*
X121770900Y-83827853D01*
X121925772Y-83763703D01*
X122090184Y-83731000D01*
X122257816Y-83731000D01*
X122422228Y-83763703D01*
X122422228Y-83763703D01*
G37*
G36*
X101141821Y-83176313D02*
X101141824Y-83176314D01*
X101141825Y-83176314D01*
X101302239Y-83224975D01*
X101302241Y-83224976D01*
X101302244Y-83224977D01*
X101450078Y-83303995D01*
X101579659Y-83410341D01*
X101686005Y-83539922D01*
X101765023Y-83687756D01*
X101765024Y-83687759D01*
X101765025Y-83687761D01*
X101813686Y-83848175D01*
X101813687Y-83848179D01*
X101830117Y-84015000D01*
X101813687Y-84181821D01*
X101813686Y-84181824D01*
X101813686Y-84181825D01*
X101772142Y-84318779D01*
X101765023Y-84342244D01*
X101686005Y-84490078D01*
X101579659Y-84619659D01*
X101450078Y-84726005D01*
X101302244Y-84805023D01*
X101302241Y-84805024D01*
X101302239Y-84805025D01*
X101141825Y-84853686D01*
X101141824Y-84853686D01*
X101141821Y-84853687D01*
X101016804Y-84866000D01*
X100933196Y-84866000D01*
X100808179Y-84853687D01*
X100808176Y-84853686D01*
X100808175Y-84853686D01*
X100647761Y-84805025D01*
X100647759Y-84805024D01*
X100647756Y-84805023D01*
X100499922Y-84726005D01*
X100370341Y-84619659D01*
X100263995Y-84490078D01*
X100184977Y-84342244D01*
X100177859Y-84318779D01*
X100136314Y-84181825D01*
X100136314Y-84181824D01*
X100136313Y-84181821D01*
X100119883Y-84015000D01*
X100136313Y-83848179D01*
X100136314Y-83848175D01*
X100184975Y-83687761D01*
X100184976Y-83687759D01*
X100184977Y-83687756D01*
X100263995Y-83539922D01*
X100370341Y-83410341D01*
X100499922Y-83303995D01*
X100647756Y-83224977D01*
X100647759Y-83224976D01*
X100647761Y-83224975D01*
X100808175Y-83176314D01*
X100808176Y-83176314D01*
X100808179Y-83176313D01*
X100933196Y-83164000D01*
X101016804Y-83164000D01*
X101141821Y-83176313D01*
X101141821Y-83176313D01*
G37*
G36*
X116381821Y-83176313D02*
X116381824Y-83176314D01*
X116381825Y-83176314D01*
X116542239Y-83224975D01*
X116542241Y-83224976D01*
X116542244Y-83224977D01*
X116690078Y-83303995D01*
X116819659Y-83410341D01*
X116926005Y-83539922D01*
X117005023Y-83687756D01*
X117005024Y-83687759D01*
X117005025Y-83687761D01*
X117053686Y-83848175D01*
X117053687Y-83848179D01*
X117070117Y-84015000D01*
X117053687Y-84181821D01*
X117053686Y-84181824D01*
X117053686Y-84181825D01*
X117012142Y-84318779D01*
X117005023Y-84342244D01*
X116926005Y-84490078D01*
X116819659Y-84619659D01*
X116690078Y-84726005D01*
X116542244Y-84805023D01*
X116542241Y-84805024D01*
X116542239Y-84805025D01*
X116381825Y-84853686D01*
X116381824Y-84853686D01*
X116381821Y-84853687D01*
X116256804Y-84866000D01*
X116173196Y-84866000D01*
X116048179Y-84853687D01*
X116048176Y-84853686D01*
X116048175Y-84853686D01*
X115887761Y-84805025D01*
X115887759Y-84805024D01*
X115887756Y-84805023D01*
X115739922Y-84726005D01*
X115610341Y-84619659D01*
X115503995Y-84490078D01*
X115424977Y-84342244D01*
X115417859Y-84318779D01*
X115376314Y-84181825D01*
X115376314Y-84181824D01*
X115376313Y-84181821D01*
X115359883Y-84015000D01*
X115376313Y-83848179D01*
X115376314Y-83848175D01*
X115424975Y-83687761D01*
X115424976Y-83687759D01*
X115424977Y-83687756D01*
X115503995Y-83539922D01*
X115610341Y-83410341D01*
X115739922Y-83303995D01*
X115887756Y-83224977D01*
X115887759Y-83224976D01*
X115887761Y-83224975D01*
X116048175Y-83176314D01*
X116048176Y-83176314D01*
X116048179Y-83176313D01*
X116173196Y-83164000D01*
X116256804Y-83164000D01*
X116381821Y-83176313D01*
X116381821Y-83176313D01*
G37*
G36*
X97392442Y-82671518D02*
X97458627Y-82678037D01*
X97571853Y-82712384D01*
X97628467Y-82729557D01*
X97767087Y-82803652D01*
X97784991Y-82813222D01*
X97820729Y-82842552D01*
X97922186Y-82925814D01*
X98005448Y-83027271D01*
X98034778Y-83063009D01*
X98034779Y-83063011D01*
X98118443Y-83219533D01*
X98118443Y-83219534D01*
X98169963Y-83389373D01*
X98187359Y-83566000D01*
X98169963Y-83742627D01*
X98163569Y-83763704D01*
X98118443Y-83912467D01*
X98063637Y-84015000D01*
X98034778Y-84068991D01*
X98005448Y-84104729D01*
X97922186Y-84206186D01*
X97820729Y-84289448D01*
X97784991Y-84318778D01*
X97784989Y-84318779D01*
X97628467Y-84402443D01*
X97586494Y-84415175D01*
X97458627Y-84453963D01*
X97392443Y-84460481D01*
X97326260Y-84467000D01*
X97237740Y-84467000D01*
X97171557Y-84460481D01*
X97105373Y-84453963D01*
X96977506Y-84415175D01*
X96935533Y-84402443D01*
X96779011Y-84318779D01*
X96779009Y-84318778D01*
X96743271Y-84289448D01*
X96641814Y-84206186D01*
X96558552Y-84104729D01*
X96529222Y-84068991D01*
X96500363Y-84015000D01*
X96445557Y-83912467D01*
X96400431Y-83763704D01*
X96394037Y-83742627D01*
X96376641Y-83566000D01*
X96394037Y-83389373D01*
X96445557Y-83219534D01*
X96445557Y-83219533D01*
X96529221Y-83063011D01*
X96529222Y-83063009D01*
X96558552Y-83027271D01*
X96641814Y-82925814D01*
X96743271Y-82842552D01*
X96779009Y-82813222D01*
X96796913Y-82803652D01*
X96935533Y-82729557D01*
X96992147Y-82712384D01*
X97105373Y-82678037D01*
X97171558Y-82671518D01*
X97237740Y-82665000D01*
X97326260Y-82665000D01*
X97392442Y-82671518D01*
X97392442Y-82671518D01*
G37*
G36*
X116381821Y-80636313D02*
X116381824Y-80636314D01*
X116381825Y-80636314D01*
X116542239Y-80684975D01*
X116542241Y-80684976D01*
X116542244Y-80684977D01*
X116690078Y-80763995D01*
X116819659Y-80870341D01*
X116926005Y-80999922D01*
X117005023Y-81147756D01*
X117005024Y-81147759D01*
X117005025Y-81147761D01*
X117021668Y-81202627D01*
X117053687Y-81308179D01*
X117070117Y-81475000D01*
X117053687Y-81641821D01*
X117053686Y-81641824D01*
X117053686Y-81641825D01*
X117012142Y-81778779D01*
X117005023Y-81802244D01*
X116926005Y-81950078D01*
X116819659Y-82079659D01*
X116690078Y-82186005D01*
X116542244Y-82265023D01*
X116542241Y-82265024D01*
X116542239Y-82265025D01*
X116381825Y-82313686D01*
X116381824Y-82313686D01*
X116381821Y-82313687D01*
X116256804Y-82326000D01*
X116173196Y-82326000D01*
X116048179Y-82313687D01*
X116048176Y-82313686D01*
X116048175Y-82313686D01*
X115887761Y-82265025D01*
X115887759Y-82265024D01*
X115887756Y-82265023D01*
X115739922Y-82186005D01*
X115610341Y-82079659D01*
X115503995Y-81950078D01*
X115424977Y-81802244D01*
X115417859Y-81778779D01*
X115376314Y-81641825D01*
X115376314Y-81641824D01*
X115376313Y-81641821D01*
X115359883Y-81475000D01*
X115376313Y-81308179D01*
X115408332Y-81202627D01*
X115424975Y-81147761D01*
X115424976Y-81147759D01*
X115424977Y-81147756D01*
X115503995Y-80999922D01*
X115610341Y-80870341D01*
X115739922Y-80763995D01*
X115887756Y-80684977D01*
X115887759Y-80684976D01*
X115887761Y-80684975D01*
X116048175Y-80636314D01*
X116048176Y-80636314D01*
X116048179Y-80636313D01*
X116173196Y-80624000D01*
X116256804Y-80624000D01*
X116381821Y-80636313D01*
X116381821Y-80636313D01*
G37*
G36*
X101141821Y-80636313D02*
X101141824Y-80636314D01*
X101141825Y-80636314D01*
X101302239Y-80684975D01*
X101302241Y-80684976D01*
X101302244Y-80684977D01*
X101450078Y-80763995D01*
X101579659Y-80870341D01*
X101686005Y-80999922D01*
X101765023Y-81147756D01*
X101765024Y-81147759D01*
X101765025Y-81147761D01*
X101781668Y-81202627D01*
X101813687Y-81308179D01*
X101830117Y-81475000D01*
X101813687Y-81641821D01*
X101813686Y-81641824D01*
X101813686Y-81641825D01*
X101772142Y-81778779D01*
X101765023Y-81802244D01*
X101686005Y-81950078D01*
X101579659Y-82079659D01*
X101450078Y-82186005D01*
X101302244Y-82265023D01*
X101302241Y-82265024D01*
X101302239Y-82265025D01*
X101141825Y-82313686D01*
X101141824Y-82313686D01*
X101141821Y-82313687D01*
X101016804Y-82326000D01*
X100933196Y-82326000D01*
X100808179Y-82313687D01*
X100808176Y-82313686D01*
X100808175Y-82313686D01*
X100647761Y-82265025D01*
X100647759Y-82265024D01*
X100647756Y-82265023D01*
X100499922Y-82186005D01*
X100370341Y-82079659D01*
X100263995Y-81950078D01*
X100184977Y-81802244D01*
X100177859Y-81778779D01*
X100136314Y-81641825D01*
X100136314Y-81641824D01*
X100136313Y-81641821D01*
X100119883Y-81475000D01*
X100136313Y-81308179D01*
X100168332Y-81202627D01*
X100184975Y-81147761D01*
X100184976Y-81147759D01*
X100184977Y-81147756D01*
X100263995Y-80999922D01*
X100370341Y-80870341D01*
X100499922Y-80763995D01*
X100647756Y-80684977D01*
X100647759Y-80684976D01*
X100647761Y-80684975D01*
X100808175Y-80636314D01*
X100808176Y-80636314D01*
X100808179Y-80636313D01*
X100933196Y-80624000D01*
X101016804Y-80624000D01*
X101141821Y-80636313D01*
X101141821Y-80636313D01*
G37*
G36*
X97392443Y-80131519D02*
X97458627Y-80138037D01*
X97571853Y-80172384D01*
X97628467Y-80189557D01*
X97767087Y-80263652D01*
X97784991Y-80273222D01*
X97820729Y-80302552D01*
X97922186Y-80385814D01*
X98005448Y-80487271D01*
X98034778Y-80523009D01*
X98034779Y-80523011D01*
X98118443Y-80679533D01*
X98118443Y-80679534D01*
X98169963Y-80849373D01*
X98187359Y-81026000D01*
X98169963Y-81202627D01*
X98137945Y-81308175D01*
X98118443Y-81372467D01*
X98063637Y-81475000D01*
X98034778Y-81528991D01*
X98005448Y-81564729D01*
X97922186Y-81666186D01*
X97820729Y-81749448D01*
X97784991Y-81778778D01*
X97784989Y-81778779D01*
X97628467Y-81862443D01*
X97571853Y-81879616D01*
X97458627Y-81913963D01*
X97392442Y-81920482D01*
X97326260Y-81927000D01*
X97237740Y-81927000D01*
X97171558Y-81920482D01*
X97105373Y-81913963D01*
X96992147Y-81879616D01*
X96935533Y-81862443D01*
X96779011Y-81778779D01*
X96779009Y-81778778D01*
X96743271Y-81749448D01*
X96641814Y-81666186D01*
X96558552Y-81564729D01*
X96529222Y-81528991D01*
X96500363Y-81475000D01*
X96445557Y-81372467D01*
X96426055Y-81308175D01*
X96394037Y-81202627D01*
X96376641Y-81026000D01*
X96394037Y-80849373D01*
X96445557Y-80679534D01*
X96445557Y-80679533D01*
X96529221Y-80523011D01*
X96529222Y-80523009D01*
X96558552Y-80487271D01*
X96641814Y-80385814D01*
X96743271Y-80302552D01*
X96779009Y-80273222D01*
X96796913Y-80263652D01*
X96935533Y-80189557D01*
X96992147Y-80172384D01*
X97105373Y-80138037D01*
X97171557Y-80131519D01*
X97237740Y-80125000D01*
X97326260Y-80125000D01*
X97392443Y-80131519D01*
X97392443Y-80131519D01*
G37*
G36*
X116381821Y-78096313D02*
X116381824Y-78096314D01*
X116381825Y-78096314D01*
X116542239Y-78144975D01*
X116542241Y-78144976D01*
X116542244Y-78144977D01*
X116690078Y-78223995D01*
X116819659Y-78330341D01*
X116926005Y-78459922D01*
X117005023Y-78607756D01*
X117005024Y-78607759D01*
X117005025Y-78607761D01*
X117042342Y-78730779D01*
X117053687Y-78768179D01*
X117070117Y-78935000D01*
X117053687Y-79101821D01*
X117005023Y-79262244D01*
X116926005Y-79410078D01*
X116819659Y-79539659D01*
X116690078Y-79646005D01*
X116542244Y-79725023D01*
X116542241Y-79725024D01*
X116542239Y-79725025D01*
X116381825Y-79773686D01*
X116381824Y-79773686D01*
X116381821Y-79773687D01*
X116256804Y-79786000D01*
X116173196Y-79786000D01*
X116048179Y-79773687D01*
X116048176Y-79773686D01*
X116048175Y-79773686D01*
X115887761Y-79725025D01*
X115887759Y-79725024D01*
X115887756Y-79725023D01*
X115739922Y-79646005D01*
X115610341Y-79539659D01*
X115503995Y-79410078D01*
X115424977Y-79262244D01*
X115376313Y-79101821D01*
X115359883Y-78935000D01*
X115376313Y-78768179D01*
X115387658Y-78730779D01*
X115424975Y-78607761D01*
X115424976Y-78607759D01*
X115424977Y-78607756D01*
X115503995Y-78459922D01*
X115610341Y-78330341D01*
X115739922Y-78223995D01*
X115887756Y-78144977D01*
X115887759Y-78144976D01*
X115887761Y-78144975D01*
X116048175Y-78096314D01*
X116048176Y-78096314D01*
X116048179Y-78096313D01*
X116173196Y-78084000D01*
X116256804Y-78084000D01*
X116381821Y-78096313D01*
X116381821Y-78096313D01*
G37*
G36*
X101141821Y-78096313D02*
X101141824Y-78096314D01*
X101141825Y-78096314D01*
X101302239Y-78144975D01*
X101302241Y-78144976D01*
X101302244Y-78144977D01*
X101450078Y-78223995D01*
X101579659Y-78330341D01*
X101686005Y-78459922D01*
X101765023Y-78607756D01*
X101765024Y-78607759D01*
X101765025Y-78607761D01*
X101802342Y-78730779D01*
X101813687Y-78768179D01*
X101830117Y-78935000D01*
X101813687Y-79101821D01*
X101765023Y-79262244D01*
X101686005Y-79410078D01*
X101579659Y-79539659D01*
X101450078Y-79646005D01*
X101302244Y-79725023D01*
X101302241Y-79725024D01*
X101302239Y-79725025D01*
X101141825Y-79773686D01*
X101141824Y-79773686D01*
X101141821Y-79773687D01*
X101016804Y-79786000D01*
X100933196Y-79786000D01*
X100808179Y-79773687D01*
X100808176Y-79773686D01*
X100808175Y-79773686D01*
X100647761Y-79725025D01*
X100647759Y-79725024D01*
X100647756Y-79725023D01*
X100499922Y-79646005D01*
X100370341Y-79539659D01*
X100263995Y-79410078D01*
X100184977Y-79262244D01*
X100136313Y-79101821D01*
X100119883Y-78935000D01*
X100136313Y-78768179D01*
X100147658Y-78730779D01*
X100184975Y-78607761D01*
X100184976Y-78607759D01*
X100184977Y-78607756D01*
X100263995Y-78459922D01*
X100370341Y-78330341D01*
X100499922Y-78223995D01*
X100647756Y-78144977D01*
X100647759Y-78144976D01*
X100647761Y-78144975D01*
X100808175Y-78096314D01*
X100808176Y-78096314D01*
X100808179Y-78096313D01*
X100933196Y-78084000D01*
X101016804Y-78084000D01*
X101141821Y-78096313D01*
X101141821Y-78096313D01*
G37*
G36*
X98183000Y-79387000D02*
X96381000Y-79387000D01*
X96381000Y-77585000D01*
X98183000Y-77585000D01*
X98183000Y-79387000D01*
X98183000Y-79387000D01*
G37*
G36*
X119546821Y-77393313D02*
X119546824Y-77393314D01*
X119546825Y-77393314D01*
X119707239Y-77441975D01*
X119707241Y-77441976D01*
X119707244Y-77441977D01*
X119855078Y-77520995D01*
X119984659Y-77627341D01*
X120091005Y-77756922D01*
X120170023Y-77904756D01*
X120170024Y-77904759D01*
X120170025Y-77904761D01*
X120218686Y-78065175D01*
X120218687Y-78065179D01*
X120235117Y-78232000D01*
X120218687Y-78398821D01*
X120218686Y-78398824D01*
X120218686Y-78398825D01*
X120193762Y-78480989D01*
X120170023Y-78559244D01*
X120091005Y-78707078D01*
X119984659Y-78836659D01*
X119855078Y-78943005D01*
X119707244Y-79022023D01*
X119707241Y-79022024D01*
X119707239Y-79022025D01*
X119546825Y-79070686D01*
X119546824Y-79070686D01*
X119546821Y-79070687D01*
X119421804Y-79083000D01*
X119338196Y-79083000D01*
X119213179Y-79070687D01*
X119213176Y-79070686D01*
X119213175Y-79070686D01*
X119052761Y-79022025D01*
X119052759Y-79022024D01*
X119052756Y-79022023D01*
X118904922Y-78943005D01*
X118775341Y-78836659D01*
X118668995Y-78707078D01*
X118589977Y-78559244D01*
X118566239Y-78480989D01*
X118541314Y-78398825D01*
X118541314Y-78398824D01*
X118541313Y-78398821D01*
X118524883Y-78232000D01*
X118541313Y-78065179D01*
X118541314Y-78065175D01*
X118589975Y-77904761D01*
X118589976Y-77904759D01*
X118589977Y-77904756D01*
X118668995Y-77756922D01*
X118775341Y-77627341D01*
X118904922Y-77520995D01*
X119052756Y-77441977D01*
X119052759Y-77441976D01*
X119052761Y-77441975D01*
X119213175Y-77393314D01*
X119213176Y-77393314D01*
X119213179Y-77393313D01*
X119338196Y-77381000D01*
X119421804Y-77381000D01*
X119546821Y-77393313D01*
X119546821Y-77393313D01*
G37*
G36*
X122168228Y-77413703D02*
X122323100Y-77477853D01*
X122462481Y-77570985D01*
X122581015Y-77689519D01*
X122674147Y-77828900D01*
X122738297Y-77983772D01*
X122771000Y-78148184D01*
X122771000Y-78315816D01*
X122738297Y-78480228D01*
X122674147Y-78635100D01*
X122581015Y-78774481D01*
X122462481Y-78893015D01*
X122323100Y-78986147D01*
X122168228Y-79050297D01*
X122003816Y-79083000D01*
X121836184Y-79083000D01*
X121671772Y-79050297D01*
X121516900Y-78986147D01*
X121377519Y-78893015D01*
X121258985Y-78774481D01*
X121165853Y-78635100D01*
X121101703Y-78480228D01*
X121069000Y-78315816D01*
X121069000Y-78148184D01*
X121101703Y-77983772D01*
X121165853Y-77828900D01*
X121258985Y-77689519D01*
X121377519Y-77570985D01*
X121516900Y-77477853D01*
X121671772Y-77413703D01*
X121836184Y-77381000D01*
X122003816Y-77381000D01*
X122168228Y-77413703D01*
X122168228Y-77413703D01*
G37*
G36*
X127139000Y-78879000D02*
X125337000Y-78879000D01*
X125337000Y-77077000D01*
X127139000Y-77077000D01*
X127139000Y-78879000D01*
X127139000Y-78879000D01*
G37*
G36*
X128888442Y-77083518D02*
X128954627Y-77090037D01*
X129067853Y-77124384D01*
X129124467Y-77141557D01*
X129263087Y-77215652D01*
X129280991Y-77225222D01*
X129306309Y-77246000D01*
X129418186Y-77337814D01*
X129480466Y-77413704D01*
X129530778Y-77475009D01*
X129530779Y-77475011D01*
X129614443Y-77631533D01*
X129614443Y-77631534D01*
X129665963Y-77801373D01*
X129683359Y-77978000D01*
X129665963Y-78154627D01*
X129644920Y-78223995D01*
X129614443Y-78324467D01*
X129611303Y-78330341D01*
X129530778Y-78480991D01*
X129501448Y-78516729D01*
X129418186Y-78618186D01*
X129316729Y-78701448D01*
X129280991Y-78730778D01*
X129280989Y-78730779D01*
X129124467Y-78814443D01*
X129067853Y-78831616D01*
X128954627Y-78865963D01*
X128888443Y-78872481D01*
X128822260Y-78879000D01*
X128733740Y-78879000D01*
X128667557Y-78872481D01*
X128601373Y-78865963D01*
X128488147Y-78831616D01*
X128431533Y-78814443D01*
X128275011Y-78730779D01*
X128275009Y-78730778D01*
X128239271Y-78701448D01*
X128137814Y-78618186D01*
X128054552Y-78516729D01*
X128025222Y-78480991D01*
X127944697Y-78330341D01*
X127941557Y-78324467D01*
X127911080Y-78223995D01*
X127890037Y-78154627D01*
X127872641Y-77978000D01*
X127890037Y-77801373D01*
X127941557Y-77631534D01*
X127941557Y-77631533D01*
X128025221Y-77475011D01*
X128025222Y-77475009D01*
X128075534Y-77413704D01*
X128137814Y-77337814D01*
X128249691Y-77246000D01*
X128275009Y-77225222D01*
X128292913Y-77215652D01*
X128431533Y-77141557D01*
X128488147Y-77124384D01*
X128601373Y-77090037D01*
X128667558Y-77083518D01*
X128733740Y-77077000D01*
X128822260Y-77077000D01*
X128888442Y-77083518D01*
X128888442Y-77083518D01*
G37*
G36*
X101141821Y-75556313D02*
X101141824Y-75556314D01*
X101141825Y-75556314D01*
X101302239Y-75604975D01*
X101302241Y-75604976D01*
X101302244Y-75604977D01*
X101450078Y-75683995D01*
X101579659Y-75790341D01*
X101686005Y-75919922D01*
X101765023Y-76067756D01*
X101813687Y-76228179D01*
X101830117Y-76395000D01*
X101813687Y-76561821D01*
X101765023Y-76722244D01*
X101686005Y-76870078D01*
X101579659Y-76999659D01*
X101450078Y-77106005D01*
X101302244Y-77185023D01*
X101302241Y-77185024D01*
X101302239Y-77185025D01*
X101141825Y-77233686D01*
X101141824Y-77233686D01*
X101141821Y-77233687D01*
X101016804Y-77246000D01*
X100933196Y-77246000D01*
X100808179Y-77233687D01*
X100808176Y-77233686D01*
X100808175Y-77233686D01*
X100647761Y-77185025D01*
X100647759Y-77185024D01*
X100647756Y-77185023D01*
X100499922Y-77106005D01*
X100370341Y-76999659D01*
X100263995Y-76870078D01*
X100184977Y-76722244D01*
X100136313Y-76561821D01*
X100119883Y-76395000D01*
X100136313Y-76228179D01*
X100184977Y-76067756D01*
X100263995Y-75919922D01*
X100370341Y-75790341D01*
X100499922Y-75683995D01*
X100647756Y-75604977D01*
X100647759Y-75604976D01*
X100647761Y-75604975D01*
X100808175Y-75556314D01*
X100808176Y-75556314D01*
X100808179Y-75556313D01*
X100933196Y-75544000D01*
X101016804Y-75544000D01*
X101141821Y-75556313D01*
X101141821Y-75556313D01*
G37*
G36*
X116381821Y-75556313D02*
X116381824Y-75556314D01*
X116381825Y-75556314D01*
X116542239Y-75604975D01*
X116542241Y-75604976D01*
X116542244Y-75604977D01*
X116690078Y-75683995D01*
X116819659Y-75790341D01*
X116926005Y-75919922D01*
X117005023Y-76067756D01*
X117053687Y-76228179D01*
X117070117Y-76395000D01*
X117053687Y-76561821D01*
X117005023Y-76722244D01*
X116926005Y-76870078D01*
X116819659Y-76999659D01*
X116690078Y-77106005D01*
X116542244Y-77185023D01*
X116542241Y-77185024D01*
X116542239Y-77185025D01*
X116381825Y-77233686D01*
X116381824Y-77233686D01*
X116381821Y-77233687D01*
X116256804Y-77246000D01*
X116173196Y-77246000D01*
X116048179Y-77233687D01*
X116048176Y-77233686D01*
X116048175Y-77233686D01*
X115887761Y-77185025D01*
X115887759Y-77185024D01*
X115887756Y-77185023D01*
X115739922Y-77106005D01*
X115610341Y-76999659D01*
X115503995Y-76870078D01*
X115424977Y-76722244D01*
X115376313Y-76561821D01*
X115359883Y-76395000D01*
X115376313Y-76228179D01*
X115424977Y-76067756D01*
X115503995Y-75919922D01*
X115610341Y-75790341D01*
X115739922Y-75683995D01*
X115887756Y-75604977D01*
X115887759Y-75604976D01*
X115887761Y-75604975D01*
X116048175Y-75556314D01*
X116048176Y-75556314D01*
X116048179Y-75556313D01*
X116173196Y-75544000D01*
X116256804Y-75544000D01*
X116381821Y-75556313D01*
X116381821Y-75556313D01*
G37*
G36*
X116381821Y-73016313D02*
X116381824Y-73016314D01*
X116381825Y-73016314D01*
X116542239Y-73064975D01*
X116542241Y-73064976D01*
X116542244Y-73064977D01*
X116690078Y-73143995D01*
X116819659Y-73250341D01*
X116926005Y-73379922D01*
X117005023Y-73527756D01*
X117005024Y-73527759D01*
X117005025Y-73527761D01*
X117046712Y-73665185D01*
X117053687Y-73688179D01*
X117070117Y-73855000D01*
X117053687Y-74021821D01*
X117005023Y-74182244D01*
X116926005Y-74330078D01*
X116819659Y-74459659D01*
X116690078Y-74566005D01*
X116542244Y-74645023D01*
X116542241Y-74645024D01*
X116542239Y-74645025D01*
X116381825Y-74693686D01*
X116381824Y-74693686D01*
X116381821Y-74693687D01*
X116256804Y-74706000D01*
X116173196Y-74706000D01*
X116048179Y-74693687D01*
X116048176Y-74693686D01*
X116048175Y-74693686D01*
X115887761Y-74645025D01*
X115887759Y-74645024D01*
X115887756Y-74645023D01*
X115739922Y-74566005D01*
X115610341Y-74459659D01*
X115503995Y-74330078D01*
X115424977Y-74182244D01*
X115376313Y-74021821D01*
X115359883Y-73855000D01*
X115376313Y-73688179D01*
X115383288Y-73665185D01*
X115424975Y-73527761D01*
X115424976Y-73527759D01*
X115424977Y-73527756D01*
X115503995Y-73379922D01*
X115610341Y-73250341D01*
X115739922Y-73143995D01*
X115887756Y-73064977D01*
X115887759Y-73064976D01*
X115887761Y-73064975D01*
X116048175Y-73016314D01*
X116048176Y-73016314D01*
X116048179Y-73016313D01*
X116173196Y-73004000D01*
X116256804Y-73004000D01*
X116381821Y-73016313D01*
X116381821Y-73016313D01*
G37*
G36*
X101141821Y-73016313D02*
X101141824Y-73016314D01*
X101141825Y-73016314D01*
X101302239Y-73064975D01*
X101302241Y-73064976D01*
X101302244Y-73064977D01*
X101450078Y-73143995D01*
X101579659Y-73250341D01*
X101686005Y-73379922D01*
X101765023Y-73527756D01*
X101765024Y-73527759D01*
X101765025Y-73527761D01*
X101806712Y-73665185D01*
X101813687Y-73688179D01*
X101830117Y-73855000D01*
X101813687Y-74021821D01*
X101765023Y-74182244D01*
X101686005Y-74330078D01*
X101579659Y-74459659D01*
X101450078Y-74566005D01*
X101302244Y-74645023D01*
X101302241Y-74645024D01*
X101302239Y-74645025D01*
X101141825Y-74693686D01*
X101141824Y-74693686D01*
X101141821Y-74693687D01*
X101016804Y-74706000D01*
X100933196Y-74706000D01*
X100808179Y-74693687D01*
X100808176Y-74693686D01*
X100808175Y-74693686D01*
X100647761Y-74645025D01*
X100647759Y-74645024D01*
X100647756Y-74645023D01*
X100499922Y-74566005D01*
X100370341Y-74459659D01*
X100263995Y-74330078D01*
X100184977Y-74182244D01*
X100136313Y-74021821D01*
X100119883Y-73855000D01*
X100136313Y-73688179D01*
X100143288Y-73665185D01*
X100184975Y-73527761D01*
X100184976Y-73527759D01*
X100184977Y-73527756D01*
X100263995Y-73379922D01*
X100370341Y-73250341D01*
X100499922Y-73143995D01*
X100647756Y-73064977D01*
X100647759Y-73064976D01*
X100647761Y-73064975D01*
X100808175Y-73016314D01*
X100808176Y-73016314D01*
X100808179Y-73016313D01*
X100933196Y-73004000D01*
X101016804Y-73004000D01*
X101141821Y-73016313D01*
X101141821Y-73016313D01*
G37*
G36*
X98357000Y-74097000D02*
X96555000Y-74097000D01*
X96555000Y-72295000D01*
X98357000Y-72295000D01*
X98357000Y-74097000D01*
X98357000Y-74097000D01*
G37*
G36*
X94547000Y-74097000D02*
X92745000Y-74097000D01*
X92745000Y-72295000D01*
X94547000Y-72295000D01*
X94547000Y-74097000D01*
X94547000Y-74097000D01*
G37*
G36*
X89246443Y-72283519D02*
X89312627Y-72290037D01*
X89425853Y-72324384D01*
X89482467Y-72341557D01*
X89621087Y-72415652D01*
X89638991Y-72425222D01*
X89674729Y-72454552D01*
X89776186Y-72537814D01*
X89859448Y-72639271D01*
X89888778Y-72675009D01*
X89888779Y-72675011D01*
X89972443Y-72831533D01*
X89972443Y-72831534D01*
X90023963Y-73001373D01*
X90041359Y-73178000D01*
X90023963Y-73354627D01*
X89989616Y-73467853D01*
X89972443Y-73524467D01*
X89970682Y-73527761D01*
X89888778Y-73680991D01*
X89859448Y-73716729D01*
X89776186Y-73818186D01*
X89674729Y-73901448D01*
X89638991Y-73930778D01*
X89638989Y-73930779D01*
X89482467Y-74014443D01*
X89458131Y-74021825D01*
X89312627Y-74065963D01*
X89246443Y-74072481D01*
X89180260Y-74079000D01*
X89091740Y-74079000D01*
X89025557Y-74072481D01*
X88959373Y-74065963D01*
X88813869Y-74021825D01*
X88789533Y-74014443D01*
X88633011Y-73930779D01*
X88633009Y-73930778D01*
X88597271Y-73901448D01*
X88495814Y-73818186D01*
X88412552Y-73716729D01*
X88383222Y-73680991D01*
X88301318Y-73527761D01*
X88299557Y-73524467D01*
X88282384Y-73467853D01*
X88248037Y-73354627D01*
X88230641Y-73178000D01*
X88248037Y-73001373D01*
X88299557Y-72831534D01*
X88299557Y-72831533D01*
X88383221Y-72675011D01*
X88383222Y-72675009D01*
X88412552Y-72639271D01*
X88495814Y-72537814D01*
X88597271Y-72454552D01*
X88633009Y-72425222D01*
X88650913Y-72415652D01*
X88789533Y-72341557D01*
X88846147Y-72324384D01*
X88959373Y-72290037D01*
X89025557Y-72283519D01*
X89091740Y-72277000D01*
X89180260Y-72277000D01*
X89246443Y-72283519D01*
X89246443Y-72283519D01*
G37*
G36*
X120105443Y-72130519D02*
X120171627Y-72137037D01*
X120267105Y-72166000D01*
X120341467Y-72188557D01*
X120480087Y-72262652D01*
X120497991Y-72272222D01*
X120519698Y-72290037D01*
X120635186Y-72384814D01*
X120718448Y-72486271D01*
X120747778Y-72522009D01*
X120747779Y-72522011D01*
X120831443Y-72678533D01*
X120831443Y-72678534D01*
X120882963Y-72848373D01*
X120900359Y-73025000D01*
X120882963Y-73201627D01*
X120848616Y-73314853D01*
X120831443Y-73371467D01*
X120757348Y-73510087D01*
X120747778Y-73527991D01*
X120718448Y-73563729D01*
X120635186Y-73665186D01*
X120533729Y-73748448D01*
X120497991Y-73777778D01*
X120497989Y-73777779D01*
X120341467Y-73861443D01*
X120284853Y-73878616D01*
X120171627Y-73912963D01*
X120105443Y-73919481D01*
X120039260Y-73926000D01*
X119950740Y-73926000D01*
X119884557Y-73919481D01*
X119818373Y-73912963D01*
X119705147Y-73878616D01*
X119648533Y-73861443D01*
X119492011Y-73777779D01*
X119492009Y-73777778D01*
X119456271Y-73748448D01*
X119354814Y-73665186D01*
X119271552Y-73563729D01*
X119242222Y-73527991D01*
X119232652Y-73510087D01*
X119158557Y-73371467D01*
X119141384Y-73314853D01*
X119107037Y-73201627D01*
X119089641Y-73025000D01*
X119107037Y-72848373D01*
X119158557Y-72678534D01*
X119158557Y-72678533D01*
X119242221Y-72522011D01*
X119242222Y-72522009D01*
X119271552Y-72486271D01*
X119354814Y-72384814D01*
X119470302Y-72290037D01*
X119492009Y-72272222D01*
X119509913Y-72262652D01*
X119648533Y-72188557D01*
X119722895Y-72166000D01*
X119818373Y-72137037D01*
X119884557Y-72130519D01*
X119950740Y-72124000D01*
X120039260Y-72124000D01*
X120105443Y-72130519D01*
X120105443Y-72130519D01*
G37*
G36*
X122645443Y-72130519D02*
X122711627Y-72137037D01*
X122807105Y-72166000D01*
X122881467Y-72188557D01*
X123020087Y-72262652D01*
X123037991Y-72272222D01*
X123059698Y-72290037D01*
X123175186Y-72384814D01*
X123258448Y-72486271D01*
X123287778Y-72522009D01*
X123287779Y-72522011D01*
X123371443Y-72678533D01*
X123371443Y-72678534D01*
X123422963Y-72848373D01*
X123440359Y-73025000D01*
X123422963Y-73201627D01*
X123388616Y-73314853D01*
X123371443Y-73371467D01*
X123297348Y-73510087D01*
X123287778Y-73527991D01*
X123258448Y-73563729D01*
X123175186Y-73665186D01*
X123073729Y-73748448D01*
X123037991Y-73777778D01*
X123037989Y-73777779D01*
X122881467Y-73861443D01*
X122824853Y-73878616D01*
X122711627Y-73912963D01*
X122645443Y-73919481D01*
X122579260Y-73926000D01*
X122490740Y-73926000D01*
X122424557Y-73919481D01*
X122358373Y-73912963D01*
X122245147Y-73878616D01*
X122188533Y-73861443D01*
X122032011Y-73777779D01*
X122032009Y-73777778D01*
X121996271Y-73748448D01*
X121894814Y-73665186D01*
X121811552Y-73563729D01*
X121782222Y-73527991D01*
X121772652Y-73510087D01*
X121698557Y-73371467D01*
X121681384Y-73314853D01*
X121647037Y-73201627D01*
X121629641Y-73025000D01*
X121647037Y-72848373D01*
X121698557Y-72678534D01*
X121698557Y-72678533D01*
X121782221Y-72522011D01*
X121782222Y-72522009D01*
X121811552Y-72486271D01*
X121894814Y-72384814D01*
X122010302Y-72290037D01*
X122032009Y-72272222D01*
X122049913Y-72262652D01*
X122188533Y-72188557D01*
X122262895Y-72166000D01*
X122358373Y-72137037D01*
X122424557Y-72130519D01*
X122490740Y-72124000D01*
X122579260Y-72124000D01*
X122645443Y-72130519D01*
X122645443Y-72130519D01*
G37*
G36*
X125976000Y-73926000D02*
X124174000Y-73926000D01*
X124174000Y-72124000D01*
X125976000Y-72124000D01*
X125976000Y-73926000D01*
X125976000Y-73926000D01*
G37*
G36*
X101141821Y-70476313D02*
X101141824Y-70476314D01*
X101141825Y-70476314D01*
X101302239Y-70524975D01*
X101302241Y-70524976D01*
X101302244Y-70524977D01*
X101450078Y-70603995D01*
X101579659Y-70710341D01*
X101686005Y-70839922D01*
X101765023Y-70987756D01*
X101765024Y-70987759D01*
X101765025Y-70987761D01*
X101769486Y-71002467D01*
X101813687Y-71148179D01*
X101830117Y-71315000D01*
X101813687Y-71481821D01*
X101813686Y-71481824D01*
X101813686Y-71481825D01*
X101794837Y-71543963D01*
X101765023Y-71642244D01*
X101686005Y-71790078D01*
X101579659Y-71919659D01*
X101450078Y-72026005D01*
X101302244Y-72105023D01*
X101302241Y-72105024D01*
X101302239Y-72105025D01*
X101141825Y-72153686D01*
X101141824Y-72153686D01*
X101141821Y-72153687D01*
X101016804Y-72166000D01*
X100933196Y-72166000D01*
X100808179Y-72153687D01*
X100808176Y-72153686D01*
X100808175Y-72153686D01*
X100647761Y-72105025D01*
X100647759Y-72105024D01*
X100647756Y-72105023D01*
X100499922Y-72026005D01*
X100370341Y-71919659D01*
X100263995Y-71790078D01*
X100184977Y-71642244D01*
X100155164Y-71543963D01*
X100136314Y-71481825D01*
X100136314Y-71481824D01*
X100136313Y-71481821D01*
X100119883Y-71315000D01*
X100136313Y-71148179D01*
X100180514Y-71002467D01*
X100184975Y-70987761D01*
X100184976Y-70987759D01*
X100184977Y-70987756D01*
X100263995Y-70839922D01*
X100370341Y-70710341D01*
X100499922Y-70603995D01*
X100647756Y-70524977D01*
X100647759Y-70524976D01*
X100647761Y-70524975D01*
X100808175Y-70476314D01*
X100808176Y-70476314D01*
X100808179Y-70476313D01*
X100933196Y-70464000D01*
X101016804Y-70464000D01*
X101141821Y-70476313D01*
X101141821Y-70476313D01*
G37*
G36*
X116381821Y-70476313D02*
X116381824Y-70476314D01*
X116381825Y-70476314D01*
X116542239Y-70524975D01*
X116542241Y-70524976D01*
X116542244Y-70524977D01*
X116690078Y-70603995D01*
X116819659Y-70710341D01*
X116926005Y-70839922D01*
X117005023Y-70987756D01*
X117005024Y-70987759D01*
X117005025Y-70987761D01*
X117009486Y-71002467D01*
X117053687Y-71148179D01*
X117070117Y-71315000D01*
X117053687Y-71481821D01*
X117053686Y-71481824D01*
X117053686Y-71481825D01*
X117034837Y-71543963D01*
X117005023Y-71642244D01*
X116926005Y-71790078D01*
X116819659Y-71919659D01*
X116690078Y-72026005D01*
X116542244Y-72105023D01*
X116542241Y-72105024D01*
X116542239Y-72105025D01*
X116381825Y-72153686D01*
X116381824Y-72153686D01*
X116381821Y-72153687D01*
X116256804Y-72166000D01*
X116173196Y-72166000D01*
X116048179Y-72153687D01*
X116048176Y-72153686D01*
X116048175Y-72153686D01*
X115887761Y-72105025D01*
X115887759Y-72105024D01*
X115887756Y-72105023D01*
X115739922Y-72026005D01*
X115610341Y-71919659D01*
X115503995Y-71790078D01*
X115424977Y-71642244D01*
X115395164Y-71543963D01*
X115376314Y-71481825D01*
X115376314Y-71481824D01*
X115376313Y-71481821D01*
X115359883Y-71315000D01*
X115376313Y-71148179D01*
X115420514Y-71002467D01*
X115424975Y-70987761D01*
X115424976Y-70987759D01*
X115424977Y-70987756D01*
X115503995Y-70839922D01*
X115610341Y-70710341D01*
X115739922Y-70603995D01*
X115887756Y-70524977D01*
X115887759Y-70524976D01*
X115887761Y-70524975D01*
X116048175Y-70476314D01*
X116048176Y-70476314D01*
X116048179Y-70476313D01*
X116173196Y-70464000D01*
X116256804Y-70464000D01*
X116381821Y-70476313D01*
X116381821Y-70476313D01*
G37*
G36*
X97566443Y-69761519D02*
X97632627Y-69768037D01*
X97745853Y-69802384D01*
X97802467Y-69819557D01*
X97941087Y-69893652D01*
X97958991Y-69903222D01*
X97994729Y-69932552D01*
X98096186Y-70015814D01*
X98179448Y-70117271D01*
X98208778Y-70153009D01*
X98208779Y-70153011D01*
X98292443Y-70309533D01*
X98292443Y-70309534D01*
X98343963Y-70479373D01*
X98361359Y-70656000D01*
X98343963Y-70832627D01*
X98341750Y-70839922D01*
X98292443Y-71002467D01*
X98218348Y-71141087D01*
X98208778Y-71158991D01*
X98179448Y-71194729D01*
X98096186Y-71296186D01*
X97994729Y-71379448D01*
X97958991Y-71408778D01*
X97958989Y-71408779D01*
X97802467Y-71492443D01*
X97745853Y-71509616D01*
X97632627Y-71543963D01*
X97566443Y-71550481D01*
X97500260Y-71557000D01*
X97411740Y-71557000D01*
X97345557Y-71550481D01*
X97279373Y-71543963D01*
X97166147Y-71509616D01*
X97109533Y-71492443D01*
X96953011Y-71408779D01*
X96953009Y-71408778D01*
X96917271Y-71379448D01*
X96815814Y-71296186D01*
X96732552Y-71194729D01*
X96703222Y-71158991D01*
X96693652Y-71141087D01*
X96619557Y-71002467D01*
X96570250Y-70839922D01*
X96568037Y-70832627D01*
X96550641Y-70656000D01*
X96568037Y-70479373D01*
X96619557Y-70309534D01*
X96619557Y-70309533D01*
X96703221Y-70153011D01*
X96703222Y-70153009D01*
X96732552Y-70117271D01*
X96815814Y-70015814D01*
X96917271Y-69932552D01*
X96953009Y-69903222D01*
X96970913Y-69893652D01*
X97109533Y-69819557D01*
X97166147Y-69802384D01*
X97279373Y-69768037D01*
X97345557Y-69761519D01*
X97411740Y-69755000D01*
X97500260Y-69755000D01*
X97566443Y-69761519D01*
X97566443Y-69761519D01*
G37*
G36*
X93756443Y-69761519D02*
X93822627Y-69768037D01*
X93935853Y-69802384D01*
X93992467Y-69819557D01*
X94131087Y-69893652D01*
X94148991Y-69903222D01*
X94184729Y-69932552D01*
X94286186Y-70015814D01*
X94369448Y-70117271D01*
X94398778Y-70153009D01*
X94398779Y-70153011D01*
X94482443Y-70309533D01*
X94482443Y-70309534D01*
X94533963Y-70479373D01*
X94551359Y-70656000D01*
X94533963Y-70832627D01*
X94531750Y-70839922D01*
X94482443Y-71002467D01*
X94408348Y-71141087D01*
X94398778Y-71158991D01*
X94369448Y-71194729D01*
X94286186Y-71296186D01*
X94184729Y-71379448D01*
X94148991Y-71408778D01*
X94148989Y-71408779D01*
X93992467Y-71492443D01*
X93935853Y-71509616D01*
X93822627Y-71543963D01*
X93756443Y-71550481D01*
X93690260Y-71557000D01*
X93601740Y-71557000D01*
X93535557Y-71550481D01*
X93469373Y-71543963D01*
X93356147Y-71509616D01*
X93299533Y-71492443D01*
X93143011Y-71408779D01*
X93143009Y-71408778D01*
X93107271Y-71379448D01*
X93005814Y-71296186D01*
X92922552Y-71194729D01*
X92893222Y-71158991D01*
X92883652Y-71141087D01*
X92809557Y-71002467D01*
X92760250Y-70839922D01*
X92758037Y-70832627D01*
X92740641Y-70656000D01*
X92758037Y-70479373D01*
X92809557Y-70309534D01*
X92809557Y-70309533D01*
X92893221Y-70153011D01*
X92893222Y-70153009D01*
X92922552Y-70117271D01*
X93005814Y-70015814D01*
X93107271Y-69932552D01*
X93143009Y-69903222D01*
X93160913Y-69893652D01*
X93299533Y-69819557D01*
X93356147Y-69802384D01*
X93469373Y-69768037D01*
X93535557Y-69761519D01*
X93601740Y-69755000D01*
X93690260Y-69755000D01*
X93756443Y-69761519D01*
X93756443Y-69761519D01*
G37*
G36*
X90037000Y-71539000D02*
X88235000Y-71539000D01*
X88235000Y-69737000D01*
X90037000Y-69737000D01*
X90037000Y-71539000D01*
X90037000Y-71539000D01*
G37*
G36*
X122645443Y-68480519D02*
X122711627Y-68487037D01*
X122824853Y-68521384D01*
X122881467Y-68538557D01*
X123011711Y-68608175D01*
X123037991Y-68622222D01*
X123073729Y-68651552D01*
X123175186Y-68734814D01*
X123258448Y-68836271D01*
X123287778Y-68872009D01*
X123287779Y-68872011D01*
X123371443Y-69028533D01*
X123371443Y-69028534D01*
X123422963Y-69198373D01*
X123440359Y-69375000D01*
X123422963Y-69551627D01*
X123404137Y-69613687D01*
X123371443Y-69721467D01*
X123363140Y-69737000D01*
X123287778Y-69877991D01*
X123267072Y-69903221D01*
X123175186Y-70015186D01*
X123073729Y-70098448D01*
X123037991Y-70127778D01*
X123037989Y-70127779D01*
X122881467Y-70211443D01*
X122824853Y-70228616D01*
X122711627Y-70262963D01*
X122645442Y-70269482D01*
X122579260Y-70276000D01*
X122490740Y-70276000D01*
X122424558Y-70269482D01*
X122358373Y-70262963D01*
X122245147Y-70228616D01*
X122188533Y-70211443D01*
X122032011Y-70127779D01*
X122032009Y-70127778D01*
X121996271Y-70098448D01*
X121894814Y-70015186D01*
X121802928Y-69903221D01*
X121782222Y-69877991D01*
X121706860Y-69737000D01*
X121698557Y-69721467D01*
X121665863Y-69613687D01*
X121647037Y-69551627D01*
X121629641Y-69375000D01*
X121647037Y-69198373D01*
X121698557Y-69028534D01*
X121698557Y-69028533D01*
X121782221Y-68872011D01*
X121782222Y-68872009D01*
X121811552Y-68836271D01*
X121894814Y-68734814D01*
X121996271Y-68651552D01*
X122032009Y-68622222D01*
X122058289Y-68608175D01*
X122188533Y-68538557D01*
X122245147Y-68521384D01*
X122358373Y-68487037D01*
X122424557Y-68480519D01*
X122490740Y-68474000D01*
X122579260Y-68474000D01*
X122645443Y-68480519D01*
X122645443Y-68480519D01*
G37*
G36*
X120105443Y-68480519D02*
X120171627Y-68487037D01*
X120284853Y-68521384D01*
X120341467Y-68538557D01*
X120471711Y-68608175D01*
X120497991Y-68622222D01*
X120533729Y-68651552D01*
X120635186Y-68734814D01*
X120718448Y-68836271D01*
X120747778Y-68872009D01*
X120747779Y-68872011D01*
X120831443Y-69028533D01*
X120831443Y-69028534D01*
X120882963Y-69198373D01*
X120900359Y-69375000D01*
X120882963Y-69551627D01*
X120864137Y-69613687D01*
X120831443Y-69721467D01*
X120823140Y-69737000D01*
X120747778Y-69877991D01*
X120727072Y-69903221D01*
X120635186Y-70015186D01*
X120533729Y-70098448D01*
X120497991Y-70127778D01*
X120497989Y-70127779D01*
X120341467Y-70211443D01*
X120284853Y-70228616D01*
X120171627Y-70262963D01*
X120105442Y-70269482D01*
X120039260Y-70276000D01*
X119950740Y-70276000D01*
X119884558Y-70269482D01*
X119818373Y-70262963D01*
X119705147Y-70228616D01*
X119648533Y-70211443D01*
X119492011Y-70127779D01*
X119492009Y-70127778D01*
X119456271Y-70098448D01*
X119354814Y-70015186D01*
X119262928Y-69903221D01*
X119242222Y-69877991D01*
X119166860Y-69737000D01*
X119158557Y-69721467D01*
X119125863Y-69613687D01*
X119107037Y-69551627D01*
X119089641Y-69375000D01*
X119107037Y-69198373D01*
X119158557Y-69028534D01*
X119158557Y-69028533D01*
X119242221Y-68872011D01*
X119242222Y-68872009D01*
X119271552Y-68836271D01*
X119354814Y-68734814D01*
X119456271Y-68651552D01*
X119492009Y-68622222D01*
X119518289Y-68608175D01*
X119648533Y-68538557D01*
X119705147Y-68521384D01*
X119818373Y-68487037D01*
X119884557Y-68480519D01*
X119950740Y-68474000D01*
X120039260Y-68474000D01*
X120105443Y-68480519D01*
X120105443Y-68480519D01*
G37*
G36*
X125976000Y-70276000D02*
X124174000Y-70276000D01*
X124174000Y-68474000D01*
X125976000Y-68474000D01*
X125976000Y-70276000D01*
X125976000Y-70276000D01*
G37*
G36*
X116381821Y-67936313D02*
X116381824Y-67936314D01*
X116381825Y-67936314D01*
X116542239Y-67984975D01*
X116542241Y-67984976D01*
X116542244Y-67984977D01*
X116690078Y-68063995D01*
X116819659Y-68170341D01*
X116926005Y-68299922D01*
X117005023Y-68447756D01*
X117005024Y-68447759D01*
X117005025Y-68447761D01*
X117053686Y-68608175D01*
X117053687Y-68608179D01*
X117070117Y-68775000D01*
X117053687Y-68941821D01*
X117053686Y-68941824D01*
X117053686Y-68941825D01*
X117034837Y-69003963D01*
X117005023Y-69102244D01*
X116926005Y-69250078D01*
X116819659Y-69379659D01*
X116690078Y-69486005D01*
X116542244Y-69565023D01*
X116542241Y-69565024D01*
X116542239Y-69565025D01*
X116381825Y-69613686D01*
X116381824Y-69613686D01*
X116381821Y-69613687D01*
X116256804Y-69626000D01*
X116173196Y-69626000D01*
X116048179Y-69613687D01*
X116048176Y-69613686D01*
X116048175Y-69613686D01*
X115887761Y-69565025D01*
X115887759Y-69565024D01*
X115887756Y-69565023D01*
X115739922Y-69486005D01*
X115610341Y-69379659D01*
X115503995Y-69250078D01*
X115424977Y-69102244D01*
X115395164Y-69003963D01*
X115376314Y-68941825D01*
X115376314Y-68941824D01*
X115376313Y-68941821D01*
X115359883Y-68775000D01*
X115376313Y-68608179D01*
X115376314Y-68608175D01*
X115424975Y-68447761D01*
X115424976Y-68447759D01*
X115424977Y-68447756D01*
X115503995Y-68299922D01*
X115610341Y-68170341D01*
X115739922Y-68063995D01*
X115887756Y-67984977D01*
X115887759Y-67984976D01*
X115887761Y-67984975D01*
X116048175Y-67936314D01*
X116048176Y-67936314D01*
X116048179Y-67936313D01*
X116173196Y-67924000D01*
X116256804Y-67924000D01*
X116381821Y-67936313D01*
X116381821Y-67936313D01*
G37*
G36*
X101141821Y-67936313D02*
X101141824Y-67936314D01*
X101141825Y-67936314D01*
X101302239Y-67984975D01*
X101302241Y-67984976D01*
X101302244Y-67984977D01*
X101450078Y-68063995D01*
X101579659Y-68170341D01*
X101686005Y-68299922D01*
X101765023Y-68447756D01*
X101765024Y-68447759D01*
X101765025Y-68447761D01*
X101813686Y-68608175D01*
X101813687Y-68608179D01*
X101830117Y-68775000D01*
X101813687Y-68941821D01*
X101813686Y-68941824D01*
X101813686Y-68941825D01*
X101794837Y-69003963D01*
X101765023Y-69102244D01*
X101686005Y-69250078D01*
X101579659Y-69379659D01*
X101450078Y-69486005D01*
X101302244Y-69565023D01*
X101302241Y-69565024D01*
X101302239Y-69565025D01*
X101141825Y-69613686D01*
X101141824Y-69613686D01*
X101141821Y-69613687D01*
X101016804Y-69626000D01*
X100933196Y-69626000D01*
X100808179Y-69613687D01*
X100808176Y-69613686D01*
X100808175Y-69613686D01*
X100647761Y-69565025D01*
X100647759Y-69565024D01*
X100647756Y-69565023D01*
X100499922Y-69486005D01*
X100370341Y-69379659D01*
X100263995Y-69250078D01*
X100184977Y-69102244D01*
X100155164Y-69003963D01*
X100136314Y-68941825D01*
X100136314Y-68941824D01*
X100136313Y-68941821D01*
X100119883Y-68775000D01*
X100136313Y-68608179D01*
X100136314Y-68608175D01*
X100184975Y-68447761D01*
X100184976Y-68447759D01*
X100184977Y-68447756D01*
X100263995Y-68299922D01*
X100370341Y-68170341D01*
X100499922Y-68063995D01*
X100647756Y-67984977D01*
X100647759Y-67984976D01*
X100647761Y-67984975D01*
X100808175Y-67936314D01*
X100808176Y-67936314D01*
X100808179Y-67936313D01*
X100933196Y-67924000D01*
X101016804Y-67924000D01*
X101141821Y-67936313D01*
X101141821Y-67936313D01*
G37*
G36*
X97566443Y-67221519D02*
X97632627Y-67228037D01*
X97745853Y-67262384D01*
X97802467Y-67279557D01*
X97941087Y-67353652D01*
X97958991Y-67363222D01*
X97994729Y-67392552D01*
X98096186Y-67475814D01*
X98179448Y-67577271D01*
X98208778Y-67613009D01*
X98208779Y-67613011D01*
X98292443Y-67769533D01*
X98292443Y-67769534D01*
X98343963Y-67939373D01*
X98361359Y-68116000D01*
X98343963Y-68292627D01*
X98341750Y-68299922D01*
X98292443Y-68462467D01*
X98251771Y-68538557D01*
X98208778Y-68618991D01*
X98206127Y-68622221D01*
X98096186Y-68756186D01*
X97994729Y-68839448D01*
X97958991Y-68868778D01*
X97941087Y-68878348D01*
X97802467Y-68952443D01*
X97745853Y-68969616D01*
X97632627Y-69003963D01*
X97566443Y-69010481D01*
X97500260Y-69017000D01*
X97411740Y-69017000D01*
X97345557Y-69010481D01*
X97279373Y-69003963D01*
X97166147Y-68969616D01*
X97109533Y-68952443D01*
X96970913Y-68878348D01*
X96953009Y-68868778D01*
X96917271Y-68839448D01*
X96815814Y-68756186D01*
X96705873Y-68622221D01*
X96703222Y-68618991D01*
X96660229Y-68538557D01*
X96619557Y-68462467D01*
X96570250Y-68299922D01*
X96568037Y-68292627D01*
X96550641Y-68116000D01*
X96568037Y-67939373D01*
X96619557Y-67769534D01*
X96619557Y-67769533D01*
X96703221Y-67613011D01*
X96703222Y-67613009D01*
X96732552Y-67577271D01*
X96815814Y-67475814D01*
X96917271Y-67392552D01*
X96953009Y-67363222D01*
X96970913Y-67353652D01*
X97109533Y-67279557D01*
X97166147Y-67262384D01*
X97279373Y-67228037D01*
X97345557Y-67221519D01*
X97411740Y-67215000D01*
X97500260Y-67215000D01*
X97566443Y-67221519D01*
X97566443Y-67221519D01*
G37*
G36*
X93756443Y-67221519D02*
X93822627Y-67228037D01*
X93935853Y-67262384D01*
X93992467Y-67279557D01*
X94131087Y-67353652D01*
X94148991Y-67363222D01*
X94184729Y-67392552D01*
X94286186Y-67475814D01*
X94369448Y-67577271D01*
X94398778Y-67613009D01*
X94398779Y-67613011D01*
X94482443Y-67769533D01*
X94482443Y-67769534D01*
X94533963Y-67939373D01*
X94551359Y-68116000D01*
X94533963Y-68292627D01*
X94531750Y-68299922D01*
X94482443Y-68462467D01*
X94441771Y-68538557D01*
X94398778Y-68618991D01*
X94396127Y-68622221D01*
X94286186Y-68756186D01*
X94184729Y-68839448D01*
X94148991Y-68868778D01*
X94131087Y-68878348D01*
X93992467Y-68952443D01*
X93935853Y-68969616D01*
X93822627Y-69003963D01*
X93756443Y-69010481D01*
X93690260Y-69017000D01*
X93601740Y-69017000D01*
X93535557Y-69010481D01*
X93469373Y-69003963D01*
X93356147Y-68969616D01*
X93299533Y-68952443D01*
X93160913Y-68878348D01*
X93143009Y-68868778D01*
X93107271Y-68839448D01*
X93005814Y-68756186D01*
X92895873Y-68622221D01*
X92893222Y-68618991D01*
X92850229Y-68538557D01*
X92809557Y-68462467D01*
X92760250Y-68299922D01*
X92758037Y-68292627D01*
X92740641Y-68116000D01*
X92758037Y-67939373D01*
X92809557Y-67769534D01*
X92809557Y-67769533D01*
X92893221Y-67613011D01*
X92893222Y-67613009D01*
X92922552Y-67577271D01*
X93005814Y-67475814D01*
X93107271Y-67392552D01*
X93143009Y-67363222D01*
X93160913Y-67353652D01*
X93299533Y-67279557D01*
X93356147Y-67262384D01*
X93469373Y-67228037D01*
X93535557Y-67221519D01*
X93601740Y-67215000D01*
X93690260Y-67215000D01*
X93756443Y-67221519D01*
X93756443Y-67221519D01*
G37*
G36*
X101141821Y-65396313D02*
X101141824Y-65396314D01*
X101141825Y-65396314D01*
X101302239Y-65444975D01*
X101302241Y-65444976D01*
X101302244Y-65444977D01*
X101450078Y-65523995D01*
X101579659Y-65630341D01*
X101686005Y-65759922D01*
X101765023Y-65907756D01*
X101813687Y-66068179D01*
X101830117Y-66235000D01*
X101813687Y-66401821D01*
X101813686Y-66401824D01*
X101813686Y-66401825D01*
X101790646Y-66477779D01*
X101765023Y-66562244D01*
X101686005Y-66710078D01*
X101579659Y-66839659D01*
X101450078Y-66946005D01*
X101302244Y-67025023D01*
X101302241Y-67025024D01*
X101302239Y-67025025D01*
X101141825Y-67073686D01*
X101141824Y-67073686D01*
X101141821Y-67073687D01*
X101016804Y-67086000D01*
X100933196Y-67086000D01*
X100808179Y-67073687D01*
X100808176Y-67073686D01*
X100808175Y-67073686D01*
X100647761Y-67025025D01*
X100647759Y-67025024D01*
X100647756Y-67025023D01*
X100499922Y-66946005D01*
X100370341Y-66839659D01*
X100263995Y-66710078D01*
X100184977Y-66562244D01*
X100159355Y-66477779D01*
X100136314Y-66401825D01*
X100136314Y-66401824D01*
X100136313Y-66401821D01*
X100119883Y-66235000D01*
X100136313Y-66068179D01*
X100184977Y-65907756D01*
X100263995Y-65759922D01*
X100370341Y-65630341D01*
X100499922Y-65523995D01*
X100647756Y-65444977D01*
X100647759Y-65444976D01*
X100647761Y-65444975D01*
X100808175Y-65396314D01*
X100808176Y-65396314D01*
X100808179Y-65396313D01*
X100933196Y-65384000D01*
X101016804Y-65384000D01*
X101141821Y-65396313D01*
X101141821Y-65396313D01*
G37*
G36*
X116381821Y-65396313D02*
X116381824Y-65396314D01*
X116381825Y-65396314D01*
X116542239Y-65444975D01*
X116542241Y-65444976D01*
X116542244Y-65444977D01*
X116690078Y-65523995D01*
X116819659Y-65630341D01*
X116926005Y-65759922D01*
X117005023Y-65907756D01*
X117053687Y-66068179D01*
X117070117Y-66235000D01*
X117053687Y-66401821D01*
X117053686Y-66401824D01*
X117053686Y-66401825D01*
X117030646Y-66477779D01*
X117005023Y-66562244D01*
X116926005Y-66710078D01*
X116819659Y-66839659D01*
X116690078Y-66946005D01*
X116542244Y-67025023D01*
X116542241Y-67025024D01*
X116542239Y-67025025D01*
X116381825Y-67073686D01*
X116381824Y-67073686D01*
X116381821Y-67073687D01*
X116256804Y-67086000D01*
X116173196Y-67086000D01*
X116048179Y-67073687D01*
X116048176Y-67073686D01*
X116048175Y-67073686D01*
X115887761Y-67025025D01*
X115887759Y-67025024D01*
X115887756Y-67025023D01*
X115739922Y-66946005D01*
X115610341Y-66839659D01*
X115503995Y-66710078D01*
X115424977Y-66562244D01*
X115399355Y-66477779D01*
X115376314Y-66401825D01*
X115376314Y-66401824D01*
X115376313Y-66401821D01*
X115359883Y-66235000D01*
X115376313Y-66068179D01*
X115424977Y-65907756D01*
X115503995Y-65759922D01*
X115610341Y-65630341D01*
X115739922Y-65523995D01*
X115887756Y-65444977D01*
X115887759Y-65444976D01*
X115887761Y-65444975D01*
X116048175Y-65396314D01*
X116048176Y-65396314D01*
X116048179Y-65396313D01*
X116173196Y-65384000D01*
X116256804Y-65384000D01*
X116381821Y-65396313D01*
X116381821Y-65396313D01*
G37*
G36*
X120105442Y-64830518D02*
X120171627Y-64837037D01*
X120284853Y-64871384D01*
X120341467Y-64888557D01*
X120480087Y-64962652D01*
X120497991Y-64972222D01*
X120533729Y-65001552D01*
X120635186Y-65084814D01*
X120718448Y-65186271D01*
X120747778Y-65222009D01*
X120747779Y-65222011D01*
X120831443Y-65378533D01*
X120848616Y-65435147D01*
X120882963Y-65548373D01*
X120900359Y-65725000D01*
X120882963Y-65901627D01*
X120881102Y-65907761D01*
X120831443Y-66071467D01*
X120757348Y-66210087D01*
X120747778Y-66227991D01*
X120718448Y-66263729D01*
X120635186Y-66365186D01*
X120533729Y-66448448D01*
X120497991Y-66477778D01*
X120497989Y-66477779D01*
X120341467Y-66561443D01*
X120284853Y-66578616D01*
X120171627Y-66612963D01*
X120105443Y-66619481D01*
X120039260Y-66626000D01*
X119950740Y-66626000D01*
X119884557Y-66619481D01*
X119818373Y-66612963D01*
X119705147Y-66578616D01*
X119648533Y-66561443D01*
X119492011Y-66477779D01*
X119492009Y-66477778D01*
X119456271Y-66448448D01*
X119354814Y-66365186D01*
X119271552Y-66263729D01*
X119242222Y-66227991D01*
X119232652Y-66210087D01*
X119158557Y-66071467D01*
X119108898Y-65907761D01*
X119107037Y-65901627D01*
X119089641Y-65725000D01*
X119107037Y-65548373D01*
X119141384Y-65435147D01*
X119158557Y-65378533D01*
X119242221Y-65222011D01*
X119242222Y-65222009D01*
X119271552Y-65186271D01*
X119354814Y-65084814D01*
X119456271Y-65001552D01*
X119492009Y-64972222D01*
X119509913Y-64962652D01*
X119648533Y-64888557D01*
X119705147Y-64871384D01*
X119818373Y-64837037D01*
X119884558Y-64830518D01*
X119950740Y-64824000D01*
X120039260Y-64824000D01*
X120105442Y-64830518D01*
X120105442Y-64830518D01*
G37*
G36*
X122645442Y-64830518D02*
X122711627Y-64837037D01*
X122824853Y-64871384D01*
X122881467Y-64888557D01*
X123020087Y-64962652D01*
X123037991Y-64972222D01*
X123073729Y-65001552D01*
X123175186Y-65084814D01*
X123258448Y-65186271D01*
X123287778Y-65222009D01*
X123287779Y-65222011D01*
X123371443Y-65378533D01*
X123388616Y-65435147D01*
X123422963Y-65548373D01*
X123440359Y-65725000D01*
X123422963Y-65901627D01*
X123421102Y-65907761D01*
X123371443Y-66071467D01*
X123297348Y-66210087D01*
X123287778Y-66227991D01*
X123258448Y-66263729D01*
X123175186Y-66365186D01*
X123073729Y-66448448D01*
X123037991Y-66477778D01*
X123037989Y-66477779D01*
X122881467Y-66561443D01*
X122824853Y-66578616D01*
X122711627Y-66612963D01*
X122645443Y-66619481D01*
X122579260Y-66626000D01*
X122490740Y-66626000D01*
X122424557Y-66619481D01*
X122358373Y-66612963D01*
X122245147Y-66578616D01*
X122188533Y-66561443D01*
X122032011Y-66477779D01*
X122032009Y-66477778D01*
X121996271Y-66448448D01*
X121894814Y-66365186D01*
X121811552Y-66263729D01*
X121782222Y-66227991D01*
X121772652Y-66210087D01*
X121698557Y-66071467D01*
X121648898Y-65907761D01*
X121647037Y-65901627D01*
X121629641Y-65725000D01*
X121647037Y-65548373D01*
X121681384Y-65435147D01*
X121698557Y-65378533D01*
X121782221Y-65222011D01*
X121782222Y-65222009D01*
X121811552Y-65186271D01*
X121894814Y-65084814D01*
X121996271Y-65001552D01*
X122032009Y-64972222D01*
X122049913Y-64962652D01*
X122188533Y-64888557D01*
X122245147Y-64871384D01*
X122358373Y-64837037D01*
X122424558Y-64830518D01*
X122490740Y-64824000D01*
X122579260Y-64824000D01*
X122645442Y-64830518D01*
X122645442Y-64830518D01*
G37*
G36*
X125976000Y-66626000D02*
X124174000Y-66626000D01*
X124174000Y-64824000D01*
X125976000Y-64824000D01*
X125976000Y-66626000D01*
X125976000Y-66626000D01*
G37*
G36*
X101826000Y-64546000D02*
X100124000Y-64546000D01*
X100124000Y-62844000D01*
X101826000Y-62844000D01*
X101826000Y-64546000D01*
X101826000Y-64546000D01*
G37*
G36*
X116381821Y-62856313D02*
X116381824Y-62856314D01*
X116381825Y-62856314D01*
X116542239Y-62904975D01*
X116542241Y-62904976D01*
X116542244Y-62904977D01*
X116690078Y-62983995D01*
X116819659Y-63090341D01*
X116926005Y-63219922D01*
X117005023Y-63367756D01*
X117053687Y-63528179D01*
X117070117Y-63695000D01*
X117053687Y-63861821D01*
X117053686Y-63861824D01*
X117053686Y-63861825D01*
X117047441Y-63882413D01*
X117005023Y-64022244D01*
X116926005Y-64170078D01*
X116819659Y-64299659D01*
X116690078Y-64406005D01*
X116542244Y-64485023D01*
X116542241Y-64485024D01*
X116542239Y-64485025D01*
X116381825Y-64533686D01*
X116381824Y-64533686D01*
X116381821Y-64533687D01*
X116256804Y-64546000D01*
X116173196Y-64546000D01*
X116048179Y-64533687D01*
X116048176Y-64533686D01*
X116048175Y-64533686D01*
X115887761Y-64485025D01*
X115887759Y-64485024D01*
X115887756Y-64485023D01*
X115739922Y-64406005D01*
X115610341Y-64299659D01*
X115503995Y-64170078D01*
X115424977Y-64022244D01*
X115382560Y-63882413D01*
X115376314Y-63861825D01*
X115376314Y-63861824D01*
X115376313Y-63861821D01*
X115359883Y-63695000D01*
X115376313Y-63528179D01*
X115424977Y-63367756D01*
X115503995Y-63219922D01*
X115610341Y-63090341D01*
X115739922Y-62983995D01*
X115887756Y-62904977D01*
X115887759Y-62904976D01*
X115887761Y-62904975D01*
X116048175Y-62856314D01*
X116048176Y-62856314D01*
X116048179Y-62856313D01*
X116173196Y-62844000D01*
X116256804Y-62844000D01*
X116381821Y-62856313D01*
X116381821Y-62856313D01*
G37*
G36*
X91325256Y-60991298D02*
X91431579Y-61012447D01*
X91732042Y-61136903D01*
X91998852Y-61315180D01*
X92002454Y-61317587D01*
X92232413Y-61547546D01*
X92232415Y-61547549D01*
X92353346Y-61728534D01*
X92413098Y-61817960D01*
X92537553Y-62118422D01*
X92601000Y-62437389D01*
X92601000Y-62762611D01*
X92582361Y-62856313D01*
X92537553Y-63081579D01*
X92480249Y-63219922D01*
X92413098Y-63382040D01*
X92232413Y-63652454D01*
X92002454Y-63882413D01*
X92002451Y-63882415D01*
X91732042Y-64063097D01*
X91431579Y-64187553D01*
X91325256Y-64208702D01*
X91112611Y-64251000D01*
X90787389Y-64251000D01*
X90574744Y-64208702D01*
X90468421Y-64187553D01*
X90167958Y-64063097D01*
X89897549Y-63882415D01*
X89897546Y-63882413D01*
X89667587Y-63652454D01*
X89486902Y-63382040D01*
X89419751Y-63219922D01*
X89362447Y-63081579D01*
X89317639Y-62856313D01*
X89299000Y-62762611D01*
X89299000Y-62437389D01*
X89362447Y-62118422D01*
X89486902Y-61817960D01*
X89546655Y-61728534D01*
X89667585Y-61547549D01*
X89667587Y-61547546D01*
X89897546Y-61317587D01*
X89901148Y-61315180D01*
X90167958Y-61136903D01*
X90468421Y-61012447D01*
X90574744Y-60991298D01*
X90787389Y-60949000D01*
X91112611Y-60949000D01*
X91325256Y-60991298D01*
X91325256Y-60991298D01*
G37*
G36*
X131325256Y-60991298D02*
X131431579Y-61012447D01*
X131732042Y-61136903D01*
X131998852Y-61315180D01*
X132002454Y-61317587D01*
X132232413Y-61547546D01*
X132232415Y-61547549D01*
X132353346Y-61728534D01*
X132413098Y-61817960D01*
X132537553Y-62118422D01*
X132601000Y-62437389D01*
X132601000Y-62762611D01*
X132582361Y-62856313D01*
X132537553Y-63081579D01*
X132480249Y-63219922D01*
X132413098Y-63382040D01*
X132232413Y-63652454D01*
X132002454Y-63882413D01*
X132002451Y-63882415D01*
X131732042Y-64063097D01*
X131431579Y-64187553D01*
X131325256Y-64208702D01*
X131112611Y-64251000D01*
X130787389Y-64251000D01*
X130574744Y-64208702D01*
X130468421Y-64187553D01*
X130167958Y-64063097D01*
X129897549Y-63882415D01*
X129897546Y-63882413D01*
X129667587Y-63652454D01*
X129486902Y-63382040D01*
X129419751Y-63219922D01*
X129362447Y-63081579D01*
X129317639Y-62856313D01*
X129299000Y-62762611D01*
X129299000Y-62437389D01*
X129362447Y-62118422D01*
X129486902Y-61817960D01*
X129546655Y-61728534D01*
X129667585Y-61547549D01*
X129667587Y-61547546D01*
X129897546Y-61317587D01*
X129901148Y-61315180D01*
X130167958Y-61136903D01*
X130468421Y-61012447D01*
X130574744Y-60991298D01*
X130787389Y-60949000D01*
X131112611Y-60949000D01*
X131325256Y-60991298D01*
X131325256Y-60991298D01*
G37*
G36*
X125976000Y-62976000D02*
X124174000Y-62976000D01*
X124174000Y-61174000D01*
X125976000Y-61174000D01*
X125976000Y-62976000D01*
X125976000Y-62976000D01*
G37*
G36*
X122645442Y-61180518D02*
X122711627Y-61187037D01*
X122824853Y-61221384D01*
X122881467Y-61238557D01*
X123020087Y-61312652D01*
X123037991Y-61322222D01*
X123073729Y-61351552D01*
X123175186Y-61434814D01*
X123258448Y-61536271D01*
X123287778Y-61572009D01*
X123287779Y-61572011D01*
X123371443Y-61728533D01*
X123371443Y-61728534D01*
X123422963Y-61898373D01*
X123440359Y-62075000D01*
X123422963Y-62251627D01*
X123388616Y-62364853D01*
X123371443Y-62421467D01*
X123362932Y-62437389D01*
X123287778Y-62577991D01*
X123258448Y-62613729D01*
X123175186Y-62715186D01*
X123073729Y-62798448D01*
X123037991Y-62827778D01*
X123037989Y-62827779D01*
X122881467Y-62911443D01*
X122824853Y-62928616D01*
X122711627Y-62962963D01*
X122645442Y-62969482D01*
X122579260Y-62976000D01*
X122490740Y-62976000D01*
X122424558Y-62969482D01*
X122358373Y-62962963D01*
X122245147Y-62928616D01*
X122188533Y-62911443D01*
X122032011Y-62827779D01*
X122032009Y-62827778D01*
X121996271Y-62798448D01*
X121894814Y-62715186D01*
X121811552Y-62613729D01*
X121782222Y-62577991D01*
X121707068Y-62437389D01*
X121698557Y-62421467D01*
X121681384Y-62364853D01*
X121647037Y-62251627D01*
X121629641Y-62075000D01*
X121647037Y-61898373D01*
X121698557Y-61728534D01*
X121698557Y-61728533D01*
X121782221Y-61572011D01*
X121782222Y-61572009D01*
X121811552Y-61536271D01*
X121894814Y-61434814D01*
X121996271Y-61351552D01*
X122032009Y-61322222D01*
X122049913Y-61312652D01*
X122188533Y-61238557D01*
X122245147Y-61221384D01*
X122358373Y-61187037D01*
X122424558Y-61180518D01*
X122490740Y-61174000D01*
X122579260Y-61174000D01*
X122645442Y-61180518D01*
X122645442Y-61180518D01*
G37*
G36*
X120105442Y-61180518D02*
X120171627Y-61187037D01*
X120284853Y-61221384D01*
X120341467Y-61238557D01*
X120480087Y-61312652D01*
X120497991Y-61322222D01*
X120533729Y-61351552D01*
X120635186Y-61434814D01*
X120718448Y-61536271D01*
X120747778Y-61572009D01*
X120747779Y-61572011D01*
X120831443Y-61728533D01*
X120831443Y-61728534D01*
X120882963Y-61898373D01*
X120900359Y-62075000D01*
X120882963Y-62251627D01*
X120848616Y-62364853D01*
X120831443Y-62421467D01*
X120822932Y-62437389D01*
X120747778Y-62577991D01*
X120718448Y-62613729D01*
X120635186Y-62715186D01*
X120533729Y-62798448D01*
X120497991Y-62827778D01*
X120497989Y-62827779D01*
X120341467Y-62911443D01*
X120284853Y-62928616D01*
X120171627Y-62962963D01*
X120105442Y-62969482D01*
X120039260Y-62976000D01*
X119950740Y-62976000D01*
X119884558Y-62969482D01*
X119818373Y-62962963D01*
X119705147Y-62928616D01*
X119648533Y-62911443D01*
X119492011Y-62827779D01*
X119492009Y-62827778D01*
X119456271Y-62798448D01*
X119354814Y-62715186D01*
X119271552Y-62613729D01*
X119242222Y-62577991D01*
X119167068Y-62437389D01*
X119158557Y-62421467D01*
X119141384Y-62364853D01*
X119107037Y-62251627D01*
X119089641Y-62075000D01*
X119107037Y-61898373D01*
X119158557Y-61728534D01*
X119158557Y-61728533D01*
X119242221Y-61572011D01*
X119242222Y-61572009D01*
X119271552Y-61536271D01*
X119354814Y-61434814D01*
X119456271Y-61351552D01*
X119492009Y-61322222D01*
X119509913Y-61312652D01*
X119648533Y-61238557D01*
X119705147Y-61221384D01*
X119818373Y-61187037D01*
X119884558Y-61180518D01*
X119950740Y-61174000D01*
X120039260Y-61174000D01*
X120105442Y-61180518D01*
X120105442Y-61180518D01*
G37*
M02*
